#N canvas 353 22 1008 829 10;
#X msg 134 179 rewind;
#X obj 44 203 text define filelist;
#X obj 96 373 text get filelist;
#X obj 266 146 text size filelist;
#X floatatom 266 173 5 0 0 0 - - -, f 5;
#N canvas 0 23 437 520 arrays-inside 0;
#X obj 10 0 array define Persephone-drums.wav;
#X obj 10 20 array define hands-up-who-wants-to-die.wav;
#X obj 10 40 array define infra_excerpt.wav;
#X obj 10 60 array define jonny-drums.wav;
#X obj 10 80 array define piano_shoot_1.wav;
#X obj 10 100 array define piano_shoot_2.wav;
#X obj 10 120 array define processed_hakd.wav;
#X obj 10 140 array define sfh_harpsichord_loop.wav;
#X obj 10 160 array define sfh_harpsichord_loop_HARM.wav;
#X obj 10 180 array define sfh_harpsichord_loop_PERC.wav;
#X restore 580 691 pd arrays-inside;
#X msg 61 179 clear;
#X obj 264 287 until;
#X obj 338 453 makefilename ~/Documents/sounds/%s;
#X obj 264 314 f;
#X obj 352 314 + 1;
#X obj 265 230 t f b;
#X msg 318 287 0;
#X obj 577 661 s pd-arrays-inside;
#X obj 338 591 soundfiler;
#X obj 382 499 symbol array0;
#X msg 338 564 read -resize \$1 \$2;
#X obj 582 445 t b s s;
#X obj 338 479 t s b;
#X obj 338 537 pack s s;
#X text 504 82 takes a text file of audio file names and automatically
loads them into buffers;
#X obj 611 553 f;
#X obj 680 441 * 20;
#X obj 577 607 pack f f s s s;
#X msg 577 634 obj \$1 \$2 \$3 \$4 \$5;
#X msg 666 553 symbol array;
#X msg 766 553 symbol define;
#X obj 582 499 t b b b b;
#X msg 44 127 read -c \$1;
#X obj 266 119 t b b;
#X obj 44 78 t b s;
#X obj 564 553 f 10;
#X obj 264 341 t f f f;
#X msg 528 635 clear;
#X obj 95 481 list prepend names;
#X obj 96 395 t b s s;
#X obj 96 450 text tolist filelist;
#X obj 95 507 list trim;
#X obj 95 637 outlet;
#X msg 44 13 symbol ~/Documents/sounds/index2.txt;
#X text 141 632 <- to [dropdown];
#X obj 126 49 inlet;
#X connect 0 0 1 0;
#X connect 2 0 35 0;
#X connect 3 0 4 0;
#X connect 4 0 11 0;
#X connect 6 0 1 0;
#X connect 7 0 9 0;
#X connect 8 0 18 0;
#X connect 9 0 32 0;
#X connect 10 0 9 1;
#X connect 11 0 7 0;
#X connect 11 1 12 0;
#X connect 12 0 9 1;
#X connect 15 0 19 1;
#X connect 16 0 14 0;
#X connect 17 0 27 0;
#X connect 17 1 23 4;
#X connect 17 2 15 1;
#X connect 18 0 19 0;
#X connect 18 1 15 0;
#X connect 19 0 16 0;
#X connect 21 0 23 1;
#X connect 22 0 21 1;
#X connect 23 0 24 0;
#X connect 24 0 13 0;
#X connect 25 0 23 2;
#X connect 26 0 23 3;
#X connect 27 0 31 0;
#X connect 27 1 21 0;
#X connect 27 2 25 0;
#X connect 27 3 26 0;
#X connect 28 0 1 0;
#X connect 29 0 3 0;
#X connect 29 1 33 0;
#X connect 30 0 29 0;
#X connect 30 1 28 0;
#X connect 31 0 23 0;
#X connect 32 0 2 0;
#X connect 32 1 10 0;
#X connect 32 2 22 0;
#X connect 33 0 13 0;
#X connect 34 0 37 0;
#X connect 35 0 36 0;
#X connect 35 1 8 0;
#X connect 35 2 17 0;
#X connect 36 0 34 0;
#X connect 37 0 38 0;
#X connect 39 0 30 0;
#X connect 41 0 30 0;
