#N canvas 0 22 1440 852 10;
#X obj 346 215 + 1000;
#X obj 520 247 loop~;
#X obj 552 214 sig~;
#X obj 641 241 loop~;
#X obj 520 363 samphold~;
#X obj 520 269 *~;
#X text 86 309 actual 'playhead' position (samps);
#X obj 599 362 *~;
#X text 632 364 grain phase (samps);
#X obj 520 385 +~;
#X obj 345 504 tabread4~ testbuf;
#X text 559 385 grain 'playhead' (samps);
#X obj 520 407 /~;
#X obj 520 429 wrap~;
#X obj 520 451 *~;
#X text 83 386 if near end of looped region might run over wrap around
to beginning of loop;
#X obj 845 327 wrap~;
#X obj 845 369 *~;
#X obj 845 305 +~ 0.5;
#X obj 806 400 samphold~;
#X obj 806 422 +~;
#X obj 806 444 /~;
#X obj 806 466 wrap~;
#X obj 806 488 *~;
#X text 856 277 2nd out of phase grain;
#X obj 621 504 tabread4~ testbuf;
#X text 690 241 grain phase generator;
#X obj 344 455 +~ 0;
#X obj 620 455 +~ 0;
#X floatatom 703 189 5 0 0 0 - - -, f 5;
#X obj 345 566 *~;
#X text 285 272 current loop phase in samples->;
#X obj 621 587 *~;
#X obj 344 614 +~;
#X obj 495 503 loadbang;
#X msg 495 525 interp 7;
#X obj 412 573 cyclone/wave~ \$0-window;
#X obj 688 571 cyclone/wave~ \$0-window;
#X obj 702 211 sig~;
#X obj 478 77 inlet~;
#X obj 947 532 loadbang;
#X msg 947 554 fill 1 \, apply hanning;
#X obj 947 576 cyclone/buffer~ \$0-window @samps 100;
#X obj 946 754 array define testbuf;
#X obj 944 713 soundfiler;
#X msg 944 668 read -resize ~/Documents/sounds/infra_excerpt.wav testbuf
;
#X text 943 637 TESTING PURPOSES;
#X obj 596 75 route loopsize loopspeed grainsize grainspeed;
#X connect 0 0 27 1;
#X connect 0 0 28 1;
#X connect 1 0 5 0;
#X connect 1 1 5 1;
#X connect 1 1 12 1;
#X connect 1 1 14 1;
#X connect 1 1 21 1;
#X connect 1 1 23 1;
#X connect 2 0 1 1;
#X connect 3 0 4 1;
#X connect 3 0 7 0;
#X connect 3 0 18 0;
#X connect 3 0 36 0;
#X connect 3 1 7 1;
#X connect 3 1 17 1;
#X connect 4 0 9 0;
#X connect 5 0 4 0;
#X connect 5 0 19 0;
#X connect 7 0 9 1;
#X connect 9 0 12 0;
#X connect 10 0 30 0;
#X connect 12 0 13 0;
#X connect 13 0 14 0;
#X connect 14 0 27 0;
#X connect 16 0 17 0;
#X connect 16 0 19 1;
#X connect 16 0 37 0;
#X connect 17 0 20 1;
#X connect 18 0 16 0;
#X connect 19 0 20 0;
#X connect 20 0 21 0;
#X connect 21 0 22 0;
#X connect 22 0 23 0;
#X connect 23 0 28 0;
#X connect 25 0 32 0;
#X connect 27 0 10 0;
#X connect 28 0 25 0;
#X connect 29 0 38 0;
#X connect 30 0 33 0;
#X connect 32 0 33 1;
#X connect 34 0 35 0;
#X connect 35 0 36 0;
#X connect 35 0 37 0;
#X connect 36 0 30 1;
#X connect 37 0 32 1;
#X connect 38 0 3 1;
#X connect 40 0 41 0;
#X connect 41 0 42 0;
#X connect 45 0 44 0;
