#N canvas 545 63 689 486 10;
#X obj 195 148 loop~;
#X obj 301 211 wrap~;
#X obj 301 189 +~ 0.5;
#X text 377 200 2nd out of phase grain;
#X text 25 148 grain phase generator;
#X obj 195 75 inlet~;
#X obj 377 78 inlet~;
#X obj 193 342 outlet~;
#X obj 254 341 outlet~;
#X obj 325 342 outlet~;
#X obj 93 76 inlet;
#X connect 0 0 2 0;
#X connect 0 0 7 0;
#X connect 0 1 9 0;
#X connect 1 0 8 0;
#X connect 2 0 1 0;
#X connect 5 0 0 0;
#X connect 6 0 0 1;
#X connect 10 0 0 0;
