#N canvas 444 23 895 799 10;
#X obj 176 231 t f b;
#X obj 176 253 until;
#X msg 233 253 0;
#X obj 176 275 f 0;
#X obj 264 285 + 1;
#X obj 222 384 + 1;
#X msg 508 470 clear;
#X obj 176 345 * 20;
#X text 444 200 perhaps useful for e.g. generating a 'menu' of buffer
names to use in setting the source for a [tabread4~];
#X msg 360 437 obj 10 10 s \$1;
#X text 578 260 'x' is a placeholder for '\$0';
#X msg 636 406 menuclose;
#X text 408 132 you can then open the subpatch and use click any of
the messages to send it to the [receive] \; the subpatch window automatically
closes on selection;
#X obj 172 127 list length;
#X obj 172 166 t f b b;
#X obj 175 72 t l l;
#X obj 399 274 list store;
#X obj 174 437 pack f f s;
#X msg 399 245 get \$1 1;
#X obj 176 297 t f f f f;
#X text 356 85 given list of symbols \, clears the subpatch \, generates
a [send] and a message for each symbol in the subpatch \, then connects
each message to the [send];
#X obj 23 27 inlet;
#X obj 87 22 inlet;
#X msg 176 21 list a b c d e f g h i j k l m n o p q r s t u v w x
y z aa bb cc dd ee ff gg hh ii ll mm nn oo pp qq rr ss tt uu vv ww
xx yy zz;
#X obj 636 384 t b s;
#X obj 785 488 outlet;
#X obj 360 387 symbol \$0-foo;
#X obj 636 322 r \$0-foo;
#X obj 636 344 symbol;
#N canvas 955 159 450 300 \$0-subpatch 0;
#X obj 10 10 s 1017-foo;
#X msg 10 40 a;
#X msg 10 60 b;
#X msg 10 80 c;
#X msg 10 100 d;
#X msg 10 120 e;
#X msg 10 140 f;
#X msg 10 160 g;
#X msg 10 180 h;
#X msg 10 200 i;
#X msg 10 220 j;
#X msg 10 240 k;
#X msg 10 260 l;
#X msg 10 280 m;
#X msg 10 300 n;
#X msg 10 320 o;
#X msg 10 340 p;
#X msg 10 360 q;
#X msg 10 380 r;
#X msg 10 400 s;
#X msg 10 420 t;
#X msg 10 440 u;
#X msg 10 460 v;
#X msg 10 480 w;
#X msg 10 500 x;
#X msg 10 520 y;
#X msg 10 540 z;
#X msg 10 560 aa;
#X msg 10 580 bb;
#X msg 10 600 cc;
#X msg 10 620 dd;
#X msg 10 640 ee;
#X msg 10 660 ff;
#X msg 10 680 gg;
#X msg 10 700 hh;
#X msg 10 720 ii;
#X msg 10 740 ll;
#X msg 10 760 mm;
#X msg 10 780 nn;
#X msg 10 800 oo;
#X msg 10 820 pp;
#X msg 10 840 qq;
#X msg 10 860 rr;
#X msg 10 880 ss;
#X msg 10 900 tt;
#X msg 10 920 uu;
#X msg 10 940 vv;
#X msg 10 960 ww;
#X msg 10 980 xx;
#X msg 10 1000 yy;
#X msg 10 1020 zz;
#X connect 1 0 0 0;
#X connect 2 0 0 0;
#X connect 3 0 0 0;
#X connect 4 0 0 0;
#X connect 5 0 0 0;
#X connect 6 0 0 0;
#X connect 7 0 0 0;
#X connect 8 0 0 0;
#X connect 9 0 0 0;
#X connect 10 0 0 0;
#X connect 11 0 0 0;
#X connect 12 0 0 0;
#X connect 13 0 0 0;
#X connect 14 0 0 0;
#X connect 15 0 0 0;
#X connect 16 0 0 0;
#X connect 17 0 0 0;
#X connect 18 0 0 0;
#X connect 19 0 0 0;
#X connect 20 0 0 0;
#X connect 21 0 0 0;
#X connect 22 0 0 0;
#X connect 23 0 0 0;
#X connect 24 0 0 0;
#X connect 25 0 0 0;
#X connect 26 0 0 0;
#X connect 27 0 0 0;
#X connect 28 0 0 0;
#X connect 29 0 0 0;
#X connect 30 0 0 0;
#X connect 31 0 0 0;
#X connect 32 0 0 0;
#X connect 33 0 0 0;
#X connect 34 0 0 0;
#X connect 35 0 0 0;
#X connect 36 0 0 0;
#X connect 37 0 0 0;
#X connect 38 0 0 0;
#X connect 39 0 0 0;
#X connect 40 0 0 0;
#X connect 41 0 0 0;
#X connect 42 0 0 0;
#X connect 43 0 0 0;
#X connect 44 0 0 0;
#X connect 45 0 0 0;
#X connect 46 0 0 0;
#X connect 47 0 0 0;
#X connect 48 0 0 0;
#X connect 49 0 0 0;
#X connect 50 0 0 0;
#X restore 426 556 pd \$0-subpatch;
#X obj 427 511 s pd-\$0-subpatch;
#X msg 23 490 vis 1;
#X msg 174 465 msg 10 \$1 \$3 \, connect \$2 0 0 0;
#X obj 176 367 + 40;
#X connect 0 0 1 0;
#X connect 0 1 2 0;
#X connect 1 0 3 0;
#X connect 2 0 3 1;
#X connect 3 0 19 0;
#X connect 4 0 3 1;
#X connect 5 0 17 1;
#X connect 6 0 30 0;
#X connect 7 0 33 0;
#X connect 9 0 30 0;
#X connect 11 0 30 0;
#X connect 13 0 14 0;
#X connect 14 0 0 0;
#X connect 14 1 26 0;
#X connect 14 2 6 0;
#X connect 15 0 13 0;
#X connect 15 1 16 1;
#X connect 16 0 17 2;
#X connect 17 0 32 0;
#X connect 18 0 16 0;
#X connect 19 0 7 0;
#X connect 19 1 5 0;
#X connect 19 2 18 0;
#X connect 19 3 4 0;
#X connect 21 0 31 0;
#X connect 22 0 15 0;
#X connect 23 0 15 0;
#X connect 24 0 11 0;
#X connect 24 1 25 0;
#X connect 26 0 9 0;
#X connect 27 0 28 0;
#X connect 28 0 24 0;
#X connect 31 0 30 0;
#X connect 32 0 30 0;
#X connect 33 0 17 0;
