#N canvas 0 22 895 852 10;
#N canvas 955 159 450 300 subpatch 0;
#X obj 10 10 s 1008-foo;
#X msg 80 0 a;
#X msg 80 20 b;
#X msg 80 40 c;
#X msg 80 60 d;
#X msg 80 80 e;
#X msg 80 100 f;
#X msg 80 120 g;
#X msg 80 140 h;
#X msg 80 160 i;
#X msg 80 180 j;
#X msg 80 200 k;
#X msg 80 220 l;
#X msg 80 240 m;
#X msg 80 260 n;
#X msg 80 280 o;
#X msg 80 300 p;
#X msg 80 320 q;
#X msg 80 340 r;
#X msg 80 360 s;
#X msg 80 380 t;
#X msg 80 400 u;
#X msg 80 420 v;
#X msg 80 440 w;
#X msg 80 460 x;
#X msg 80 480 y;
#X msg 80 500 z;
#X msg 80 520 z;
#X msg 80 540 z;
#X connect 1 0 0 0;
#X connect 2 0 0 0;
#X connect 3 0 0 0;
#X connect 4 0 0 0;
#X connect 5 0 0 0;
#X connect 6 0 0 0;
#X connect 7 0 0 0;
#X connect 8 0 0 0;
#X connect 9 0 0 0;
#X connect 10 0 0 0;
#X connect 11 0 0 0;
#X connect 12 0 0 0;
#X connect 13 0 0 0;
#X connect 14 0 0 0;
#X connect 15 0 0 0;
#X connect 16 0 0 0;
#X connect 17 0 0 0;
#X connect 18 0 0 0;
#X connect 19 0 0 0;
#X connect 20 0 0 0;
#X connect 21 0 0 0;
#X connect 22 0 0 0;
#X connect 23 0 0 0;
#X connect 24 0 0 0;
#X connect 25 0 0 0;
#X connect 26 0 0 0;
#X connect 27 0 0 0;
#X connect 28 0 0 0;
#X restore 426 556 pd subpatch;
#X obj 427 511 s pd-subpatch;
#X obj 176 231 t f b;
#X obj 176 253 until;
#X msg 233 253 0;
#X obj 176 275 f 0;
#X obj 264 285 + 1;
#X obj 222 384 + 1;
#X msg 508 470 clear;
#X obj 176 345 * 20;
#X text 444 200 perhaps useful for e.g. generating a 'menu' of buffer
names to use in setting the source for a [tabread4~];
#X msg 360 437 obj 10 10 s \$1;
#X obj 360 387 symbol 1008;
#X obj 360 409 makefilename %s-foo;
#X obj 636 362 r 1008-foo;
#X obj 636 457 print 1008-foo;
#X text 578 260 'x' is a placeholder for '\$0';
#X msg 636 406 menuclose;
#X text 408 132 you can then open the subpatch and use click any of
the messages to send it to the [receive] \; the subpatch window automatically
closes on selection;
#X obj 172 127 list length;
#X obj 172 166 t f b b;
#X obj 175 72 t l l;
#X obj 399 274 list store;
#X obj 174 437 pack f f s;
#X msg 399 245 get \$1 1;
#X msg 174 465 msg 80 \$1 \$3 \, connect \$2 0 0 0;
#X obj 176 297 t f f f f;
#X text 356 85 given list of symbols \, clears the subpatch \, generates
a [send] and a message for each symbol in the subpatch \, then connects
each message to the [send];
#X msg 21 74 \; pd-subpatch vis 1;
#X obj 23 27 inlet;
#X obj 87 22 inlet;
#X msg 176 21 list a b c d e f g h i j k l m n o p q r s t u v w x
y z aa bb cc dd ee ff gg hh ii ll mm nn oo pp qq rr ss tt uu vv ww
xx yy zz;
#X obj 636 384 t b s;
#X obj 785 488 outlet;
#X connect 2 0 3 0;
#X connect 2 1 4 0;
#X connect 3 0 5 0;
#X connect 4 0 5 1;
#X connect 5 0 26 0;
#X connect 6 0 5 1;
#X connect 7 0 23 1;
#X connect 8 0 1 0;
#X connect 9 0 23 0;
#X connect 11 0 1 0;
#X connect 12 0 13 0;
#X connect 13 0 11 0;
#X connect 14 0 32 0;
#X connect 17 0 1 0;
#X connect 19 0 20 0;
#X connect 20 0 2 0;
#X connect 20 1 12 0;
#X connect 20 2 8 0;
#X connect 21 0 19 0;
#X connect 21 1 22 1;
#X connect 22 0 23 2;
#X connect 23 0 25 0;
#X connect 24 0 22 0;
#X connect 25 0 1 0;
#X connect 26 0 9 0;
#X connect 26 1 7 0;
#X connect 26 2 24 0;
#X connect 26 3 6 0;
#X connect 29 0 28 0;
#X connect 30 0 21 0;
#X connect 31 0 21 0;
#X connect 32 0 17 0;
#X connect 32 1 33 0;
