#N canvas 717 254 685 529 10;
#X obj 249 185 timer;
#X obj 249 432 qlist;
#X msg 432 359 print;
#X msg 434 293 clear;
#X obj 249 328 list trim;
#X obj 230 126 sel 0 1;
#X obj 249 151 t b b;
#X obj 249 307 list prepend add;
#X obj 413 146 t b b f;
#X obj 276 459 spigot 1;
#X msg 321 433 0;
#X obj 117 185 t b b;
#X msg 292 433 1;
#X obj 277 251 symbol \$0-alice;
#X obj 249 281 pack f s f;
#X obj 249 206 t f b;
#X obj 399 432 r \$0-alice;
#X obj 399 453 outlet;
#X msg 120 356 tempo \$1;
#X obj 413 35 inlet datastream;
#X obj 230 34 inlet;
#X obj 353 117 t b b;
#X obj 230 55 route float tempo stop play;
#X connect 0 0 15 0;
#X connect 1 1 9 0;
#X connect 2 0 1 0;
#X connect 3 0 1 0;
#X connect 4 0 1 0;
#X connect 5 0 11 0;
#X connect 5 1 6 0;
#X connect 6 0 0 0;
#X connect 6 1 3 0;
#X connect 7 0 4 0;
#X connect 8 0 0 0;
#X connect 8 1 0 1;
#X connect 8 2 14 2;
#X connect 9 0 1 0;
#X connect 10 0 9 1;
#X connect 11 0 1 0;
#X connect 11 1 12 0;
#X connect 12 0 9 1;
#X connect 13 0 14 1;
#X connect 14 0 7 0;
#X connect 15 0 14 0;
#X connect 15 1 13 0;
#X connect 16 0 17 0;
#X connect 18 0 1 0;
#X connect 19 0 8 0;
#X connect 20 0 22 0;
#X connect 21 0 1 0;
#X connect 21 1 12 0;
#X connect 22 0 5 0;
#X connect 22 1 18 0;
#X connect 22 2 10 0;
#X connect 22 3 21 0;
