#N canvas 649 22 1440 851 10;
#X obj 127 31 inlet~;
#X obj 260 263 loop~;
#X obj 31 41 inlet~;
#X obj 261 325 *~;
#X obj 31 329 +~;
#X obj 31 359 tabread4~ \$1;
#X obj 227 403 *~;
#X obj 529 10 inlet;
#X obj 227 439 outlet~;
#X text 126 557 Inlets:;
#X text 130 585 1 (sig): sample offset;
#X text 130 627 2 (sig): speed;
#X text 223 661 set \$1: set sample buffer to read;
#X text 226 687 setwindow \$1: set window buffer;
#X obj 31 257 samphold~;
#X text 135 482 TODO: pan? vary grain speed? prevent run off end of
looped section of buffer;
#X obj 646 163 list prepend set;
#X obj 409 10 loadbang;
#X obj 525 163 list prepend set;
#X obj 525 43 route setbuf setwindow minlen maxlen;
#X obj 379 58 noise~;
#X obj 379 80 abs~;
#X obj 379 102 *~ 100;
#X obj 379 124 +~ 100;
#X obj 428 166 samplerate~;
#X obj 379 146 /~ 1000;
#X obj 379 218 *~ 44100;
#X obj 525 192 list trim;
#X text 127 663 3: messages:;
#X obj 646 192 list trim;
#X obj 127 63 samphold~;
#X obj 127 128 s~ \$0-speed;
#X obj 127 203 r~ \$0-speed;
#X obj 774 221 sel reset;
#X obj 774 178 list;
#X obj 127 85 expr~ if($v1 > 0 \, $v1 \, 1);
#X obj 409 32 t b b b;
#X obj 646 358 tabread4~ \$2;
#X obj 661 299 array size \$2;
#X obj 646 324 *~;
#X obj 709 270 t b s;
#X obj 709 251 symbol;
#X obj 668 105 -;
#X obj 649 77 t f b f;
#X connect 0 0 30 0;
#X connect 1 0 3 0;
#X connect 1 0 14 1;
#X connect 1 0 30 1;
#X connect 1 0 39 0;
#X connect 1 1 3 1;
#X connect 2 0 14 0;
#X connect 3 0 4 1;
#X connect 4 0 5 0;
#X connect 5 0 6 0;
#X connect 6 0 8 0;
#X connect 7 0 19 0;
#X connect 14 0 4 0;
#X connect 16 0 29 0;
#X connect 17 0 36 0;
#X connect 18 0 27 0;
#X connect 19 0 18 0;
#X connect 19 1 16 0;
#X connect 19 1 41 0;
#X connect 19 2 43 0;
#X connect 19 3 42 0;
#X connect 19 4 34 0;
#X connect 20 0 21 0;
#X connect 21 0 22 0;
#X connect 22 0 23 0;
#X connect 23 0 25 0;
#X connect 24 0 26 1;
#X connect 25 0 26 0;
#X connect 26 0 1 1;
#X connect 27 0 5 0;
#X connect 29 0 37 0;
#X connect 30 0 35 0;
#X connect 32 0 1 0;
#X connect 33 0 1 0;
#X connect 34 0 33 0;
#X connect 35 0 31 0;
#X connect 36 0 1 0;
#X connect 36 1 24 0;
#X connect 36 2 38 0;
#X connect 37 0 6 1;
#X connect 38 0 39 1;
#X connect 39 0 37 0;
#X connect 40 0 38 0;
#X connect 40 1 38 1;
#X connect 41 0 40 0;
#X connect 42 0 22 1;
#X connect 43 0 23 1;
#X connect 43 1 42 0;
#X connect 43 2 42 1;
