#N canvas 0 23 1440 851 10;
#X obj 260 183 loop~;
#X obj 261 245 *~;
#X obj 111 329 +~;
#X obj 111 359 tabread4~ \$1;
#X obj 227 403 *~;
#X obj 227 439 outlet~;
#X text 126 557 Inlets:;
#X text 130 585 1 (sig): sample offset;
#X text 130 627 2 (sig): speed;
#X text 223 661 set \$1: set sample buffer to read;
#X text 226 687 setwindow \$1: set window buffer;
#X obj 111 257 samphold~;
#X text 135 482 TODO: pan? vary grain speed? prevent run off end of
looped section of buffer;
#X obj 736 163 list prepend set;
#X obj 581 17 loadbang;
#X obj 417 358 cyclone/wave~;
#X obj 604 81 symbol \$2;
#X obj 615 163 list prepend set;
#X obj 473 165 samplerate~;
#X obj 420 139 /~ 1000;
#X obj 420 211 *~ 44100;
#X obj 615 192 list trim;
#X text 127 663 3: messages:;
#X obj 736 192 list trim;
#X obj 205 83 samphold~;
#X obj 143 183 s~ \$0-phase;
#X obj 47 41 inlet~ loop-position;
#X obj 205 17 inlet~ pitch;
#X obj 420 41 inlet~ grainlength-ms;
#X obj 733 93 route setbuf setwindow;
#X obj 581 39 t b b b;
#X obj 733 39 inlet;
#X obj 205 112 expr~ if($v1 > 0 \, $v1 \, 1);
#X obj 224 49 r~ \$0-phase;
#X obj 880 137 sel start;
#X connect 0 0 1 0;
#X connect 0 0 15 0;
#X connect 0 0 11 1;
#X connect 0 0 25 0;
#X connect 0 1 1 1;
#X connect 1 0 2 1;
#X connect 2 0 3 0;
#X connect 3 0 4 0;
#X connect 4 0 5 0;
#X connect 11 0 2 0;
#X connect 13 0 23 0;
#X connect 14 0 30 0;
#X connect 15 0 4 1;
#X connect 16 0 13 0;
#X connect 17 0 21 0;
#X connect 18 0 20 1;
#X connect 19 0 20 0;
#X connect 20 0 0 1;
#X connect 21 0 3 0;
#X connect 23 0 15 0;
#X connect 24 0 32 0;
#X connect 26 0 11 0;
#X connect 27 0 24 0;
#X connect 28 0 19 0;
#X connect 29 0 17 0;
#X connect 29 1 13 0;
#X connect 29 2 34 0;
#X connect 30 0 0 0;
#X connect 30 1 16 0;
#X connect 30 2 18 0;
#X connect 31 0 29 0;
#X connect 32 0 0 0;
#X connect 33 0 24 1;
#X connect 34 0 0 0;
