#N canvas 573 177 751 548 10;
#X obj 285 16 bng 15 250 50 0 empty empty empty 17 7 0 10 -262144 -1
-1;
#X obj 285 36 openpanel;
#X obj 285 132 soundfiler;
#X obj 441 120 array define helpbuf;
#X msg 285 111 read -resize \$1 helpbuf;
#X obj 366 16 loadbang;
#X msg 366 37 symbol ../sound/bell.aiff;
#X obj 45 16 hsl 128 15 0 127 0 0 empty empty empty -2 -8 0 10 -262144
-1 -1 5000 1;
#X obj 42 36 t f b;
#X obj 42 57 expr $f1 / 127 * $f2;
#X obj 93 36 array size helpbuf;
#X obj 42 78 sig~;
#X obj 441 99 cyclone/buffer~ helpwin @samps 500;
#X msg 441 78 fill 1 \, apply hanning;
#X floatatom 102 244 5 0 0 0 - - -, f 5;
#X obj 102 264 expr pow(2 \, $f1 / 12);
#X obj 102 285 sig~;
#X floatatom 185 344 5 0 0 0 - - -, f 5;
#X msg 185 364 minlen \$1;
#X floatatom 256 344 5 0 0 0 - - -, f 5;
#X msg 256 364 maxlen \$1;
#X obj 185 385 list prepend all;
#X obj 185 406 list trim;
#X msg 285 283 50;
#X msg 341 304 100;
#X obj 42 464 *~ 0.01;
#X obj 42 485 dac~;
#X obj 127 464 hsl 128 15 0 127 0 0 empty empty empty -2 -8 0 10 -262144
-1 -1 4200 1;
#X obj 124 484 / 127;
#X obj 42 443 clone -x 16 gloop~ helpbuf helpwin;
#X obj 81 118 noise~;
#X obj 81 139 *~ 0;
#X obj 42 139 +~;
#X floatatom 137 118 5 0 0 0 - - -, f 5;
#X obj 137 138 expr $f1 *44.1;
#X connect 0 0 1 0;
#X connect 1 0 4 0;
#X connect 4 0 2 0;
#X connect 5 0 6 0;
#X connect 5 0 13 0;
#X connect 5 0 23 0;
#X connect 5 0 24 0;
#X connect 6 0 4 0;
#X connect 7 0 8 0;
#X connect 8 0 9 0;
#X connect 8 1 10 0;
#X connect 9 0 11 0;
#X connect 10 0 9 1;
#X connect 11 0 32 0;
#X connect 13 0 12 0;
#X connect 14 0 15 0;
#X connect 15 0 16 0;
#X connect 16 0 29 1;
#X connect 17 0 18 0;
#X connect 18 0 21 0;
#X connect 19 0 20 0;
#X connect 20 0 21 0;
#X connect 21 0 22 0;
#X connect 22 0 29 2;
#X connect 23 0 17 0;
#X connect 24 0 19 0;
#X connect 25 0 26 0;
#X connect 25 0 26 1;
#X connect 27 0 28 0;
#X connect 28 0 25 1;
#X connect 29 0 25 0;
#X connect 30 0 31 0;
#X connect 31 0 32 1;
#X connect 32 0 29 0;
#X connect 33 0 34 0;
#X connect 34 0 31 1;
