#N canvas 411 22 500 494 10;
#X msg 75 171 bang;
#X obj 75 204 t b b b;
#X msg 196 246 0;
#X obj 97 246 samplerate~;
#X obj 98 294 osc~;
#X obj 100 351 +~ 0.5;
#X obj 98 268 / 64;
#X obj 100 328 *~ -0.5;
#X obj 55 46 loadbang;
#X obj 241 408 array define \$1;
#X obj 262 153 float \$2;
#X obj 360 209 symbol \$1;
#X obj 262 189 t f f b;
#X obj 285 275 array size;
#X obj 74 375 tabwrite~ \$1;
#X obj 359 239 t s s;
#X msg 195 338 set \$1;
#X obj 54 81 t b b;
#X connect 0 0 1 0;
#X connect 1 0 14 0;
#X connect 1 1 3 0;
#X connect 1 2 2 0;
#X connect 2 0 4 1;
#X connect 3 0 6 0;
#X connect 4 0 7 0;
#X connect 5 0 14 0;
#X connect 6 0 4 0;
#X connect 7 0 5 0;
#X connect 8 0 17 0;
#X connect 10 0 12 0;
#X connect 11 0 15 0;
#X connect 12 0 6 1;
#X connect 12 1 13 0;
#X connect 12 2 11 0;
#X connect 15 0 16 0;
#X connect 15 1 13 1;
#X connect 16 0 14 0;
#X connect 17 0 0 0;
#X connect 17 1 10 0;
