#N canvas 0 23 450 300 10;
#X obj 129 238 t f f;
#X obj 129 117 f \$1;
#X obj 261 17 inlet interval;
#X obj 129 259 outlet step;
#X obj 240 185 cyclone/pong \$1 \$2 @mode wrap;
#X obj 240 139 + \$3;
#X obj 261 68 route float;
#X obj 261 89 t b f;
#X obj 129 17 inlet;
#X obj 129 68 route bang set;
#X connect 0 0 3 0;
#X connect 0 1 5 0;
#X connect 1 0 0 0;
#X connect 2 0 6 0;
#X connect 4 0 1 1;
#X connect 5 0 4 0;
#X connect 6 0 7 0;
#X connect 7 0 5 0;
#X connect 7 1 5 1;
#X connect 8 0 9 0;
#X connect 9 0 1 0;
#X connect 9 1 1 1;
