#N canvas 0 23 1440 850 10;
#N canvas 0 22 450 278 (subpatch) 0;
#X array \$0-showbuf 1000 float 0;
#X coords 0 1 999 0 240 50 2 0 0;
#X restore 212 116 graph;
#X obj 712 155 t f b;
#X obj 712 177 *;
#X obj 944 152 t f b;
#X obj 944 174 *;
#X obj 214 168 hsl 236 15 0 127 0 0 empty empty start -2 6 0 10 -262144
-1 -1 0 1;
#X obj 28 357 / 127;
#X obj 27 418 s \$0-rel_start;
#X obj 712 70 r \$0-rel_start;
#X obj 149 492 s \$0-rel_length;
#X obj 945 70 r \$0-rel_length;
#X obj 751 246 loop~;
#X obj 944 199 sig~;
#X obj 751 280 *~;
#X text 817 394 actual 'playhead' position (samps);
#X obj 199 16 inlet;
#X obj 72 57 s \$0-bufname;
#X obj 954 336 list prepend setbuf;
#X obj 712 132 f;
#X obj 944 129 f;
#X obj 743 177 array size \$0-intbuf;
#X obj 976 174 array size \$0-intbuf;
#X obj 693 394 cyclone/modulo~;
#X obj 752 332 t b s;
#X obj 752 354 array size \$0-intbuf;
#X obj 27 384 f;
#X obj 712 201 sig~;
#X obj 694 304 +~;
#X obj 841 69 r \$0-bufname;
#X obj 751 308 r \$0-bufname;
#X text 788 280 <- current loop phase in samples;
#X obj 841 92 t b b s s;
#X obj 630 602 sig~;
#X obj 954 564 list prepend all;
#X obj 954 586 list trim;
#X floatatom 701 434 5 0 0 0 - - -, f 5;
#X msg 702 570 minlen \$1;
#X msg 792 570 maxlen \$1;
#X obj 701 528 * 1;
#X obj 791 513 * 1;
#X obj 585 523 t b f f;
#X obj 751 222 sig~;
#N canvas 0 22 450 300 window 0;
#X obj 115 124 loadbang;
#X msg 115 146 fill 1 \, apply hanning;
#X obj 115 168 cyclone/buffer~ \$0-window @samps 100;
#X connect 0 0 1 0;
#X connect 1 0 2 0;
#X restore 1147 89 pd window;
#N canvas 0 22 450 300 internal-buffer 0;
#X obj 21 127 array define \$0-intbuf 4.41e+06;
#X text 17 91 internal buffer \, one day this can be used for live
sampling;
#X restore 1147 114 pd internal-buffer;
#X obj 452 539 noise~;
#X obj 452 561 abs~;
#X obj 452 583 *~ 0;
#X floatatom 514 576 5 0 0 0 - - -, f 5;
#X obj 790 460 expr $f1 + ($f1 * $f2);
#X floatatom 790 419 5 0 0 0 - - -, f 5;
#X obj 790 438 t b f;
#X text 244 16 <- sample array name;
#X obj 693 746 outlet~;
#X obj 324 249 bng 20 250 50 0 empty empty > 10 10 0 12 -262144 -1
-1;
#X obj 585 481 transratio;
#X obj 693 646 clone -x 4 gloop~ \$0-intbuf \$0-window;
#X obj 41 102 r \$0-start_ctrl;
#X obj 39 131 r \$0-end_ctrl;
#X obj 208 588 loadbang;
#X obj 208 638 f \$0;
#X obj 214 211 hsl 128 15 0 127 0 0 empty empty grain_length 4 6 0
10 -262144 -1 -1 4700 1;
#X obj 214 232 hsl 128 15 0 127 0 0 empty empty grain_var 4 7 0 10
-262144 -1 -1 0 1;
#X obj 252 380 s \$0-grain_length;
#X obj 404 378 s \$0-grain_var;
#X obj 550 355 r \$0-grain_length;
#X obj 232 306 / 127;
#X obj 232 328 * 500;
#X obj 229 350 + 50;
#X obj 374 306 / 127;
#X obj 374 328 * 100;
#X obj 839 419 r \$0-grain_var;
#X obj 32 222 r \$0-grain_length_ctrl;
#X obj 519 230 r \$0-grain_var_ctrl;
#X msg 183 677 \; \$1-start_ctrl 0 \; \$1-end_ctrl 127 \; \$1-speed_ctrl
1 \; \$1-transp_ctrl 0 \; \$1-grain_length_ctrl 16 \; \$1-grain_var_ctrl
0 \;;
#X obj 1073 17 inlet;
#N canvas 0 23 1197 189 send-control 0;
#X obj 35 23 inlet;
#X obj 36 63 route grain_length_ctrl grain_var_ctrl start_ctrl end_ctrl
speed_ctrl transp_ctrl, f 150;
#X obj 36 85 s \$0-grain_length_ctrl;
#X obj 208 101 s \$0-grain_var_ctrl;
#X obj 384 101 s \$0-start_ctrl;
#X obj 558 100 s \$0-end_ctrl;
#X obj 701 97 s \$0-speed_ctrl;
#X obj 906 95 s \$0-transp_ctrl;
#X obj 1062 101 sel retrig;
#X obj 1062 123 s \$0-retrig;
#X connect 0 0 1 0;
#X connect 1 0 2 0;
#X connect 1 1 3 0;
#X connect 1 2 4 0;
#X connect 1 3 5 0;
#X connect 1 4 6 0;
#X connect 1 5 7 0;
#X connect 1 6 8 0;
#X connect 8 0 9 0;
#X restore 1073 43 pd send-control;
#X obj 454 47 r \$0-retrig;
#N canvas 0 22 817 570 viz-buffer 0;
#X msg 39 119 1000;
#X obj 39 141 until;
#X obj 39 163 f 0;
#X obj 39 247 *;
#X obj 39 322 tabwrite \$0-showbuf;
#X obj 138 182 + 1;
#X msg 85 142 0;
#X obj 39 185 t f b f f;
#X obj 39 211 / 1000;
#X obj 39 295 abs;
#X obj 199 267 list trim;
#X obj 93 211 array size \$0-intbuf;
#X obj 39 269 tabread4 \$0-intbuf;
#X obj 39 32 r \$0-bufname;
#X obj 39 92 t b b s s;
#X obj 199 245 list prepend set;
#X text 159 40 comment;
#X connect 0 0 1 0;
#X connect 1 0 2 0;
#X connect 2 0 7 0;
#X connect 3 0 12 0;
#X connect 5 0 2 1;
#X connect 6 0 2 1;
#X connect 7 0 8 0;
#X connect 7 1 11 0;
#X connect 7 2 4 1;
#X connect 7 3 5 0;
#X connect 8 0 3 0;
#X connect 9 0 4 0;
#X connect 10 0 12 0;
#X connect 11 0 3 1;
#X connect 12 0 9 0;
#X connect 13 0 14 0;
#X connect 14 0 0 0;
#X connect 14 1 6 0;
#X connect 14 2 11 1;
#X connect 14 3 15 0;
#X connect 15 0 10 0;
#X restore 1135 247 pd viz-buffer;
#X obj 211 187 hradio 15 1 0 16 empty empty length 7 7 0 10 -262144
-1 -1 5;
#X obj 574 34 loadbang;
#X msg 574 106 15;
#X obj 149 466 expr ($f1 + 1) / 16;
#X obj 39 164 expr $f1 / 127 * 15;
#N canvas 590 163 577 396 speed 0;
#X floatatom 107 112 5 0 0 2 speed - -, f 5;
#X floatatom 107 143 5 0 0 2 transp - -, f 5;
#X obj 293 110 f;
#X obj 338 110 f;
#X obj 142 112 bng 15 250 50 0 empty empty empty 17 7 0 10 -262144
-1 -1;
#X obj 293 131 / 2;
#X obj 160 112 bng 15 250 50 0 empty empty empty 17 7 0 10 -262144
-1 -1;
#X obj 338 131 * 2;
#X obj 37 36 r \$0-speed_ctrl;
#X obj 3 127 r \$0-transp_ctrl;
#X obj 183 214 f;
#X obj 228 214 f;
#X obj 142 143 bng 15 250 50 0 empty empty empty 17 7 0 10 -262144
-1 -1;
#X obj 160 143 bng 15 250 50 0 empty empty empty 17 7 0 10 -262144
-1 -1;
#X obj 88 301 outlet;
#X obj 145 300 outlet;
#X obj 144 33 r \$0-speed_half;
#X obj 255 30 r \$0-speed_double;
#X obj 267 160 r \$0-oct_down;
#X obj 183 235 - 12;
#X obj 228 235 + 12;
#X obj 266 191 r \$0-oct_up;
#X connect 0 0 2 1;
#X connect 0 0 3 1;
#X connect 0 0 14 0;
#X connect 1 0 10 1;
#X connect 1 0 11 1;
#X connect 1 0 15 0;
#X connect 2 0 5 0;
#X connect 3 0 7 0;
#X connect 4 0 2 0;
#X connect 5 0 0 0;
#X connect 6 0 3 0;
#X connect 7 0 0 0;
#X connect 8 0 0 0;
#X connect 9 0 1 0;
#X connect 10 0 19 0;
#X connect 11 0 20 0;
#X connect 12 0 10 0;
#X connect 13 0 11 0;
#X connect 16 0 4 0;
#X connect 17 0 6 0;
#X connect 18 0 12 0;
#X connect 19 0 1 0;
#X connect 20 0 1 0;
#X connect 21 0 13 0;
#X coords 0 -1 1 1 85 60 2 100 100;
#X restore 357 209 pd speed;
#X msg 235 614 `;
#X connect 1 0 2 0;
#X connect 1 1 20 0;
#X connect 2 0 26 0;
#X connect 3 0 4 0;
#X connect 3 1 21 0;
#X connect 4 0 12 0;
#X connect 5 0 6 0;
#X connect 6 0 25 0;
#X connect 8 0 18 0;
#X connect 10 0 19 0;
#X connect 11 0 13 0;
#X connect 11 1 13 1;
#X connect 12 0 11 1;
#X connect 13 0 27 0;
#X connect 15 0 16 0;
#X connect 17 0 33 0;
#X connect 18 0 1 0;
#X connect 19 0 3 0;
#X connect 20 0 2 1;
#X connect 21 0 4 1;
#X connect 22 0 55 0;
#X connect 23 0 24 0;
#X connect 23 1 24 1;
#X connect 24 0 22 1;
#X connect 25 0 7 0;
#X connect 26 0 27 1;
#X connect 27 0 22 0;
#X connect 28 0 31 0;
#X connect 29 0 23 0;
#X connect 29 0 17 0;
#X connect 31 0 18 0;
#X connect 31 1 19 0;
#X connect 31 2 20 1;
#X connect 31 3 21 1;
#X connect 32 0 55 1;
#X connect 33 0 34 0;
#X connect 34 0 55 2;
#X connect 35 0 38 0;
#X connect 35 0 48 0;
#X connect 36 0 33 0;
#X connect 37 0 33 0;
#X connect 38 0 36 0;
#X connect 39 0 37 0;
#X connect 40 0 35 0;
#X connect 40 0 49 0;
#X connect 40 1 38 1;
#X connect 40 1 39 1;
#X connect 40 2 32 0;
#X connect 41 0 11 0;
#X connect 44 0 45 0;
#X connect 45 0 46 0;
#X connect 46 0 55 1;
#X connect 47 0 46 1;
#X connect 48 0 39 0;
#X connect 49 0 50 0;
#X connect 50 0 48 0;
#X connect 50 1 48 1;
#X connect 53 0 11 0;
#X connect 54 0 40 0;
#X connect 55 0 52 0;
#X connect 56 0 5 0;
#X connect 57 0 82 0;
#X connect 58 0 59 0;
#X connect 59 0 73 0;
#X connect 60 0 65 0;
#X connect 61 0 68 0;
#X connect 64 0 35 0;
#X connect 65 0 66 0;
#X connect 66 0 67 0;
#X connect 67 0 62 0;
#X connect 68 0 69 0;
#X connect 69 0 63 0;
#X connect 70 0 49 0;
#X connect 71 0 60 0;
#X connect 72 0 61 0;
#X connect 74 0 75 0;
#X connect 76 0 53 0;
#X connect 78 0 81 0;
#X connect 79 0 80 0;
#X connect 79 0 11 0;
#X connect 80 0 78 0;
#X connect 81 0 9 0;
#X connect 82 0 78 0;
#X connect 83 0 41 0;
#X connect 83 1 54 0;
#X connect 84 0 59 0;
#X coords 0 -1 1 1 260 180 2 202 100;
