#N canvas 0 23 1440 850 10;
#N canvas 0 22 450 278 (subpatch) 0;
#X array \$0-showbuf 1000 float 0;
#X coords 0 1 999 0 240 50 2 0 0;
#X restore 209 146 graph;
#X msg 530 82 1000;
#X obj 530 104 until;
#X obj 530 126 f 0;
#X obj 530 210 *;
#X obj 530 285 tabwrite \$0-showbuf;
#X obj 629 145 + 1;
#X msg 598 81 0;
#X obj 530 55 t b b;
#X obj 530 148 t f b f f;
#X obj 530 174 / 1000;
#X text 786 25 display contents of arbitrarily sized 'testbuf' in size
= 1000 '\$0-showbuf';
#X obj 815 168 t f b;
#X obj 815 190 *;
#X obj 1047 165 t f b;
#X obj 1047 187 *;
#X obj 211 198 hsl 236 15 0 127 0 0 empty empty start -2 6 0 10 -262144
-1 -1 0 1;
#X obj 75 323 / 127;
#X obj 211 215 hsl 236 15 0 127 0 0 empty empty end -2 6 0 10 -262144
-1 -1 19000 1;
#X obj 184 323 / 127;
#X obj 55 442 s \$0-rel_start;
#X obj 815 73 r \$0-rel_start;
#X obj 292 530 s \$0-rel_length;
#X obj 1048 73 r \$0-rel_length;
#X obj 530 258 abs;
#X obj 854 259 loop~;
#X obj 1047 212 sig~;
#X obj 854 293 *~;
#X text 543 410 actual 'playhead' position (samps);
#X obj 199 16 inlet;
#X obj 199 44 t b s;
#X obj 370 70 s \$0-bufname;
#X obj 1057 349 list prepend setbuf;
#X obj 690 208 list prepend set;
#X obj 690 230 list trim;
#X obj 815 145 f;
#X obj 1047 142 f;
#X symbolatom 209 112 32 0 0 0 - - -, f 32;
#X obj 584 174 array size \$0-intbuf;
#X obj 846 190 array size \$0-intbuf;
#X obj 1079 187 array size \$0-intbuf;
#X obj 530 232 tabread4 \$0-intbuf;
#X obj 796 407 cyclone/modulo~;
#X obj 855 345 t b s;
#X obj 855 367 array size \$0-intbuf;
#X obj 292 449 - 0;
#X obj 292 406 t b f;
#X obj 292 471 moses 0;
#X obj 67 369 f;
#X obj 194 371 f;
#X obj 292 493 + 1;
#X obj 815 214 sig~;
#X obj 797 317 +~;
#X obj 690 127 r \$0-bufname;
#X obj 944 72 r \$0-bufname;
#X obj 854 321 r \$0-bufname;
#X text 891 293 <- current loop phase in samples;
#X obj 944 95 t b b s s;
#X floatatom 688 517 5 0 0 1 speed - -, f 5;
#X obj 733 615 sig~;
#X obj 1057 577 list prepend all;
#X obj 1057 599 list trim;
#X floatatom 804 447 5 0 0 0 - - -, f 5;
#X msg 805 583 minlen \$1;
#X floatatom 894 507 5 0 0 0 - - -, f 5;
#X msg 895 583 maxlen \$1;
#X obj 804 541 * 1;
#X obj 894 526 * 1;
#X obj 688 536 t b f f;
#X floatatom 454 171 5 0 0 2 speed - -, f 5;
#X obj 854 235 sig~;
#N canvas 0 22 450 300 window 0;
#X obj 115 124 loadbang;
#X msg 115 146 fill 1 \, apply hanning;
#X obj 115 168 cyclone/buffer~ \$0-window @samps 100;
#X connect 0 0 1 0;
#X connect 1 0 2 0;
#X restore 54 510 pd window;
#N canvas 0 22 450 300 internal-buffer 0;
#X obj 21 127 array define \$0-intbuf 4.41e+06;
#X text 17 91 internal buffer \, one day this can be used for live
sampling;
#X restore 53 561 pd internal-buffer;
#X obj 555 552 noise~;
#X obj 555 574 abs~;
#X obj 555 596 *~ 0;
#X floatatom 617 589 5 0 0 0 - - -, f 5;
#X obj 893 473 expr $f1 + ($f1 * $f2);
#X floatatom 893 432 5 0 0 0 - - -, f 5;
#X obj 893 451 t b f;
#X text 244 16 <- sample array name;
#X obj 796 743 outlet~;
#X obj 454 110 bng 30 250 50 0 empty empty > 10 15 0 20 -262144 -1
-1;
#X floatatom 454 202 5 0 0 2 transp - -, f 5;
#X obj 688 494 transratio;
#X obj 796 659 clone -x 4 gloop~ \$0-intbuf \$0-window;
#X obj 357 320 r \$0-speed;
#X obj 358 339 r \$0-transp;
#X obj 41 182 r \$0-start_ctrl;
#X obj 39 211 r \$0-end_ctrl;
#X msg 183 677 \; \$1-start_ctrl 0 \; \$1-end_ctrl 127 \; \$1-speed
1 \; \$1-transp 0 \;;
#X obj 208 588 loadbang;
#X obj 208 610 f \$0;
#X connect 1 0 2 0;
#X connect 2 0 3 0;
#X connect 3 0 9 0;
#X connect 4 0 41 0;
#X connect 6 0 3 1;
#X connect 7 0 3 1;
#X connect 8 0 1 0;
#X connect 8 1 7 0;
#X connect 9 0 10 0;
#X connect 9 1 38 0;
#X connect 9 2 5 1;
#X connect 9 3 6 0;
#X connect 10 0 4 0;
#X connect 12 0 13 0;
#X connect 12 1 39 0;
#X connect 13 0 51 0;
#X connect 14 0 15 0;
#X connect 14 1 40 0;
#X connect 15 0 26 0;
#X connect 16 0 17 0;
#X connect 17 0 48 0;
#X connect 18 0 19 0;
#X connect 19 0 49 0;
#X connect 21 0 35 0;
#X connect 23 0 36 0;
#X connect 24 0 5 0;
#X connect 25 0 27 0;
#X connect 25 1 27 1;
#X connect 26 0 25 1;
#X connect 27 0 52 0;
#X connect 29 0 30 0;
#X connect 30 0 8 0;
#X connect 30 1 31 0;
#X connect 30 1 37 0;
#X connect 32 0 60 0;
#X connect 33 0 34 0;
#X connect 34 0 41 0;
#X connect 35 0 12 0;
#X connect 36 0 14 0;
#X connect 38 0 4 1;
#X connect 39 0 13 1;
#X connect 40 0 15 1;
#X connect 41 0 24 0;
#X connect 42 0 85 0;
#X connect 43 0 44 0;
#X connect 43 1 44 1;
#X connect 44 0 42 1;
#X connect 45 0 47 0;
#X connect 46 0 45 0;
#X connect 46 1 45 1;
#X connect 47 0 50 0;
#X connect 47 1 22 0;
#X connect 48 0 20 0;
#X connect 48 0 46 0;
#X connect 49 0 45 0;
#X connect 50 0 22 0;
#X connect 51 0 52 1;
#X connect 52 0 42 0;
#X connect 53 0 38 1;
#X connect 53 0 33 0;
#X connect 54 0 57 0;
#X connect 55 0 43 0;
#X connect 55 0 32 0;
#X connect 57 0 35 0;
#X connect 57 1 36 0;
#X connect 57 2 39 1;
#X connect 57 3 40 1;
#X connect 58 0 68 0;
#X connect 59 0 85 1;
#X connect 60 0 61 0;
#X connect 61 0 85 2;
#X connect 62 0 66 0;
#X connect 62 0 77 0;
#X connect 63 0 60 0;
#X connect 64 0 67 0;
#X connect 65 0 60 0;
#X connect 66 0 63 0;
#X connect 67 0 65 0;
#X connect 68 0 62 0;
#X connect 68 0 78 0;
#X connect 68 1 66 1;
#X connect 68 1 67 1;
#X connect 68 2 59 0;
#X connect 69 0 70 0;
#X connect 70 0 25 0;
#X connect 73 0 74 0;
#X connect 74 0 75 0;
#X connect 75 0 85 1;
#X connect 76 0 75 1;
#X connect 77 0 64 0;
#X connect 78 0 79 0;
#X connect 79 0 77 0;
#X connect 79 1 77 1;
#X connect 82 0 25 0;
#X connect 83 0 84 0;
#X connect 84 0 58 0;
#X connect 85 0 81 0;
#X connect 86 0 69 0;
#X connect 87 0 83 0;
#X connect 88 0 16 0;
#X connect 89 0 18 0;
#X connect 91 0 92 0;
#X connect 92 0 90 0;
#X coords 0 -1 1 1 300 194 2 202 100;
