#N canvas 0 23 1440 851 10;
#X obj 74 710 array define testbuf;
#X obj 72 669 soundfiler;
#X msg 72 624 read -resize ~/Documents/sounds/infra_excerpt.wav testbuf
;
#N canvas 0 22 450 278 (subpatch) 0;
#X array \$0-showbuf 1000 float 0;
#X coords 0 1 1000 0 240 100 2 0 0;
#X restore 208 152 graph;
#X msg 520 82 1000;
#X obj 520 104 until;
#X obj 520 126 f 0;
#X obj 520 210 *;
#X obj 520 285 tabwrite \$0-showbuf;
#X obj 619 145 + 1;
#X msg 588 81 0;
#X msg 520 33 bang;
#X obj 520 55 t b b;
#X obj 520 148 t f b f f;
#X obj 520 232 tabread4 testbuf;
#X obj 574 174 array size testbuf;
#X obj 520 174 / 1000;
#X text 657 35 display contents of arbitrarily sized 'testbuf' in size
= 1000 '\$0-showbuf';
#X obj 208 256 hradio 15 1 0 16 empty empty empty 0 -8 0 10 -262144
-1 -1 0;
#X obj 208 273 hradio 15 1 0 16 empty empty empty 0 -8 0 10 -262144
-1 -1 15;
#X obj 53 290 / 16;
#X obj 815 142 t f b;
#X obj 815 164 *;
#X obj 846 164 array size testbuf;
#X floatatom 723 190 10 0 0 0 - - -, f 10;
#X obj 215 381 + 1;
#X obj 215 403 / 16;
#X obj 1007 144 t f b;
#X obj 1007 174 *;
#X floatatom 1096 214 10 0 0 0 - - -, f 10;
#X obj 1042 174 array size testbuf;
#X floatatom 1056 144 5 0 0 0 - - -, f 5;
#X text 1099 142 <- fraction of loop to play;
#X text 71 593 TESTING PURPOSES;
#X obj 211 303 hsl 236 15 0 127 0 0 empty empty empty -2 -8 0 10 -262144
-1 -1 0 1;
#X obj 75 323 / 127;
#X obj 211 320 hsl 236 15 0 127 0 0 empty empty empty -2 -8 0 10 -262144
-1 -1 0 1;
#X obj 164 385 / 127;
#X text 323 287 |;
#X obj 54 356 s \$0-rel_start;
#X obj 815 109 r \$0-rel_start;
#X obj 54 423 s \$0-rel_length;
#X obj 1007 113 r \$0-rel_length;
#X obj 520 258 abs;
#X obj 815 186 t f f;
#X text 723 211 ^- start;
#X obj 847 251 + 1000;
#X obj 209 110 tof/menubutton 200 22 empty empty 0 grey90 black grey95
black -1;
#X obj 1007 211 t b f f;
#X obj 1021 283 loop~;
#X obj 1053 250 sig~;
#X obj 1142 277 loop~;
#X obj 1021 399 samphold~;
#X obj 1021 305 *~;
#X text 587 345 actual 'playhead' position (samps);
#X obj 1100 398 *~;
#X text 1133 400 grain phase (samps);
#X obj 1021 421 +~;
#X obj 846 540 tabread4~ testbuf;
#X text 1060 421 grain 'playhead' (samps);
#X obj 1021 443 /~;
#X obj 1021 465 wrap~;
#X obj 1021 487 *~;
#X text 684 436 if near end of looped region might run over wrap around
to beginning of loop;
#X obj 1346 363 wrap~;
#X obj 1346 405 *~;
#X obj 1346 341 +~ 0.5;
#X obj 1307 436 samphold~;
#X obj 1307 458 +~;
#X obj 1307 480 /~;
#X obj 1307 502 wrap~;
#X obj 1307 524 *~;
#X text 1357 313 2nd out of phase grain;
#X obj 1122 540 tabread4~ testbuf;
#X text 1191 277 grain phase generator;
#X obj 845 491 +~ 0;
#X obj 1121 491 +~ 0;
#X floatatom 1204 225 5 0 0 0 - - -, f 5;
#X obj 379 652 loadbang;
#X msg 379 674 fill 1 \, apply hanning;
#X obj 846 602 *~;
#X text 786 308 current loop phase in samples->;
#X obj 1122 623 *~;
#X obj 845 650 +~;
#X obj 996 539 loadbang;
#X msg 996 561 interp 7;
#X obj 379 696 cyclone/buffer~ \$0-window @samps 100;
#X obj 913 609 cyclone/wave~ \$0-window;
#X obj 1189 607 cyclone/wave~ \$0-window;
#X obj 1203 247 sig~;
#X connect 2 0 1 0;
#X connect 4 0 5 0;
#X connect 5 0 6 0;
#X connect 6 0 13 0;
#X connect 7 0 14 0;
#X connect 9 0 6 1;
#X connect 10 0 6 1;
#X connect 11 0 12 0;
#X connect 12 0 4 0;
#X connect 12 1 10 0;
#X connect 13 0 16 0;
#X connect 13 1 15 0;
#X connect 13 2 8 1;
#X connect 13 3 9 0;
#X connect 14 0 43 0;
#X connect 15 0 7 1;
#X connect 16 0 7 0;
#X connect 18 0 20 0;
#X connect 19 0 25 0;
#X connect 20 0 39 0;
#X connect 21 0 22 0;
#X connect 21 1 23 0;
#X connect 22 0 24 0;
#X connect 22 0 44 0;
#X connect 23 0 22 1;
#X connect 25 0 26 0;
#X connect 26 0 41 0;
#X connect 27 0 28 0;
#X connect 27 0 31 0;
#X connect 27 1 30 0;
#X connect 28 0 29 0;
#X connect 28 0 48 0;
#X connect 30 0 28 1;
#X connect 34 0 35 0;
#X connect 35 0 39 0;
#X connect 36 0 37 0;
#X connect 37 0 41 0;
#X connect 40 0 21 0;
#X connect 42 0 27 0;
#X connect 43 0 8 0;
#X connect 44 1 46 0;
#X connect 46 0 75 1;
#X connect 46 0 76 1;
#X connect 48 0 46 0;
#X connect 48 1 46 1;
#X connect 48 2 50 0;
#X connect 49 0 53 0;
#X connect 49 1 53 1;
#X connect 49 1 60 1;
#X connect 49 1 62 1;
#X connect 49 1 69 1;
#X connect 49 1 71 1;
#X connect 50 0 49 1;
#X connect 51 0 52 1;
#X connect 51 0 55 0;
#X connect 51 0 66 0;
#X connect 51 0 87 0;
#X connect 51 1 55 1;
#X connect 51 1 65 1;
#X connect 52 0 57 0;
#X connect 53 0 52 0;
#X connect 53 0 67 0;
#X connect 55 0 57 1;
#X connect 57 0 60 0;
#X connect 58 0 80 0;
#X connect 60 0 61 0;
#X connect 61 0 62 0;
#X connect 62 0 75 0;
#X connect 64 0 65 0;
#X connect 64 0 67 1;
#X connect 64 0 88 0;
#X connect 65 0 68 1;
#X connect 66 0 64 0;
#X connect 67 0 68 0;
#X connect 68 0 69 0;
#X connect 69 0 70 0;
#X connect 70 0 71 0;
#X connect 71 0 76 0;
#X connect 73 0 82 0;
#X connect 75 0 58 0;
#X connect 76 0 73 0;
#X connect 77 0 89 0;
#X connect 78 0 79 0;
#X connect 79 0 86 0;
#X connect 80 0 83 0;
#X connect 82 0 83 1;
#X connect 84 0 85 0;
#X connect 85 0 87 0;
#X connect 85 0 88 0;
#X connect 87 0 80 1;
#X connect 88 0 82 1;
#X connect 89 0 51 1;
#X coords 0 -1 1 1 260 260 1 200 100;
