#N canvas 0 23 1440 851 10;
#X obj 807 221 array define testbuf;
#X obj 805 180 soundfiler;
#X msg 805 135 read -resize ~/Documents/sounds/infra_excerpt.wav testbuf
;
#N canvas 0 22 450 278 (subpatch) 0;
#X array \$0-showbuf 1000 float 0;
#X coords 0 1 1000 0 240 100 2 0 0;
#X restore 208 152 graph;
#X msg 520 82 1000;
#X obj 520 104 until;
#X obj 520 126 f 0;
#X obj 520 210 *;
#X obj 520 284 tabwrite \$0-showbuf;
#X obj 619 145 + 1;
#X msg 588 81 0;
#X msg 520 33 bang;
#X obj 520 55 t b b;
#X obj 520 148 t f b f f;
#X obj 520 232 tabread4 testbuf;
#X obj 574 174 array size testbuf;
#X obj 520 174 / 1000;
#X text 657 35 display contents of arbitrarily sized 'testbuf' in size
= 1000 '\$0-showbuf';
#X obj 208 256 hradio 15 1 0 16 empty empty empty 0 -8 0 10 -262144
-1 -1 7;
#X obj 208 273 hradio 15 1 0 16 empty empty empty 0 -8 0 10 -262144
-1 -1 10;
#X obj 53 290 / 16;
#X obj 617 361 t f b;
#X obj 617 383 *;
#X obj 648 383 array size testbuf;
#X floatatom 525 409 10 0 0 0 - - -, f 10;
#X obj 215 381 + 1;
#X obj 215 403 / 16;
#X obj 809 363 t f b;
#X obj 809 393 *;
#X floatatom 859 431 10 0 0 0 - - -, f 10;
#X obj 844 393 array size testbuf;
#X floatatom 858 363 5 0 0 0 - - -, f 5;
#X text 901 361 <- fraction of loop to play;
#X text 804 104 TESTING PURPOSES;
#X obj 211 303 hsl 236 15 0 127 0 0 empty empty empty -2 -8 0 10 -262144
-1 -1 0 1;
#X obj 75 323 / 127;
#X obj 211 320 hsl 236 15 0 127 0 0 empty empty empty -2 -8 0 10 -262144
-1 -1 0 1;
#X obj 164 385 / 127;
#X text 323 287 |;
#X obj 54 356 s \$0-rel_start;
#X obj 617 328 r \$0-rel_start;
#X obj 54 423 s \$0-rel_length;
#X obj 809 332 r \$0-rel_length;
#X obj 520 258 abs;
#X obj 809 430 t b f;
#X obj 617 405 t f f;
#X text 525 430 ^- start;
#X obj 649 470 + 1000;
#X connect 2 0 1 0;
#X connect 4 0 5 0;
#X connect 5 0 6 0;
#X connect 6 0 13 0;
#X connect 7 0 14 0;
#X connect 9 0 6 1;
#X connect 10 0 6 1;
#X connect 11 0 12 0;
#X connect 12 0 4 0;
#X connect 12 1 10 0;
#X connect 13 0 16 0;
#X connect 13 1 15 0;
#X connect 13 2 8 1;
#X connect 13 3 9 0;
#X connect 14 0 43 0;
#X connect 15 0 7 1;
#X connect 16 0 7 0;
#X connect 18 0 20 0;
#X connect 19 0 25 0;
#X connect 20 0 39 0;
#X connect 21 0 22 0;
#X connect 21 1 23 0;
#X connect 22 0 24 0;
#X connect 22 0 45 0;
#X connect 23 0 22 1;
#X connect 25 0 26 0;
#X connect 26 0 41 0;
#X connect 27 0 28 0;
#X connect 27 0 31 0;
#X connect 27 1 30 0;
#X connect 28 0 29 0;
#X connect 28 0 44 0;
#X connect 30 0 28 1;
#X connect 34 0 35 0;
#X connect 35 0 39 0;
#X connect 36 0 37 0;
#X connect 37 0 41 0;
#X connect 40 0 21 0;
#X connect 42 0 27 0;
#X connect 43 0 8 0;
#X connect 44 0 47 0;
#X connect 44 1 47 1;
#X connect 45 1 47 0;
#X coords 0 -1 1 1 260 260 1 200 100;
