#N canvas 0 23 1440 850 10;
#N canvas 0 22 450 278 (subpatch) 0;
#X array \$0-showbuf 1000 float 0;
#X coords 0 1 999 0 240 50 2 0 0;
#X restore 208 152 graph;
#X msg 520 82 1000;
#X obj 520 104 until;
#X obj 520 126 f 0;
#X obj 520 210 *;
#X obj 520 285 tabwrite \$0-showbuf;
#X obj 619 145 + 1;
#X msg 588 81 0;
#X obj 520 55 t b b;
#X obj 520 148 t f b f f;
#X obj 520 174 / 1000;
#X text 786 25 display contents of arbitrarily sized 'testbuf' in size
= 1000 '\$0-showbuf';
#X obj 208 206 hradio 15 1 0 16 empty empty empty 0 -8 0 10 -262144
-1 -1 6;
#X obj 208 223 hradio 15 1 0 16 empty empty empty 0 -8 0 10 -262144
-1 -1 1;
#X obj 53 290 / 16;
#X obj 815 168 t f b;
#X obj 815 190 *;
#X obj 235 319 + 1;
#X obj 235 341 / 16;
#X obj 1047 165 t f b;
#X obj 1047 187 *;
#X obj 210 253 hsl 236 15 0 127 0 0 empty empty start -2 6 0 10 -262144
-1 -1 0 1;
#X obj 75 323 / 127;
#X obj 210 270 hsl 236 15 0 127 0 0 empty empty end -2 6 0 10 -262144
-1 -1 2400 1;
#X obj 184 323 / 127;
#X text 323 237 |;
#X obj 55 442 s \$0-rel_start;
#X obj 815 73 r \$0-rel_start;
#X obj 292 530 s \$0-rel_length;
#X obj 1048 73 r \$0-rel_length;
#X obj 520 258 abs;
#X obj 1015 259 loop~;
#X obj 1047 212 sig~;
#X obj 1015 293 *~;
#X text 704 410 actual 'playhead' position (samps);
#X obj 138 33 inlet;
#X obj 342 18 t b s;
#X obj 370 70 s \$0-bufname;
#X obj 1178 349 list prepend setbuf;
#X obj 680 208 list prepend set;
#X obj 680 230 list trim;
#X obj 815 145 f;
#X obj 1047 142 f;
#X symbolatom 273 112 25 0 0 0 - - -, f 25;
#X obj 233 117 bng 15 250 50 0 empty empty empty 17 7 0 10 -262144
-1 -1;
#X obj 50 76 filelist-msgs;
#X obj 574 174 array size \$0-intbuf;
#X obj 846 190 array size \$0-intbuf;
#X obj 1079 187 array size \$0-intbuf;
#X obj 520 232 tabread4 \$0-intbuf;
#X obj 957 407 cyclone/modulo~;
#X obj 1016 345 t b s;
#X obj 1016 367 array size \$0-intbuf;
#X obj 292 449 - 0;
#X obj 292 406 t b f;
#X obj 292 471 moses 0;
#X obj 67 369 f;
#X obj 194 371 f;
#X obj 292 493 + 1;
#X obj 53 134 loadbang;
#X msg 102 167 0;
#X msg 53 185 127;
#X obj 815 214 sig~;
#X obj 958 317 +~;
#X obj 680 127 r \$0-bufname;
#X obj 944 72 r \$0-bufname;
#X obj 1015 321 r \$0-bufname;
#X text 1052 293 <- current loop phase in samples;
#X obj 944 95 t b b s s;
#X floatatom 849 517 5 0 0 0 - - -, f 5;
#X obj 894 615 sig~;
#X obj 1178 577 list prepend all;
#X obj 1178 599 list trim;
#X floatatom 965 507 5 0 0 0 - - -, f 5;
#X msg 966 583 minlen \$1;
#X floatatom 1055 507 5 0 0 0 - - -, f 5;
#X msg 1056 583 maxlen \$1;
#X obj 965 541 * 1;
#X obj 1055 526 * 1;
#X obj 849 536 t b f f;
#X floatatom 1122 223 5 0 0 0 - - -, f 5;
#X obj 1122 242 sig~;
#X text 1173 235 loop speed;
#N canvas 0 22 450 300 window 0;
#X obj 115 124 loadbang;
#X msg 115 146 fill 1 \, apply hanning;
#X obj 115 168 cyclone/buffer~ \$0-window @samps 100;
#X connect 0 0 1 0;
#X connect 1 0 2 0;
#X restore 54 510 pd window;
#N canvas 0 22 450 300 internal-buffer 0;
#X obj 21 127 array define \$0-intbuf 4.41e+06;
#X text 17 91 internal buffer \, one day this can be used for live
sampling;
#X restore 53 561 pd internal-buffer;
#X text 420 349 TESTING;
#X obj 452 484 soundfiler;
#X obj 431 379 bng 15 250 50 0 empty empty empty 17 7 0 10 -262144
-1 -1;
#X obj 431 399 symbol \$0-intbuf;
#X msg 452 462 read -resize ../doc/sound/bell.aiff \$1;
#X obj 431 421 t s s;
#X obj 720 775 *~ 0.01;
#X obj 720 797 dac~;
#X floatatom 759 700 5 0 0 0 - - -, f 5;
#X obj 957 659 clone -x 4 gloop~ \$0-intbuf \$0-window;
#X obj 716 552 noise~;
#X obj 716 574 abs~;
#X obj 716 596 *~ 0;
#X floatatom 778 589 5 0 0 0 - - -, f 5;
#X connect 1 0 2 0;
#X connect 2 0 3 0;
#X connect 3 0 9 0;
#X connect 4 0 49 0;
#X connect 6 0 3 1;
#X connect 7 0 3 1;
#X connect 8 0 1 0;
#X connect 8 1 7 0;
#X connect 9 0 10 0;
#X connect 9 1 46 0;
#X connect 9 2 5 1;
#X connect 9 3 6 0;
#X connect 10 0 4 0;
#X connect 12 0 14 0;
#X connect 13 0 17 0;
#X connect 14 0 56 0;
#X connect 15 0 16 0;
#X connect 15 1 47 0;
#X connect 16 0 62 0;
#X connect 17 0 18 0;
#X connect 18 0 57 0;
#X connect 19 0 20 0;
#X connect 19 1 48 0;
#X connect 20 0 32 0;
#X connect 21 0 22 0;
#X connect 22 0 56 0;
#X connect 23 0 24 0;
#X connect 24 0 57 0;
#X connect 27 0 41 0;
#X connect 29 0 42 0;
#X connect 30 0 5 0;
#X connect 31 0 33 0;
#X connect 31 1 33 1;
#X connect 32 0 31 1;
#X connect 33 0 63 0;
#X connect 35 0 45 1;
#X connect 36 0 8 0;
#X connect 36 1 37 0;
#X connect 36 1 43 0;
#X connect 38 0 71 0;
#X connect 39 0 40 0;
#X connect 40 0 49 0;
#X connect 41 0 15 0;
#X connect 42 0 19 0;
#X connect 44 0 45 0;
#X connect 45 0 36 0;
#X connect 46 0 4 1;
#X connect 47 0 16 1;
#X connect 48 0 20 1;
#X connect 49 0 30 0;
#X connect 50 0 94 0;
#X connect 51 0 52 0;
#X connect 51 1 52 1;
#X connect 52 0 50 1;
#X connect 53 0 55 0;
#X connect 54 0 53 0;
#X connect 54 1 53 1;
#X connect 55 0 58 0;
#X connect 55 1 28 0;
#X connect 56 0 26 0;
#X connect 56 0 54 0;
#X connect 57 0 53 0;
#X connect 58 0 28 0;
#X connect 59 0 60 0;
#X connect 59 0 61 0;
#X connect 60 0 21 0;
#X connect 61 0 23 0;
#X connect 62 0 63 1;
#X connect 63 0 50 0;
#X connect 64 0 46 1;
#X connect 64 0 39 0;
#X connect 65 0 68 0;
#X connect 66 0 51 0;
#X connect 66 0 38 0;
#X connect 68 0 41 0;
#X connect 68 1 42 0;
#X connect 68 2 47 1;
#X connect 68 3 48 1;
#X connect 69 0 79 0;
#X connect 70 0 94 1;
#X connect 71 0 72 0;
#X connect 72 0 94 2;
#X connect 73 0 77 0;
#X connect 74 0 71 0;
#X connect 75 0 78 0;
#X connect 76 0 71 0;
#X connect 77 0 74 0;
#X connect 78 0 76 0;
#X connect 79 0 73 0;
#X connect 79 0 75 0;
#X connect 79 1 77 1;
#X connect 79 1 78 1;
#X connect 79 2 70 0;
#X connect 80 0 81 0;
#X connect 81 0 31 0;
#X connect 87 0 88 0;
#X connect 88 0 90 0;
#X connect 89 0 86 0;
#X connect 90 0 36 0;
#X connect 90 1 89 0;
#X connect 91 0 92 0;
#X connect 91 0 92 1;
#X connect 93 0 91 1;
#X connect 94 0 91 0;
#X connect 95 0 96 0;
#X connect 96 0 97 0;
#X connect 97 0 94 1;
#X connect 98 0 97 1;
#X coords 0 -1 1 1 255 194 1 202 100;
