#N canvas 0 23 1440 850 10;
#N canvas 0 22 450 278 (subpatch) 0;
#X array \$0-showbuf 1000 float 0;
#X coords 0 1 999 0 240 50 2 0 0;
#X restore 212 116 graph;
#X obj 709 155 t f b;
#X obj 709 177 *;
#X obj 944 152 t f b;
#X obj 944 174 *;
#X obj 214 168 hsl 236 15 0 127 0 0 empty empty start -2 6 0 10 -262144
-1 -1 0 1;
#X obj 709 70 r \$0-rel_start;
#X obj 945 70 r \$0-rel_length;
#X obj 751 256 loop~;
#X obj 944 199 sig~;
#X obj 751 340 *~;
#X text 817 394 actual 'playhead' position (samps);
#X obj 199 16 inlet;
#X obj 72 57 s \$0-bufname;
#X obj 954 626 list prepend setbuf;
#X obj 709 132 f;
#X obj 944 129 f;
#X obj 740 177 array size \$0-intbuf;
#X obj 976 174 array size \$0-intbuf;
#X obj 693 394 cyclone/modulo~;
#X obj 1073 329 t b s;
#X obj 1073 351 array size \$0-intbuf;
#X obj 709 201 sig~;
#X obj 694 354 +~;
#X obj 838 69 r \$0-bufname;
#X obj 1072 305 r \$0-bufname;
#X text 788 340 <- current loop phase in samples;
#X obj 838 92 t b b s s;
#X obj 591 625 sig~;
#X obj 954 654 list prepend all;
#X obj 954 676 list trim;
#X msg 728 598 minlen \$1;
#X msg 818 598 maxlen \$1;
#X obj 751 232 sig~;
#N canvas 0 22 450 300 window 0;
#X obj 115 124 loadbang;
#X msg 115 146 fill 1 \, apply hanning;
#X obj 115 168 cyclone/buffer~ \$0-window @samps 100;
#X connect 0 0 1 0;
#X connect 1 0 2 0;
#X restore 41 420 pd window;
#N canvas 0 23 450 300 internal-buffer 0;
#X obj 21 127 array define \$0-intbuf 4.41e+06;
#X text 17 91 internal buffer \, one day this can be used for live
sampling;
#X restore 41 445 pd internal-buffer;
#X obj 452 589 noise~;
#X obj 452 611 abs~;
#X obj 452 633 *~ 0;
#X floatatom 514 626 5 0 0 0 - - -, f 5;
#X text 244 16 <- sample array name;
#X obj 693 746 outlet~;
#X obj 591 401 transratio;
#X obj 41 102 r \$0-start_ctrl;
#X obj 39 131 r \$0-end_ctrl;
#X obj 208 588 loadbang;
#X obj 208 638 f \$0;
#X obj 728 452 r \$0-grain_length;
#X obj 902 443 r \$0-grain_var;
#X obj 62 213 r \$0-grain_length_ctrl;
#X obj 62 233 r \$0-grain_var_ctrl;
#X obj 1073 17 inlet;
#N canvas 0 23 1197 189 send-control 0;
#X obj 35 23 inlet;
#X obj 36 63 route grain_length_ctrl grain_var_ctrl start_ctrl end_ctrl
speed_ctrl transp_ctrl, f 150;
#X obj 36 85 s \$0-grain_length_ctrl;
#X obj 208 101 s \$0-grain_var_ctrl;
#X obj 384 101 s \$0-start_ctrl;
#X obj 558 100 s \$0-end_ctrl;
#X obj 701 97 s \$0-speed_ctrl;
#X obj 906 95 s \$0-transp_ctrl;
#X obj 1062 101 sel retrig;
#X obj 1062 123 s \$0-retrig;
#X connect 0 0 1 0;
#X connect 1 0 2 0;
#X connect 1 1 3 0;
#X connect 1 2 4 0;
#X connect 1 3 5 0;
#X connect 1 4 6 0;
#X connect 1 5 7 0;
#X connect 1 6 8 0;
#X connect 8 0 9 0;
#X restore 1073 43 pd send-control;
#X obj 233 293 r \$0-retrig;
#N canvas 0 22 817 570 viz-buffer 0;
#X msg 39 119 1000;
#X obj 39 141 until;
#X obj 39 163 f 0;
#X obj 39 247 *;
#X obj 39 322 tabwrite \$0-showbuf;
#X obj 138 182 + 1;
#X msg 85 142 0;
#X obj 39 185 t f b f f;
#X obj 39 211 / 1000;
#X obj 39 295 abs;
#X obj 199 267 list trim;
#X obj 93 211 array size \$0-intbuf;
#X obj 39 269 tabread4 \$0-intbuf;
#X obj 39 32 r \$0-bufname;
#X obj 39 92 t b b s s;
#X obj 199 245 list prepend set;
#X text 159 40 comment;
#X connect 0 0 1 0;
#X connect 1 0 2 0;
#X connect 2 0 7 0;
#X connect 3 0 12 0;
#X connect 5 0 2 1;
#X connect 6 0 2 1;
#X connect 7 0 8 0;
#X connect 7 1 11 0;
#X connect 7 2 4 1;
#X connect 7 3 5 0;
#X connect 8 0 3 0;
#X connect 9 0 4 0;
#X connect 10 0 12 0;
#X connect 11 0 3 1;
#X connect 12 0 9 0;
#X connect 13 0 14 0;
#X connect 14 0 0 0;
#X connect 14 1 6 0;
#X connect 14 2 11 1;
#X connect 14 3 15 0;
#X connect 15 0 10 0;
#X restore 41 477 pd viz-buffer;
#X obj 211 187 hradio 15 1 0 16 empty empty length 7 7 0 10 -262144
-1 -1 15;
#X obj 39 164 expr $f1 / 127 * 15;
#N canvas 590 163 577 396 speed 0;
#X obj 293 110 f;
#X obj 338 110 f;
#X obj 293 131 / 2;
#X obj 338 131 * 2;
#X obj 37 36 r \$0-speed_ctrl;
#X obj 3 127 r \$0-transp_ctrl;
#X obj 183 214 f;
#X obj 228 214 f;
#X obj 144 33 r \$0-speed_half;
#X obj 255 30 r \$0-speed_double;
#X obj 267 160 r \$0-oct_down;
#X obj 183 235 - 12;
#X obj 228 235 + 12;
#X obj 266 191 r \$0-oct_up;
#X obj 34 301 s \$0-speed;
#X obj 113 299 s \$0-transp;
#X obj 101 101 cnv 15 83 58 empty empty empty 20 12 0 14 -233017 -66577
0;
#X floatatom 107 112 5 0 0 2 speed - -, f 5;
#X floatatom 107 143 5 0 0 2 transp - -, f 5;
#X obj 142 112 bng 15 250 50 0 empty empty empty 17 7 0 10 -262144
-1 -1;
#X obj 160 112 bng 15 250 50 0 empty empty empty 17 7 0 10 -262144
-1 -1;
#X obj 142 143 bng 15 250 50 0 empty empty empty 17 7 0 10 -262144
-1 -1;
#X obj 160 143 bng 15 250 50 0 empty empty empty 17 7 0 10 -262144
-1 -1;
#X connect 0 0 2 0;
#X connect 1 0 3 0;
#X connect 2 0 17 0;
#X connect 3 0 17 0;
#X connect 4 0 17 0;
#X connect 5 0 18 0;
#X connect 6 0 11 0;
#X connect 7 0 12 0;
#X connect 8 0 19 0;
#X connect 9 0 20 0;
#X connect 10 0 21 0;
#X connect 11 0 18 0;
#X connect 12 0 18 0;
#X connect 13 0 22 0;
#X connect 17 0 0 1;
#X connect 17 0 1 1;
#X connect 17 0 14 0;
#X connect 18 0 6 1;
#X connect 18 0 7 1;
#X connect 18 0 15 0;
#X connect 19 0 0 0;
#X connect 20 0 1 0;
#X connect 21 0 6 0;
#X connect 22 0 7 0;
#X coords 0 -1 1 1 85 60 2 100 100;
#X restore 366 211 pd speed;
#X obj 954 599 r \$0-bufname;
#X msg 235 614 bang;
#X obj 728 542 expr $f1 * pow(2 \, -1 * $f2);
#X obj 901 542 expr $f1 * pow(2 \, $f2);
#X obj 902 469 t b b f f;
#X obj 728 473 t f f;
#X obj 728 563 * 1;
#X obj 901 563 * 1;
#X obj 591 426 t f b b f f;
#X obj 693 696 clone -x 4 gloop~ \$0-intbuf \$0-window;
#N canvas 0 23 450 300 playback-pars 0;
#X obj 77 35 inlet;
#X obj 190 36 inlet;
#X obj 80 70 / 127;
#X obj 79 131 s \$0-rel_start;
#X obj 190 138 s \$0-rel_length;
#X obj 190 112 expr ($f1 + 1) / 16;
#X connect 0 0 2 0;
#X connect 1 0 5 0;
#X connect 2 0 3 0;
#X connect 5 0 4 0;
#X restore 33 265 pd playback-pars;
#N canvas 0 23 450 300 grain-pars 0;
#X obj 80 177 s \$0-grain_length;
#X obj 202 134 s \$0-grain_var;
#X obj 60 103 / 127;
#X obj 61 146 + 50;
#X obj 202 103 / 127;
#X obj 60 125 * 450;
#X obj 51 34 inlet;
#X obj 195 40 inlet;
#X connect 2 0 5 0;
#X connect 3 0 0 0;
#X connect 4 0 1 0;
#X connect 5 0 3 0;
#X connect 6 0 2 0;
#X connect 7 0 4 0;
#X restore 146 311 pd grain-pars;
#X obj 561 16 inlet~;
#X text 612 19 <- external phase signal;
#X obj 751 206 r \$0-speed;
#X obj 591 369 r \$0-transp;
#N canvas 0 23 338 272 select-phasor 0;
#X obj 238 63 inlet;
#X obj 80 66 inlet~;
#X obj 169 64 inlet~;
#X obj 80 137 *~ 1;
#X obj 99 108 == 0;
#X obj 189 110 == 1;
#X obj 170 139 *~ 0;
#X obj 80 177 outlet~;
#X connect 0 0 4 0;
#X connect 0 0 5 0;
#X connect 1 0 3 0;
#X connect 2 0 6 0;
#X connect 3 0 7 0;
#X connect 4 0 3 1;
#X connect 5 0 6 1;
#X connect 6 0 7 0;
#X restore 515 311 pd select-phasor;
#X msg 183 677 \; \$1-start_ctrl 0 \; \$1-end_ctrl 127 \; \$1-speed_ctrl
1 \; \$1-transp_ctrl 0 \; \$1-grain_length_ctrl 16 \; \$1-grain_var_ctrl
8 \; \$1-retrig bang \;;
#X obj 211 251 bng 25 250 50 0 empty empty > 10 12 0 12 -262144 -1
-1;
#X obj 214 211 hsl 128 15 0 127 0 0 empty empty grain_length 4 6 0
10 -262144 -1 -1 1600 1;
#X obj 214 232 hsl 128 15 0 127 0 0 empty empty grain_var 4 7 0 10
-262144 -1 -1 800 1;
#X obj 273 258 tgl 15 0 empty empty ext_phase 17 7 0 10 -262144 -1
-1 0 1;
#X connect 1 0 2 0;
#X connect 1 1 17 0;
#X connect 2 0 22 0;
#X connect 3 0 4 0;
#X connect 3 1 18 0;
#X connect 4 0 9 0;
#X connect 5 0 68 0;
#X connect 6 0 15 0;
#X connect 7 0 16 0;
#X connect 8 0 74 0;
#X connect 8 1 10 1;
#X connect 9 0 8 1;
#X connect 10 0 23 0;
#X connect 12 0 13 0;
#X connect 14 0 29 0;
#X connect 15 0 1 0;
#X connect 16 0 3 0;
#X connect 17 0 2 1;
#X connect 18 0 4 1;
#X connect 19 0 67 0;
#X connect 20 0 21 0;
#X connect 20 1 21 1;
#X connect 21 0 19 1;
#X connect 22 0 23 1;
#X connect 23 0 19 0;
#X connect 24 0 27 0;
#X connect 25 0 20 0;
#X connect 27 0 15 0;
#X connect 27 1 16 0;
#X connect 27 2 17 1;
#X connect 27 3 18 1;
#X connect 28 0 67 1;
#X connect 29 0 30 0;
#X connect 30 0 67 2;
#X connect 31 0 29 0;
#X connect 32 0 29 0;
#X connect 33 0 8 0;
#X connect 36 0 37 0;
#X connect 37 0 38 0;
#X connect 38 0 67 1;
#X connect 39 0 38 1;
#X connect 42 0 66 0;
#X connect 43 0 5 0;
#X connect 44 0 56 0;
#X connect 45 0 46 0;
#X connect 46 0 75 0;
#X connect 47 0 63 0;
#X connect 48 0 62 0;
#X connect 49 0 77 0;
#X connect 50 0 78 0;
#X connect 51 0 52 0;
#X connect 53 0 76 0;
#X connect 55 0 68 1;
#X connect 56 0 55 0;
#X connect 58 0 14 0;
#X connect 59 0 46 0;
#X connect 60 0 64 0;
#X connect 61 0 65 0;
#X connect 62 0 60 0;
#X connect 62 1 61 0;
#X connect 62 2 60 1;
#X connect 62 3 61 1;
#X connect 63 0 60 0;
#X connect 63 1 61 0;
#X connect 64 0 31 0;
#X connect 65 0 32 0;
#X connect 66 0 28 0;
#X connect 66 1 64 0;
#X connect 66 2 65 0;
#X connect 66 3 64 1;
#X connect 66 4 65 1;
#X connect 67 0 41 0;
#X connect 70 0 74 1;
#X connect 72 0 33 0;
#X connect 73 0 42 0;
#X connect 74 0 10 0;
#X connect 76 0 8 0;
#X connect 77 0 69 0;
#X connect 78 0 69 1;
#X connect 79 0 74 2;
#X coords 0 -1 1 1 260 180 2 202 100;
