#N canvas 0 22 1440 829.031 10;
#X obj 74 710 array define testbuf;
#X obj 72 669 soundfiler;
#X msg 72 624 read -resize ~/Documents/sounds/infra_excerpt.wav testbuf
;
#N canvas 0 22 450 278 (subpatch) 0;
#X array \$0-showbuf 1000 float 0 black black;
#X coords 0 1 999 0 240 50 1;
#X restore 208 152 graph;
#X msg 520 82 1000;
#X obj 520 104 until;
#X obj 520 126 f 0;
#X obj 520 210 *;
#X obj 520 285 tabwrite \$0-showbuf;
#X obj 619 145 + 1;
#X msg 588 81 0;
#X obj 520 55 t b b;
#X obj 520 148 t f b f f;
#X obj 520 232 tabread4 testbuf;
#X obj 574 174 array size testbuf;
#X obj 520 174 / 1000;
#X text 657 35 display contents of arbitrarily sized 'testbuf' in size
= 1000 '\$0-showbuf';
#X obj 208 206 hradio 15 1 0 16 empty empty empty 0 -8 0 10 -262144
-1 -1 7;
#X obj 208 223 hradio 15 1 0 16 empty empty empty 0 -8 0 10 -262144
-1 -1 9;
#X obj 53 290 / 16;
#X obj 815 142 t f b;
#X obj 815 164 *;
#X obj 846 164 array size testbuf;
#X obj 215 381 + 1;
#X obj 215 403 / 16;
#X obj 1007 144 t f b;
#X obj 1007 174 *;
#X obj 1042 174 array size testbuf;
#X text 71 593 TESTING PURPOSES;
#X obj 208 253 hsl 236 15 0 127 0 0 empty empty empty -2 -8 0 10 -262144
-1 -1 10750 1;
#X obj 75 323 / 127;
#X obj 208 270 hsl 236 15 0 127 0 0 empty empty empty -2 -8 0 10 -262144
-1 -1 23500 1;
#X obj 164 385 / 127;
#X text 323 237 |;
#X obj 54 356 s \$0-rel_start;
#X obj 815 73 r \$0-rel_start;
#X obj 54 423 s \$0-rel_length;
#X obj 1008 73 r \$0-rel_length;
#X obj 520 258 abs;
#X obj 815 186 t f f;
#X obj 842 346 + 1000;
#X obj 1007 211 t b f f;
#X obj 1021 283 loop~;
#X obj 1053 250 sig~;
#X obj 1021 305 *~;
#X text 587 345 actual 'playhead' position (samps);
#X obj 379 652 loadbang;
#X msg 379 674 fill 1 \, apply hanning;
#X text 1102 346 current loop phase in samples->;
#X obj 379 696 cyclone/buffer~ \$0-window @samps 100;
#X dropdown 208 121 0 1 0 2 - - -;
#X obj 52 36 inlet;
#X obj 343 20 t b s;
#X obj 370 70 s \$0-bufname;
#X obj 680 97 r \$0-bufname;
#X obj 919 75 r \$0-bufname;
#X obj 1147 73 r \$0-bufname;
#X obj 1021 387 +~ 0;
#X obj 1021 476 gloop~ testbuf \$0-window;
#X obj 1154 381 r \$0-bufname;
#X obj 1154 403 list prepend setbuf;
#X obj 1154 425 list trim;
#X obj 680 119 t s s;
#X obj 673 208 list prepend set;
#X obj 673 230 list trim;
#X obj 919 97 t b s;
#X obj 815 115 f;
#X obj 1007 106 f;
#X obj 1147 95 t b s;
#X connect 2 0 1 0;
#X connect 4 0 5 0;
#X connect 5 0 6 0;
#X connect 6 0 12 0;
#X connect 7 0 13 0;
#X connect 9 0 6 1;
#X connect 10 0 6 1;
#X connect 11 0 4 0;
#X connect 11 1 10 0;
#X connect 12 0 15 0;
#X connect 12 1 14 0;
#X connect 12 2 8 1;
#X connect 12 3 9 0;
#X connect 13 0 38 0;
#X connect 14 0 7 1;
#X connect 15 0 7 0;
#X connect 17 0 19 0;
#X connect 18 0 23 0;
#X connect 19 0 34 0;
#X connect 20 0 21 0;
#X connect 20 1 22 0;
#X connect 21 0 39 0;
#X connect 22 0 21 1;
#X connect 23 0 24 0;
#X connect 24 0 36 0;
#X connect 25 0 26 0;
#X connect 25 1 27 0;
#X connect 26 0 41 0;
#X connect 27 0 26 1;
#X connect 29 0 30 0;
#X connect 30 0 34 0;
#X connect 31 0 32 0;
#X connect 32 0 36 0;
#X connect 35 0 66 0;
#X connect 37 0 67 0;
#X connect 38 0 8 0;
#X connect 39 1 40 0;
#X connect 40 0 57 1;
#X connect 41 0 40 0;
#X connect 41 1 40 1;
#X connect 41 2 43 0;
#X connect 42 0 44 0;
#X connect 42 1 44 1;
#X connect 43 0 42 1;
#X connect 44 0 57 0;
#X connect 46 0 47 0;
#X connect 47 0 49 0;
#X connect 50 0 52 0;
#X connect 51 0 50 0;
#X connect 52 0 11 0;
#X connect 52 1 53 0;
#X connect 54 0 62 0;
#X connect 55 0 65 0;
#X connect 56 0 68 0;
#X connect 57 0 58 0;
#X connect 59 0 60 0;
#X connect 60 0 61 0;
#X connect 61 0 58 2;
#X connect 62 0 14 1;
#X connect 62 1 63 0;
#X connect 63 0 64 0;
#X connect 64 0 13 0;
#X connect 65 0 66 0;
#X connect 65 1 22 1;
#X connect 66 0 20 0;
#X connect 67 0 25 0;
#X connect 68 0 67 0;
#X connect 68 1 27 1;
#X coords 0 -1 1 1 255 194 1 202 100;
