#N canvas 143 22 801 845 10;
#X declare -lib ofelia;
#X obj 33 695 loadbang;
#X obj 153 737 soundfiler;
#X msg 153 716 read -resize ../sound/bell.aiff testbuf;
#X obj 32 782 array define testbuf;
#X msg 33 716 symbol hanning;
#X msg 33 737 fill 1 \, apply \$1;
#X obj 33 758 cyclone/buffer~ testwin @samps 1000;
#X obj 40 54 tgl 15 0 empty empty empty 17 7 0 10 -262144 -1 -1 1 1
;
#X floatatom 85 54 5 0 0 0 - - -, f 5;
#X obj 40 190 array min busy;
#X obj 40 89 metro 100;
#X obj 41 231 t f b;
#X obj 33 662 declare -lib ofelia;
#X obj 67 249 ofRandom 50 200;
#X obj 67 270 list prepend duration;
#X obj 41 292 list append;
#X obj 41 313 t l b;
#X obj 68 335 f 0;
#X obj 68 356 list prepend start;
#X obj 41 377 list append;
#X floatatom 122 316 5 0 0 0 - - -, f 5;
#X text 160 315 start (ms);
#X text 175 248 grain length(ms);
#X text 156 21 using the busy array thus should get you the index of
the first inactive grain at any time;
#X obj 40 110 array sum busy;
#X obj 40 152 sel 1;
#X obj 41 406 t l b;
#X obj 41 480 list append;
#X obj 68 459 list prepend direction;
#X obj 68 438 f 1;
#X msg 112 410 -1;
#X msg 156 410 1;
#X text 196 408 direction;
#X obj 316 210 t l b;
#X obj 343 232 f 0;
#X obj 316 274 list append;
#X floatatom 397 213 5 0 0 0 - - -, f 5;
#X obj 343 253 list prepend pitch;
#X text 435 212 pitch (semi);
#X obj 316 296 t l b;
#X obj 316 366 list append;
#X floatatom 399 298 5 0 0 0 - - -, f 5;
#X obj 344 343 list prepend pan;
#X obj 344 323 f 0.5;
#X text 437 297 pan (0-1);
#X obj 316 387 t l b;
#X floatatom 410 391 5 0 0 0 - - -, f 5;
#X obj 359 418 random 10;
#X text 449 392 onset delay (ms);
#X obj 316 463 list append;
#X obj 359 439 list prepend delay;
#X obj 443 495 list;
#X obj 443 470 bng 15 250 50 0 empty empty empty 17 7 0 10 -262144
-1 -1;
#X obj 443 516 print grain input example;
#X text 380 157 how to set parameters for the next grain without worrying
too much about their order \, by simulating a named list;
#X msg 505 571 \$2 \$1;
#X floatatom 154 215 5 0 0 0 - - -, f 5;
#X obj 354 645 *~ 0.1;
#X obj 404 645 *~ 0.1;
#X obj 354 666 dac~;
#X obj 505 590 tabwrite busy;
#X floatatom 434 596 5 0 0 0 - - -, f 5;
#X obj 40 131 < 16;
#X floatatom 110 215 5 0 0 0 - - -, f 5;
#X obj 162 70 array define busy 16;
#X obj 316 552 clone 16 lgrain~ testbuf testwin;
#X connect 0 0 2 0;
#X connect 0 0 4 0;
#X connect 2 0 1 0;
#X connect 4 0 5 0;
#X connect 5 0 6 0;
#X connect 7 0 10 0;
#X connect 8 0 10 1;
#X connect 9 1 11 0;
#X connect 10 0 24 0;
#X connect 11 0 15 0;
#X connect 11 1 13 0;
#X connect 13 0 14 0;
#X connect 14 0 15 1;
#X connect 15 0 16 0;
#X connect 16 0 19 0;
#X connect 16 1 17 0;
#X connect 17 0 18 0;
#X connect 18 0 19 1;
#X connect 19 0 26 0;
#X connect 20 0 17 0;
#X connect 24 0 62 0;
#X connect 25 0 9 0;
#X connect 26 0 27 0;
#X connect 26 1 29 0;
#X connect 27 0 33 0;
#X connect 28 0 27 1;
#X connect 29 0 28 0;
#X connect 30 0 29 0;
#X connect 31 0 29 0;
#X connect 33 0 35 0;
#X connect 33 1 34 0;
#X connect 34 0 37 0;
#X connect 35 0 39 0;
#X connect 36 0 34 0;
#X connect 37 0 35 1;
#X connect 39 0 40 0;
#X connect 39 1 43 0;
#X connect 40 0 45 0;
#X connect 41 0 43 0;
#X connect 42 0 40 1;
#X connect 43 0 42 0;
#X connect 45 0 49 0;
#X connect 45 1 47 0;
#X connect 46 0 47 1;
#X connect 47 0 50 0;
#X connect 49 0 51 1;
#X connect 49 0 65 0;
#X connect 50 0 49 1;
#X connect 51 0 53 0;
#X connect 52 0 51 0;
#X connect 55 0 60 0;
#X connect 56 0 13 2;
#X connect 57 0 59 0;
#X connect 58 0 59 1;
#X connect 61 0 57 1;
#X connect 61 0 58 1;
#X connect 62 0 25 0;
#X connect 63 0 13 1;
#X connect 65 0 57 0;
#X connect 65 1 58 0;
#X connect 65 2 55 0;
