#N canvas 821 156 585 528 10;
#X obj 41 31 inlet;
#N canvas 197 456 768 393 route-arguments 0;
#X obj 60 38 inlet;
#X obj 133 118 route duration;
#X obj 224 118 route direction;
#X obj 321 118 route pitch;
#X obj 60 118 route start;
#X obj 60 139 v \$0-start;
#X obj 133 139 v \$0-duration;
#X obj 224 139 v \$0-direction;
#X obj 321 139 v \$0-pitch;
#X obj 468 118 route pan;
#X obj 468 139 v \$0-pan;
#X text 246 44 simulating a 'named list';
#X obj 60 186 print error unknown parameter;
#X obj 394 118 route crush;
#X obj 394 139 v \$0-crush;
#X obj 530 118 route delay;
#X obj 530 139 v \$0-delay;
#X obj 60 73 list split 2;
#X obj 159 72 list;
#X obj 60 94 list trim;
#X connect 0 0 17 0;
#X connect 1 0 6 0;
#X connect 1 1 2 0;
#X connect 2 0 7 0;
#X connect 2 1 3 0;
#X connect 3 0 8 0;
#X connect 3 1 13 0;
#X connect 4 0 5 0;
#X connect 4 1 1 0;
#X connect 9 0 10 0;
#X connect 9 1 15 0;
#X connect 13 0 14 0;
#X connect 13 1 9 0;
#X connect 15 0 16 0;
#X connect 15 1 12 0;
#X connect 17 0 19 0;
#X connect 17 1 18 0;
#X connect 18 0 17 0;
#X connect 19 0 4 0;
#X restore 60 118 pd route-arguments;
#N canvas 0 22 450 300 envelope 0;
#X obj 104 22 inlet;
#X obj 104 43 t b b;
#X obj 204 92 array size \$3;
#X obj 104 92 v \$0-duration;
#X obj 104 113 pack 0 0;
#X msg 104 134 0 \, \$2 \$1;
#X obj 104 155 line~;
#X obj 104 176 tabread4~ \$3;
#X obj 104 197 outlet~;
#X connect 0 0 1 0;
#X connect 1 0 3 0;
#X connect 1 1 2 0;
#X connect 2 0 4 1;
#X connect 3 0 4 0;
#X connect 4 0 5 0;
#X connect 5 0 6 0;
#X connect 6 0 7 0;
#X connect 7 0 8 0;
#X restore 165 274 pd envelope;
#N canvas 583 200 506 525 read-sample 1;
#X obj 45 22 inlet;
#X obj 123 76 v \$0-duration;
#X obj 45 76 v \$0-start;
#X obj 45 277 pack 0 0 0;
#X msg 45 298 \$1 \, \$2 \$3;
#X obj 45 319 line~;
#X obj 45 340 tabread4~ \$2;
#X obj 45 361 outlet~;
#X obj 45 157 t f f;
#X obj 73 242 +;
#X obj 45 43 t b b;
#X obj 123 157 t f f b b;
#X obj 288 187 v \$0-direction;
#X obj 205 188 v \$0-pitch;
#X obj 45 97 * 44.1;
#X obj 123 217 expr $f1 * 44.1 * pow(2 \, $f2 / 12) * $f3;
#X connect 0 0 10 0;
#X connect 1 0 11 0;
#X connect 2 0 14 0;
#X connect 3 0 4 0;
#X connect 4 0 5 0;
#X connect 5 0 6 0;
#X connect 6 0 7 0;
#X connect 8 0 3 0;
#X connect 8 1 9 0;
#X connect 9 0 3 1;
#X connect 10 0 2 0;
#X connect 10 1 1 0;
#X connect 11 0 15 0;
#X connect 11 1 3 2;
#X connect 11 2 13 0;
#X connect 11 3 12 0;
#X connect 12 0 15 2;
#X connect 13 0 15 1;
#X connect 14 0 8 0;
#X connect 15 0 9 1;
#X restore 58 274 pd read-sample;
#X obj 58 295 *~;
#X obj 41 175 delay;
#X obj 222 342 pan~;
#X obj 243 238 v \$0-pan;
#X obj 41 205 t b b b b;
#X obj 222 363 outlet~;
#X obj 290 362 outlet~;
#X obj 41 361 v \$0-duration;
#X obj 41 388 delay;
#X obj 348 131 loadbang;
#X obj 348 152 f \$0;
#X msg 348 173 \; \$1-pan 0.5 \; \$1-direction 1 \;;
#X text 205 132 arguments \; 1: [clone] index \; 2: sample buffer \;
3: window buffer \;;
#X obj 364 382 outlet;
#X text 141 33 abstraction for a single grain to be triggered by a
list input of form (arg1 val1 arg2 val2 arg3 val3 ... argN valN);
#X text 142 64 when a grain is triggered \, send 1 from 3rd outlet
\; when it is done playing \, send 0 this can be used with an array
in a parent patch containing [clone] to keep track of which voices
are busy.;
#X obj 80 98 f 1;
#X obj 41 410 f 0;
#X obj 41 144 v \$0-delay;
#X obj 41 71 t b a b;
#X connect 0 0 23 0;
#X connect 2 0 4 1;
#X connect 3 0 4 0;
#X connect 4 0 6 0;
#X connect 5 0 8 0;
#X connect 6 0 9 0;
#X connect 6 1 10 0;
#X connect 7 0 6 1;
#X connect 8 0 11 0;
#X connect 8 1 3 0;
#X connect 8 2 2 0;
#X connect 8 3 7 0;
#X connect 11 0 12 0;
#X connect 12 0 21 0;
#X connect 13 0 14 0;
#X connect 14 0 15 0;
#X connect 20 0 17 0;
#X connect 21 0 17 0;
#X connect 22 0 5 0;
#X connect 23 0 22 0;
#X connect 23 1 1 0;
#X connect 23 2 20 0;
