#N canvas 342 323 450 300 10;
#X obj 179 131 list;
#X obj 146 170 list;
#X obj 179 110 list prepend;
#X obj 146 70 route bang;
#X obj 146 191 outlet;
#X obj 146 28 inlet;
#X obj 55 116 t b b b;
#X connect 0 0 1 1;
#X connect 0 0 2 1;
#X connect 1 0 4 0;
#X connect 2 0 0 0;
#X connect 3 0 6 0;
#X connect 3 1 2 0;
#X connect 5 0 3 0;
#X connect 6 0 1 1;
#X connect 6 1 1 0;
#X connect 6 2 2 1;
