#N canvas 0 23 1440 851 10;
#X msg 85 195 \$1 10;
#X obj 85 216 line~;
#X obj 38 58 inlet~;
#X obj 38 237 *~;
#X obj 38 348 outlet~;
#X msg 187 193 \$1 10;
#X obj 187 214 line~;
#X obj 140 56 inlet~;
#X obj 140 235 *~;
#X obj 140 346 outlet~;
#X msg 285 189 \$1 10;
#X obj 285 210 line~;
#X obj 238 52 inlet~;
#X obj 238 231 *~;
#X obj 238 342 outlet~;
#X msg 387 187 \$1 10;
#X obj 387 208 line~;
#X obj 340 50 inlet~;
#X obj 340 229 *~;
#X obj 340 340 outlet~;
#X obj 663 40 inlet;
#X obj 459 63 hsl 128 15 0 127 0 0 empty empty empty -2 -8 0 10 -262144
-1 -1 9500 1;
#X obj 83 156 / 127;
#X obj 189 154 / 127;
#X obj 282 152 / 127;
#X obj 388 150 / 127;
#X obj 459 79 hsl 128 15 0 127 0 0 empty empty empty -2 -8 0 10 -262144
-1 -1 0 1;
#X obj 459 95 hsl 128 15 0 127 0 0 empty empty empty -2 -8 0 10 -262144
-1 -1 0 1;
#X obj 459 111 hsl 128 15 0 127 0 0 empty empty empty -2 -8 0 10 -262144
-1 -1 2100 1;
#X msg 84 287 \$1 10;
#X obj 84 308 line~;
#X obj 37 289 *~;
#X msg 186 285 \$1 10;
#X obj 186 306 line~;
#X obj 139 287 *~;
#X msg 284 281 \$1 10;
#X obj 284 302 line~;
#X obj 237 283 *~;
#X msg 386 279 \$1 10;
#X obj 386 300 line~;
#X obj 339 281 *~;
#X obj 590 63 tgl 15 0 empty empty empty 17 7 0 10 -262144 -1 -1 1
1;
#X obj 83 262 == 0;
#X obj 590 79 tgl 15 0 empty empty empty 17 7 0 10 -262144 -1 -1 0
1;
#X obj 185 261 == 0;
#X obj 590 95 tgl 15 0 empty empty empty 17 7 0 10 -262144 -1 -1 0
1;
#X obj 284 253 == 0;
#X obj 590 111 tgl 15 0 empty empty empty 17 7 0 10 -262144 -1 -1 0
1;
#X obj 386 252 == 0;
#X obj 663 61 route level1 level2 level3 level4;
#X obj 811 128 route mute1 mute2 mute3 mute4;
#X obj 484 5 loadbang;
#X msg 484 26 0;
#X obj 399 74 env~;
#X floatatom 399 95 5 0 0 0 - - -, f 5;
#X connect 0 0 1 0;
#X connect 1 0 3 1;
#X connect 2 0 3 0;
#X connect 3 0 31 0;
#X connect 5 0 6 0;
#X connect 6 0 8 1;
#X connect 7 0 8 0;
#X connect 8 0 34 0;
#X connect 10 0 11 0;
#X connect 11 0 13 1;
#X connect 12 0 13 0;
#X connect 13 0 37 0;
#X connect 15 0 16 0;
#X connect 16 0 18 1;
#X connect 17 0 18 0;
#X connect 18 0 40 0;
#X connect 20 0 49 0;
#X connect 21 0 22 0;
#X connect 22 0 0 0;
#X connect 23 0 5 0;
#X connect 24 0 10 0;
#X connect 25 0 15 0;
#X connect 26 0 23 0;
#X connect 27 0 24 0;
#X connect 28 0 25 0;
#X connect 29 0 30 0;
#X connect 30 0 31 1;
#X connect 31 0 4 0;
#X connect 32 0 33 0;
#X connect 33 0 34 1;
#X connect 34 0 9 0;
#X connect 35 0 36 0;
#X connect 36 0 37 1;
#X connect 37 0 14 0;
#X connect 38 0 39 0;
#X connect 39 0 40 1;
#X connect 40 0 19 0;
#X connect 41 0 42 0;
#X connect 42 0 29 0;
#X connect 43 0 44 0;
#X connect 44 0 32 0;
#X connect 45 0 46 0;
#X connect 46 0 35 0;
#X connect 47 0 48 0;
#X connect 48 0 38 0;
#X connect 49 0 21 0;
#X connect 49 1 26 0;
#X connect 49 2 27 0;
#X connect 49 3 28 0;
#X connect 49 4 50 0;
#X connect 50 0 41 0;
#X connect 50 1 43 0;
#X connect 50 2 45 0;
#X connect 50 3 47 0;
#X connect 51 0 52 0;
#X connect 52 0 41 0;
#X connect 52 0 43 0;
#X connect 52 0 45 0;
#X connect 52 0 47 0;
#X connect 53 0 54 0;
#X coords 0 -1 1 1 160 90 1 450 40;
