#N canvas 0 23 1440 799 10;
#X obj 387 102 inlet~;
#X obj 387 206 *~;
#X obj 387 248 soundhack/+bubbler~;
#X obj 559 207 *~;
#X obj 481 159 cos~;
#X obj 1081 376 hsl 128 15 0 127 0 0 empty empty in_mix 7 7 0 10 -262144
-1 -1 6400 1;
#X msg 481 111 \$1 100;
#X obj 481 133 line~;
#X obj 481 89 expr $f1 / 127 * 0.25;
#X obj 577 186 cos~;
#X obj 577 164 +~ 0.75;
#X obj 387 429 +~;
#X obj 533 648 *~;
#X msg 534 573 \$1 100;
#X obj 534 595 line~;
#X obj 533 670 s~ \$0-feedback;
#X obj 271 102 r~ \$0-feedback;
#X obj 271 124 +~;
#X obj 387 380 *~;
#X obj 405 297 *~;
#X obj 626 249 cos~;
#X obj 909 515 hsl 128 15 0 127 0 0 empty empty out_mix 7 7 0 10 -262144
-1 -1 12700 1;
#X msg 673 201 \$1 100;
#X obj 673 223 line~;
#X obj 673 179 expr $f1 / 127 * 0.25;
#X obj 673 270 cos~;
#X obj 673 248 +~ 0.75;
#X text 1087 284 fx input crossfade;
#X text 903 550 fx output crossfade;
#X obj 387 612 outlet~;
#X obj 900 56 inlet;
#X obj 900 78 route feedback in_mix out_mix;
#X obj 900 100 s \$0-feedback-ctrl;
#X obj 966 125 s \$0-in_mix-ctrl;
#X obj 1033 152 s \$0-out_mix-ctrl;
#X obj 1093 312 r \$0-in_mix-ctrl;
#X obj 907 568 r \$0-out_mix-ctrl;
#X obj 250 204 r \$0-to_bubbler;
#X obj 42 68 loadbang;
#X obj 42 90 f \$0;
#X msg 42 134 \; \$1-to_bubbler feedback 0 \;;
#X obj 629 326 r \$0-to_specter;
#X obj 541 329 +~;
#N canvas 0 23 1440 799 bub-ctrl 0;
#X msg 98 478 timeVariation \$1 \, grainStartVariation \$1;
#X obj 98 436 expr $f1 / 127 * 100;
#X obj 98 610 s \$0-to_bubbler;
#X floatatom 397 458 10 0 0 0 - - -, f 10;
#X msg 397 477 time \$1;
#X floatatom 629 458 10 0 0 0 - - -, f 10;
#X msg 629 477 filterFreq \$1;
#X obj 900 435 expr $f1 / 127 * 100;
#X msg 900 457 resonance \$1;
#X obj 129 519 expr $f1 / 127 * 200;
#X msg 129 541 density \$1;
#X obj 282 519 expr $f1 / 127 * 50;
#X msg 282 541 grainSize \$1;
#X msg 577 564 octave \$1;
#X msg 718 543 octaveVariation \$1;
#X obj 577 542 - 4;
#X obj 897 544 expr $f1 / 127 * 100;
#X obj 441 41 inlet;
#X obj 441 63 route time jitter ffreq freso density grain_size octave
oct_var reverse, f 72;
#X floatatom 775 161 5 0 0 0 - - -, f 5;
#X floatatom 830 196 5 0 0 0 - - -, f 5;
#X obj 775 139 expr round($f1 / 127 * 8);
#X obj 830 174 expr round($f1 / 127 * 2);
#X msg 897 566 grainReversal \$1;
#X obj 246 127 hsl 128 15 0 127 0 0 empty empty jitter 4 7 0 10 -262144
-1 -1 6900 1;
#X obj 107 127 hsl 128 15 0 127 0 0 empty empty time 4 7 0 10 -262144
-1 -1 9300 1;
#X obj 107 150 hsl 128 15 0 127 0 0 empty empty ffreq 4 7 0 10 -262144
-1 -1 10900 1;
#X obj 246 150 hsl 128 15 0 127 0 0 empty empty freso 4 7 0 10 -262144
-1 -1 1700 1;
#X obj 106 172 hsl 128 15 0 127 0 0 empty empty density 4 7 0 10 -262144
-1 -1 8900 1;
#X obj 246 172 hsl 128 15 0 127 0 0 empty empty grain_size 4 7 0 10
-262144 -1 -1 6400 1;
#X obj 103 194 hradio 15 1 0 9 empty bub_initoct empty 0 -8 0 10 -262144
-1 -1 4;
#X obj 243 194 hradio 15 1 0 3 empty empty empty 0 -8 0 10 -262144
-1 -1 1;
#X text 290 193 octave + var;
#X obj 176 216 hsl 128 15 0 127 0 0 empty empty reverse 4 7 0 10 -262144
-1 -1 0 1;
#X obj 397 436 expr exp(log(10000) * $f1 / 127) + 10;
#X obj 629 436 expr exp(log(19981) * $f1 / 127) + 20;
#X connect 0 0 2 0;
#X connect 1 0 0 0;
#X connect 3 0 4 0;
#X connect 4 0 2 0;
#X connect 5 0 6 0;
#X connect 6 0 2 0;
#X connect 7 0 8 0;
#X connect 8 0 2 0;
#X connect 9 0 10 0;
#X connect 10 0 2 0;
#X connect 11 0 12 0;
#X connect 12 0 2 0;
#X connect 13 0 2 0;
#X connect 14 0 2 0;
#X connect 15 0 13 0;
#X connect 16 0 23 0;
#X connect 17 0 18 0;
#X connect 18 0 25 0;
#X connect 18 1 24 0;
#X connect 18 2 26 0;
#X connect 18 3 27 0;
#X connect 18 4 28 0;
#X connect 18 5 29 0;
#X connect 18 6 21 0;
#X connect 18 7 22 0;
#X connect 18 8 33 0;
#X connect 19 0 30 0;
#X connect 20 0 31 0;
#X connect 21 0 19 0;
#X connect 22 0 20 0;
#X connect 23 0 2 0;
#X connect 24 0 1 0;
#X connect 25 0 34 0;
#X connect 26 0 35 0;
#X connect 27 0 7 0;
#X connect 28 0 9 0;
#X connect 29 0 11 0;
#X connect 30 0 15 0;
#X connect 31 0 14 0;
#X connect 33 0 16 0;
#X connect 34 0 3 0;
#X connect 35 0 5 0;
#X coords 0 -1 1 1 280 120 2 100 120;
#X restore 762 387 pd bub-ctrl;
#N canvas 0 23 915 636 specter-ctrl 0;
#X floatatom 156 303 5 0 0 0 - - -, f 5;
#X msg 156 322 smooth \$1;
#X floatatom 237 302 5 0 0 0 - - -, f 5;
#X msg 237 321 noise \$1;
#X floatatom 367 350 5 0 0 0 - - -, f 5;
#X msg 367 369 thresh \$1;
#X msg 448 369 delta \$1;
#X msg 105 368 freeze \$1;
#X obj 105 432 s \$0-to_specter;
#X obj 157 73 inlet;
#X obj 157 95 route freeze smooth noise thresh delta;
#X obj 105 132 > 64;
#X obj 353 274 expr $f1 / 127;
#X obj 367 310 expr $f1 / 127 * 2;
#X msg 31 287 invert \$1;
#X obj 109 160 tgl 40 0 empty empty freeze 2 20 0 10 -262144 -1 -1
1 1;
#X obj 163 160 hsl 128 15 0 127 0 0 empty empty smooth 7 7 0 10 -262144
-1 -1 2600 1;
#X obj 163 185 hsl 128 15 0 127 0 0 empty empty noise 7 7 0 10 -262144
-1 -1 12700 1;
#X obj 163 233 hsl 128 15 0 127 0 0 empty empty thresh 7 7 0 10 -262144
-1 -1 1800 1;
#X obj 109 209 tgl 40 0 empty empty -gate 2 20 0 10 -262144 -1 -1 0
1;
#X obj 156 275 expr $f1 / 127 * 190 + 10;
#X connect 0 0 1 0;
#X connect 1 0 8 0;
#X connect 2 0 3 0;
#X connect 3 0 8 0;
#X connect 4 0 5 0;
#X connect 5 0 8 0;
#X connect 6 0 8 0;
#X connect 7 0 8 0;
#X connect 9 0 10 0;
#X connect 10 0 11 0;
#X connect 10 1 16 0;
#X connect 10 2 17 0;
#X connect 10 3 18 0;
#X connect 11 0 15 0;
#X connect 12 0 2 0;
#X connect 13 0 4 0;
#X connect 14 0 8 0;
#X connect 15 0 7 0;
#X connect 16 0 20 0;
#X connect 17 0 12 0;
#X connect 18 0 13 0;
#X connect 19 0 14 0;
#X connect 20 0 0 0;
#X coords 0 -1 1 1 200 105 2 100 150;
#X restore 1050 402 pd specter-ctrl;
#X obj 1175 57 inlet;
#X obj 1175 79 s \$0-to_bub_ctl;
#X obj 773 294 r \$0-to_bub_ctl;
#X obj 1298 55 inlet;
#X obj 1280 343 r \$0-to_spec_ctl;
#X obj 764 595 r \$0-feedback-ctrl;
#X obj 767 516 hsl 128 15 0 127 0 0 empty empty feedback 7 7 0 10 -262144
-1 -1 8700 1;
#X obj 534 526 / 127;
#X obj 541 375 specter~ 2048;
#X obj 455 398 /~ 1024;
#X obj 387 571 hip~ 5;
#X obj 387 470 cyclone/overdrive~ 1;
#X obj 1298 77 s \$0-to_spec_ctl;
#X connect 0 0 17 1;
#X connect 1 0 2 0;
#X connect 2 0 18 0;
#X connect 2 0 19 0;
#X connect 3 0 42 1;
#X connect 4 0 1 1;
#X connect 5 0 8 0;
#X connect 6 0 7 0;
#X connect 7 0 4 0;
#X connect 7 0 10 0;
#X connect 8 0 6 0;
#X connect 9 0 3 1;
#X connect 10 0 9 0;
#X connect 11 0 56 0;
#X connect 12 0 15 0;
#X connect 13 0 14 0;
#X connect 14 0 12 1;
#X connect 16 0 17 0;
#X connect 17 0 1 0;
#X connect 17 0 3 0;
#X connect 18 0 11 0;
#X connect 19 0 42 0;
#X connect 20 0 18 1;
#X connect 21 0 24 0;
#X connect 22 0 23 0;
#X connect 23 0 20 0;
#X connect 23 0 26 0;
#X connect 24 0 22 0;
#X connect 25 0 19 1;
#X connect 26 0 25 0;
#X connect 30 0 31 0;
#X connect 31 0 32 0;
#X connect 31 1 33 0;
#X connect 31 2 34 0;
#X connect 35 0 5 0;
#X connect 36 0 21 0;
#X connect 37 0 2 0;
#X connect 38 0 39 0;
#X connect 39 0 40 0;
#X connect 41 0 53 1;
#X connect 42 0 53 0;
#X connect 45 0 46 0;
#X connect 47 0 43 0;
#X connect 48 0 57 0;
#X connect 49 0 44 0;
#X connect 50 0 51 0;
#X connect 51 0 52 0;
#X connect 52 0 13 0;
#X connect 53 0 54 0;
#X connect 54 0 11 1;
#X connect 55 0 29 0;
#X connect 55 0 12 0;
#X connect 56 0 55 0;
#X coords 0 -1 1 1 512 190 1 750 350;
