#N canvas 0 23 1440 799 10;
#X obj 387 102 inlet~;
#X obj 387 206 *~;
#X obj 387 248 soundhack/+bubbler~;
#X obj 559 207 *~;
#X obj 541 375 specter~ 4096;
#X obj 481 159 cos~;
#X obj 1081 383 hsl 128 15 0 127 0 0 empty empty in_mix 7 7 0 10 -262144
-1 -1 0 1;
#X msg 481 111 \$1 100;
#X obj 481 133 line~;
#X obj 481 89 expr $f1 / 127 * 0.25;
#X obj 577 186 cos~;
#X obj 577 164 +~ 0.75;
#X obj 387 470 +~;
#X obj 269 503 *~;
#X floatatom 270 409 5 0 0 0 - - -, f 5;
#X msg 270 428 \$1 100;
#X obj 270 450 line~;
#X obj 269 525 s~ \$0-feedback;
#X obj 271 102 r~ \$0-feedback;
#X obj 271 124 +~;
#X obj 387 380 *~;
#X obj 405 297 *~;
#X obj 626 249 cos~;
#X obj 909 515 hsl 128 15 0 127 0 0 empty empty out_mix 7 7 0 10 -262144
-1 -1 0 1;
#X msg 673 201 \$1 100;
#X obj 673 223 line~;
#X obj 673 179 expr $f1 / 127 * 0.25;
#X obj 673 270 cos~;
#X obj 673 248 +~ 0.75;
#X text 1087 284 fx input crossfade;
#X text 523 419 fx output crossfade;
#X obj 387 492 outlet~;
#X obj 900 56 inlet;
#X obj 900 78 route feedback in_mix out_mix;
#X obj 900 100 s \$0-feedback-ctrl;
#X obj 966 125 s \$0-in_mix-ctrl;
#X obj 1033 152 s \$0-out_mix-ctrl;
#X obj 1093 312 r \$0-in_mix-ctrl;
#X obj 527 437 r \$0-out_mix-ctrl;
#X obj 427 207 r \$0-to_bubbler;
#X obj 42 68 loadbang;
#X obj 42 90 f \$0;
#X msg 42 134 \; \$1-to_bubbler feedback 0 \;;
#X obj 629 326 r \$0-to_specter;
#X obj 541 329 +~;
#N canvas 0 23 1440 799 bub-ctrl 0;
#X obj 246 127 hsl 128 15 0 127 0 0 empty empty jitter 4 7 0 10 -262144
-1 -1 0 1;
#X msg 98 478 timeVariation \$1 \, grainStartVariation \$1;
#X obj 98 436 expr $f1 / 127 * 100;
#X obj 98 610 s \$0-to_bubbler;
#X obj 107 127 hsl 128 15 0 127 0 0 empty empty time 4 7 0 10 -262144
-1 -1 0 1;
#X floatatom 397 458 10 0 0 0 - - -, f 10;
#X msg 397 477 time \$1;
#X obj 397 436 expr exp(log(10000) * $f1 / 127);
#X floatatom 629 458 10 0 0 0 - - -, f 10;
#X obj 107 150 hsl 128 15 0 127 0 0 empty empty ffreq 4 7 0 10 -262144
-1 -1 0 1;
#X msg 629 477 filterFreq \$1;
#X obj 629 436 expr exp(log(19981) * $f1 / 127) + 19;
#X obj 246 150 hsl 128 15 0 127 0 0 empty empty freso 4 7 0 10 -262144
-1 -1 0 1;
#X obj 900 435 expr $f1 / 127 * 100;
#X msg 900 457 resonance \$1;
#X obj 106 172 hsl 128 15 0 127 0 0 empty empty density 4 7 0 10 -262144
-1 -1 0 1;
#X obj 129 519 expr $f1 / 127 * 200;
#X msg 129 541 density \$1;
#X obj 246 172 hsl 128 15 0 127 0 0 empty empty grain_size 4 7 0 10
-262144 -1 -1 0 1;
#X obj 282 519 expr $f1 / 127 * 50;
#X msg 282 541 grainSize \$1;
#X msg 577 564 octave \$1;
#X msg 718 543 octaveVariation \$1;
#X obj 103 194 hradio 15 1 0 9 empty bub_initoct empty 0 -8 0 10 -262144
-1 -1 0;
#X obj 577 542 - 4;
#X obj 243 194 hradio 15 1 0 3 empty empty empty 0 -8 0 10 -262144
-1 -1 0;
#X text 290 193 octave + var;
#X obj 176 216 hsl 128 15 0 127 0 0 empty empty reverse 4 7 0 10 -262144
-1 -1 0 1;
#X obj 897 544 expr $f1 / 127 * 100;
#X msg 897 566 grainReversal \$1`;
#X obj 441 41 inlet;
#X obj 441 63 route time jitter ffreq freso density grain_size octave
oct_var reverse, f 72;
#X floatatom 775 161 5 0 0 0 - - -, f 5;
#X floatatom 830 196 5 0 0 0 - - -, f 5;
#X obj 775 139 expr round($f1 / 127 * 8);
#X obj 830 174 expr round($f1 / 127 * 2);
#X connect 0 0 2 0;
#X connect 1 0 3 0;
#X connect 2 0 1 0;
#X connect 4 0 7 0;
#X connect 5 0 6 0;
#X connect 6 0 3 0;
#X connect 7 0 5 0;
#X connect 8 0 10 0;
#X connect 9 0 11 0;
#X connect 10 0 3 0;
#X connect 11 0 8 0;
#X connect 12 0 13 0;
#X connect 13 0 14 0;
#X connect 14 0 3 0;
#X connect 15 0 16 0;
#X connect 16 0 17 0;
#X connect 17 0 3 0;
#X connect 18 0 19 0;
#X connect 19 0 20 0;
#X connect 20 0 3 0;
#X connect 21 0 3 0;
#X connect 22 0 3 0;
#X connect 23 0 24 0;
#X connect 24 0 21 0;
#X connect 25 0 22 0;
#X connect 27 0 28 0;
#X connect 28 0 29 0;
#X connect 29 0 3 0;
#X connect 30 0 31 0;
#X connect 31 0 4 0;
#X connect 31 1 0 0;
#X connect 31 2 9 0;
#X connect 31 3 12 0;
#X connect 31 4 15 0;
#X connect 31 5 18 0;
#X connect 31 6 34 0;
#X connect 31 7 35 0;
#X connect 31 8 27 0;
#X connect 32 0 23 0;
#X connect 33 0 25 0;
#X connect 34 0 32 0;
#X connect 35 0 33 0;
#X coords 0 -1 1 1 280 120 2 100 120;
#X restore 762 377 pd bub-ctrl;
#N canvas 0 23 915 636 specter-ctrl 0;
#X floatatom 156 303 5 0 0 0 - - -, f 5;
#X msg 156 322 smooth \$1;
#X floatatom 237 302 5 0 0 0 - - -, f 5;
#X msg 237 321 noise \$1;
#X floatatom 367 350 5 0 0 0 - - -, f 5;
#X msg 367 369 thresh \$1;
#X floatatom 448 350 5 0 0 0 - - -, f 5;
#X msg 448 369 delta \$1;
#X obj 109 160 tgl 40 0 empty empty freeze 2 20 0 10 -262144 -1 -1
0 1;
#X msg 105 368 freeze \$1;
#X obj 105 432 s \$0-to_specter;
#X obj 157 73 inlet;
#X obj 157 95 route freeze smooth noise thresh delta;
#X obj 105 132 > 64;
#X obj 163 158 hsl 128 15 0 127 0 0 empty empty smooth 7 7 0 10 -262144
-1 -1 0 1;
#X obj 156 275 expr $f1 / 127 * 490 + 10;
#X obj 163 214 hsl 128 15 0 127 0 0 empty empty noise 7 7 0 10 -262144
-1 -1 0 1;
#X obj 353 274 expr $f1 / 127;
#X obj 163 186 hsl 128 15 0 127 0 0 empty empty thresh 7 7 0 10 -262144
-1 -1 0 1;
#X obj 367 310 expr $f1 / 127 * 2;
#X obj 163 242 hsl 128 15 0 127 0 0 empty empty delta 7 7 0 10 -262144
-1 -1 0 1;
#X obj 517 311 expr $f1 / 127;
#X connect 0 0 1 0;
#X connect 1 0 10 0;
#X connect 2 0 3 0;
#X connect 3 0 10 0;
#X connect 4 0 5 0;
#X connect 5 0 10 0;
#X connect 6 0 7 0;
#X connect 7 0 10 0;
#X connect 8 0 9 0;
#X connect 9 0 10 0;
#X connect 11 0 12 0;
#X connect 12 0 13 0;
#X connect 12 1 14 0;
#X connect 12 2 16 0;
#X connect 12 3 18 0;
#X connect 12 4 20 0;
#X connect 13 0 8 0;
#X connect 14 0 15 0;
#X connect 15 0 0 0;
#X connect 16 0 17 0;
#X connect 17 0 2 0;
#X connect 18 0 19 0;
#X connect 19 0 4 0;
#X connect 20 0 21 0;
#X connect 21 0 6 0;
#X coords 0 -1 1 1 200 120 2 100 150;
#X restore 1050 409 pd specter-ctrl;
#X obj 1175 57 inlet;
#X obj 1175 79 s \$0-to_bub_ctl;
#X obj 773 294 r \$0-to_bub_ctl;
#X obj 1298 55 inlet;
#X obj 1298 77 r \$0-to_spec_ctl;
#X obj 1280 343 r \$0-to_spec_ctl;
#X obj 528 474 r \$0-feedback-ctrl;
#X obj 767 516 hsl 128 15 0 127 0 0 empty empty feedback 7 7 0 10 -262144
-1 -1 0 1;
#X obj 534 526 / 127;
#X connect 0 0 19 1;
#X connect 1 0 2 0;
#X connect 2 0 20 0;
#X connect 2 0 21 0;
#X connect 3 0 44 1;
#X connect 4 0 12 1;
#X connect 5 0 1 1;
#X connect 6 0 9 0;
#X connect 7 0 8 0;
#X connect 8 0 5 0;
#X connect 8 0 11 0;
#X connect 9 0 7 0;
#X connect 10 0 3 1;
#X connect 11 0 10 0;
#X connect 12 0 13 0;
#X connect 12 0 31 0;
#X connect 13 0 17 0;
#X connect 14 0 15 0;
#X connect 15 0 16 0;
#X connect 16 0 13 1;
#X connect 18 0 19 0;
#X connect 19 0 1 0;
#X connect 19 0 3 0;
#X connect 20 0 12 0;
#X connect 21 0 44 0;
#X connect 22 0 20 1;
#X connect 23 0 26 0;
#X connect 24 0 25 0;
#X connect 25 0 22 0;
#X connect 25 0 28 0;
#X connect 26 0 24 0;
#X connect 27 0 21 1;
#X connect 28 0 27 0;
#X connect 32 0 33 0;
#X connect 33 0 34 0;
#X connect 33 1 35 0;
#X connect 33 2 36 0;
#X connect 37 0 6 0;
#X connect 38 0 23 0;
#X connect 39 0 2 0;
#X connect 40 0 41 0;
#X connect 41 0 42 0;
#X connect 43 0 4 1;
#X connect 44 0 4 0;
#X connect 47 0 48 0;
#X connect 49 0 45 0;
#X connect 52 0 46 0;
#X connect 53 0 54 0;
#X connect 54 0 55 0;
#X connect 55 0 14 0;
#X coords 0 -1 1 1 512 190 1 750 350;
