#N canvas 481 73 890 749 10;
#X declare -lib ofelia;
#X obj 419 28 declare -lib ofelia;
#X obj 69 428 pack 0 0;
#X obj 69 449 list prepend lineTo;
#X obj 69 470 list prepend add;
#X obj 69 491 list trim;
#X obj 556 106 ofGetLastRenderOrder;
#X obj 523 127 ofHead;
#X obj 69 315 cyclone/listfunnel;
#X obj 69 336 unpack 0 0;
#X obj 69 357 t f b;
#X obj 69 405 ofExpr $i1 / $i2 * ofGetWidth;
#X obj 69 297 array get \$1;
#X obj 96 379 array size \$1;
#X obj 69 52 loadbang;
#X obj 214 142 s \$0-width;
#X obj 290 144 s \$0-height;
#X obj 214 121 f \$4;
#X obj 256 121 f \$5;
#X obj 69 584 ofLoadPolyline2d \; @testline \; moveTo \$2 \$3 \;;
#X obj 88 124 f \$2;
#X obj 138 127 f \$3;
#X obj 88 145 s \$0-x;
#X obj 138 148 s \$0-y;
#X obj 178 508 v \$0-x;
#X obj 236 510 v \$0-y;
#X obj 69 237 t b b b;
#X obj 178 484 t b b;
#X msg 257 474 clear;
#X obj 178 529 pack 0 0;
#X msg 178 550 load moveTo \$1 \$2;
#X obj 69 73 t b b b b b b;
#X obj 412 384 v \$0-height;
#X obj 271 411 expr $f1 * $f2 + $f2 / 2;
#X obj 271 351 t f b;
#X obj 523 369 ofDrawPolyline2d @testline;
#X obj 523 314 t b b b;
#X obj 599 341 v \$0-width;
#X obj 676 341 v \$0-height;
#X obj 315 30 inlet;
#X obj 315 51 route setbuf mousemode;
#X obj 315 77 symbol;
#X obj 315 98 s \$0-setbuf;
#X obj 132 179 r \$0-setbuf;
#X obj 132 200 t b s s;
#X obj 69 648 ofLoadPolyline2d \; @bound-box \; moveTo \$2 \$3 \;;
#N canvas 0 22 570 368 bg-box 0;
#X obj 144 153 ofTranslate;
#X obj 144 123 t b b b;
#X obj 205 133 v \$0-x;
#X obj 265 134 v \$0-y;
#X obj 145 244 ofRectangle;
#X obj 145 176 t b b b;
#X obj 176 211 v \$0-width;
#X obj 253 211 v \$0-height;
#X obj 139 37 inlet;
#X obj 145 265 outlet;
#X connect 0 0 5 0;
#X connect 1 0 0 0;
#X connect 1 1 2 0;
#X connect 1 2 3 0;
#X connect 2 0 0 1;
#X connect 3 0 0 2;
#X connect 4 0 9 0;
#X connect 5 0 4 0;
#X connect 5 1 6 0;
#X connect 5 2 7 0;
#X connect 6 0 4 1;
#X connect 7 0 4 2;
#X connect 8 0 1 0;
#X restore 523 238 pd bg-box;
#X obj 523 290 ofDrawPolyline2d @bound-box;
#X obj 34 187 bng 15 250 50 0 empty empty empty 17 7 0 10 -262144 -1
-1;
#N canvas 0 22 731 300 draw-bound-box 0;
#X obj 260 129 v \$0-x;
#X obj 318 129 v \$0-y;
#X msg 492 184 clear;
#X obj 260 163 pack 0 0;
#X msg 261 184 load moveTo \$1 \$2;
#X obj 229 21 inlet;
#X obj 229 81 t b b b b b;
#X obj 163 257 outlet;
#X obj 62 129 v \$0-width;
#X obj 62 163 pack 0 0;
#X obj 138 129 v \$0-height;
#X msg 62 184 load rectangle \$1 \$2;
#X connect 0 0 3 0;
#X connect 1 0 3 1;
#X connect 2 0 7 0;
#X connect 3 0 4 0;
#X connect 4 0 7 0;
#X connect 5 0 6 0;
#X connect 6 0 8 0;
#X connect 6 1 10 0;
#X connect 6 2 0 0;
#X connect 6 3 1 0;
#X connect 6 4 2 0;
#X connect 8 0 9 0;
#X connect 9 0 11 0;
#X connect 10 0 9 1;
#X connect 11 0 7 0;
#X restore 69 627 pd draw-bound-box;
#N canvas 338 237 968 567 mouser 1;
#X obj 445 40 ofMouseListener;
#X obj 552 80 list split 1;
#X obj 445 150 spigot;
#X obj 488 150 spigot;
#X obj 532 150 spigot;
#X text 610 137 only output mouse if in window;
#X obj 586 110 ofIsPointInsidePolyline2d @bound-box;
#X obj 488 233 route 1;
#X obj 488 284 unpack 0 0;
#X obj 232 312 ofTranslate;
#X obj 88 391 ofCircle 10;
#X obj 88 28 inlet;
#X obj 488 535 outlet;
#X obj 488 445 t f b;
#X obj 515 472 v \$0-width;
#X obj 488 506 /;
#X obj 601 446 t f b;
#X obj 601 507 /;
#X obj 628 473 v \$0-height;
#X obj 88 131 ofSetColor red 200;
#X obj 232 391 ofRectangle;
#N canvas 0 22 450 300 drag-rect 0;
#X obj 39 33 inlet;
#X obj 189 33 inlet;
#X obj 39 114 route 1;
#X obj 189 114 route 1;
#X obj 39 135 unpack 0 0;
#X obj 189 135 unpack 0 0;
#X obj 39 188 min;
#X obj 164 208 -;
#X obj 213 206 -;
#X obj 164 229 abs;
#X obj 213 227 abs;
#X obj 39 209 outlet;
#X obj 96 188 min;
#X obj 96 209 outlet;
#X obj 164 250 outlet;
#X obj 213 248 outlet;
#X obj 314 29 inlet;
#X obj 39 54 spigot 0;
#X obj 189 54 spigot 0;
#X connect 0 0 17 0;
#X connect 1 0 18 0;
#X connect 2 0 4 0;
#X connect 3 0 5 0;
#X connect 4 0 6 1;
#X connect 4 0 7 1;
#X connect 4 1 8 1;
#X connect 4 1 12 1;
#X connect 5 0 6 0;
#X connect 5 0 7 0;
#X connect 5 1 8 0;
#X connect 5 1 12 0;
#X connect 6 0 11 0;
#X connect 7 0 9 0;
#X connect 8 0 10 0;
#X connect 9 0 14 0;
#X connect 10 0 15 0;
#X connect 12 0 13 0;
#X connect 16 0 18 1;
#X connect 16 0 17 1;
#X connect 17 0 2 0;
#X connect 18 0 3 0;
#X restore 253 243 pd drag-rect;
#X obj 88 222 spigot 1;
#X obj 88 373 ofTranslate;
#X obj 187 220 spigot 0;
#X obj 232 132 r \$0-mousemode;
#X obj 171 167 == 0;
#X obj 601 537 outlet;
#X obj 488 254 spigot 1;
#X obj 591 189 r \$0-mousemode;
#X obj 591 210 == 0;
#X obj 709 536 outlet;
#X obj 709 446 t f b;
#X obj 736 473 v \$0-width;
#X obj 709 507 /;
#X obj 822 447 t f b;
#X obj 822 508 /;
#X obj 849 474 v \$0-height;
#X obj 822 538 outlet;
#X connect 0 0 1 0;
#X connect 0 0 2 0;
#X connect 0 1 1 0;
#X connect 0 1 3 0;
#X connect 0 2 1 0;
#X connect 0 2 4 0;
#X connect 1 1 6 0;
#X connect 2 0 21 0;
#X connect 3 0 7 0;
#X connect 3 0 21 1;
#X connect 6 0 2 1;
#X connect 6 0 3 1;
#X connect 6 0 4 1;
#X connect 7 0 28 0;
#X connect 8 0 13 0;
#X connect 8 0 23 1;
#X connect 8 1 16 0;
#X connect 8 1 23 2;
#X connect 9 0 20 0;
#X connect 11 0 19 0;
#X connect 13 0 15 0;
#X connect 13 1 14 0;
#X connect 14 0 15 1;
#X connect 15 0 12 0;
#X connect 16 0 17 0;
#X connect 16 1 18 0;
#X connect 17 0 27 0;
#X connect 18 0 17 1;
#X connect 19 0 22 0;
#X connect 19 0 24 0;
#X connect 21 0 9 1;
#X connect 21 0 13 0;
#X connect 21 1 9 2;
#X connect 21 1 16 0;
#X connect 21 2 20 1;
#X connect 21 2 32 0;
#X connect 21 3 20 2;
#X connect 21 3 35 0;
#X connect 22 0 23 0;
#X connect 23 0 10 0;
#X connect 24 0 9 0;
#X connect 25 0 24 1;
#X connect 25 0 26 0;
#X connect 25 0 21 2;
#X connect 26 0 22 1;
#X connect 28 0 8 0;
#X connect 29 0 30 0;
#X connect 30 0 28 1;
#X connect 32 0 34 0;
#X connect 32 1 33 0;
#X connect 33 0 34 1;
#X connect 34 0 31 0;
#X connect 35 0 36 0;
#X connect 35 1 37 0;
#X connect 36 0 38 0;
#X connect 37 0 36 1;
#X restore 523 395 pd mouser;
#X obj 523 425 outlet;
#X obj 523 148 ofSetBlendMode 1;
#X obj 523 198 ofSetColor lavender;
#X obj 523 269 ofSetColor darkBlue;
#X obj 401 78 s \$0-mousemode;
#X obj 568 425 outlet;
#X obj 617 425 outlet;
#X obj 662 425 outlet;
#X connect 1 0 2 0;
#X connect 2 0 3 0;
#X connect 3 0 4 0;
#X connect 4 0 18 0;
#X connect 5 0 6 1;
#X connect 6 0 51 0;
#X connect 7 0 8 0;
#X connect 8 0 9 0;
#X connect 8 1 33 0;
#X connect 9 0 10 0;
#X connect 9 1 12 0;
#X connect 10 0 1 0;
#X connect 11 0 7 0;
#X connect 12 0 10 1;
#X connect 13 0 30 0;
#X connect 16 0 14 0;
#X connect 17 0 15 0;
#X connect 18 0 48 0;
#X connect 19 0 21 0;
#X connect 20 0 22 0;
#X connect 23 0 28 0;
#X connect 24 0 28 1;
#X connect 25 0 11 0;
#X connect 25 1 26 0;
#X connect 25 2 27 0;
#X connect 26 0 23 0;
#X connect 26 1 24 0;
#X connect 27 0 18 0;
#X connect 28 0 29 0;
#X connect 29 0 18 0;
#X connect 30 0 25 0;
#X connect 30 1 17 0;
#X connect 30 2 16 0;
#X connect 30 3 20 0;
#X connect 30 4 19 0;
#X connect 30 5 5 0;
#X connect 31 0 32 1;
#X connect 32 0 1 1;
#X connect 33 0 32 0;
#X connect 33 1 31 0;
#X connect 34 0 49 0;
#X connect 35 0 34 0;
#X connect 35 1 36 0;
#X connect 35 2 37 0;
#X connect 36 0 34 1;
#X connect 37 0 34 2;
#X connect 38 0 39 0;
#X connect 39 0 40 0;
#X connect 39 1 54 0;
#X connect 40 0 41 0;
#X connect 42 0 43 0;
#X connect 43 0 25 0;
#X connect 43 1 11 2;
#X connect 43 2 12 1;
#X connect 45 0 53 0;
#X connect 46 0 35 0;
#X connect 47 0 25 0;
#X connect 48 0 44 0;
#X connect 49 0 50 0;
#X connect 49 1 55 0;
#X connect 49 2 56 0;
#X connect 49 3 57 0;
#X connect 51 0 52 0;
#X connect 52 0 45 0;
#X connect 53 0 46 0;
