#N canvas 481 73 890 749 10;
#X declare -lib ofelia;
#X obj 419 28 declare -lib ofelia;
#X obj 69 428 pack 0 0;
#X obj 69 449 list prepend lineTo;
#X obj 69 470 list prepend add;
#X obj 69 491 list trim;
#X obj 556 106 ofGetLastRenderOrder;
#X obj 523 127 ofHead;
#X obj 69 315 cyclone/listfunnel;
#X obj 69 336 unpack 0 0;
#X obj 69 357 t f b;
#X obj 69 405 ofExpr $i1 / $i2 * ofGetWidth;
#X obj 69 297 array get \$1;
#X obj 96 379 array size \$1;
#X obj 69 52 loadbang;
#X obj 214 142 s \$0-width;
#X obj 290 144 s \$0-height;
#X obj 214 121 f \$4;
#X obj 256 121 f \$5;
#X obj 69 584 ofLoadPolyline2d \; @testline \; moveTo \$2 \$3 \;;
#X obj 88 124 f \$2;
#X obj 138 127 f \$3;
#X obj 88 145 s \$0-x;
#X obj 138 148 s \$0-y;
#X obj 178 508 v \$0-x;
#X obj 236 510 v \$0-y;
#X obj 69 237 t b b b;
#X obj 178 484 t b b;
#X msg 257 474 clear;
#X obj 178 529 pack 0 0;
#X msg 178 550 load moveTo \$1 \$2;
#X obj 69 73 t b b b b b b;
#X obj 412 384 v \$0-height;
#X obj 271 411 expr $f1 * $f2 + $f2 / 2;
#X obj 271 351 t f b;
#X obj 523 369 ofDrawPolyline2d @testline;
#X obj 523 314 t b b b;
#X obj 599 341 v \$0-width;
#X obj 676 341 v \$0-height;
#X obj 315 30 inlet;
#X obj 315 51 route setbuf mousemode;
#X obj 315 77 symbol;
#X obj 315 98 s \$0-setbuf;
#X obj 132 179 r \$0-setbuf;
#X obj 132 200 t b s s;
#X obj 69 648 ofLoadPolyline2d \; @bound-box \; moveTo \$2 \$3 \;;
#N canvas 0 22 570 368 bg-box 0;
#X obj 144 153 ofTranslate;
#X obj 144 123 t b b b;
#X obj 205 133 v \$0-x;
#X obj 265 134 v \$0-y;
#X obj 145 244 ofRectangle;
#X obj 145 176 t b b b;
#X obj 176 211 v \$0-width;
#X obj 253 211 v \$0-height;
#X obj 139 37 inlet;
#X obj 145 265 outlet;
#X connect 0 0 5 0;
#X connect 1 0 0 0;
#X connect 1 1 2 0;
#X connect 1 2 3 0;
#X connect 2 0 0 1;
#X connect 3 0 0 2;
#X connect 4 0 9 0;
#X connect 5 0 4 0;
#X connect 5 1 6 0;
#X connect 5 2 7 0;
#X connect 6 0 4 1;
#X connect 7 0 4 2;
#X connect 8 0 1 0;
#X restore 523 238 pd bg-box;
#X obj 523 290 ofDrawPolyline2d @bound-box;
#X obj 34 187 bng 15 250 50 0 empty empty empty 17 7 0 10 -262144 -1
-1;
#N canvas 0 22 731 300 draw-bound-box 0;
#X obj 260 129 v \$0-x;
#X obj 318 129 v \$0-y;
#X msg 492 184 clear;
#X obj 260 163 pack 0 0;
#X msg 261 184 load moveTo \$1 \$2;
#X obj 229 21 inlet;
#X obj 229 81 t b b b b b;
#X obj 163 257 outlet;
#X obj 62 129 v \$0-width;
#X obj 62 163 pack 0 0;
#X obj 138 129 v \$0-height;
#X msg 62 184 load rectangle \$1 \$2;
#X connect 0 0 3 0;
#X connect 1 0 3 1;
#X connect 2 0 7 0;
#X connect 3 0 4 0;
#X connect 4 0 7 0;
#X connect 5 0 6 0;
#X connect 6 0 8 0;
#X connect 6 1 10 0;
#X connect 6 2 0 0;
#X connect 6 3 1 0;
#X connect 6 4 2 0;
#X connect 8 0 9 0;
#X connect 9 0 11 0;
#X connect 10 0 9 1;
#X connect 11 0 7 0;
#X restore 69 627 pd draw-bound-box;
#N canvas 338 237 968 567 mouser 1;
#X obj 445 40 ofMouseListener;
#X obj 552 80 list split 1;
#X obj 445 150 spigot;
#X obj 488 150 spigot;
#X obj 532 150 spigot;
#X text 610 137 only output mouse if in window;
#X obj 586 110 ofIsPointInsidePolyline2d @bound-box;
#X obj 488 233 route 1;
#X obj 488 284 unpack 0 0;
#X obj 88 466 ofCircle 10;
#X obj 88 28 inlet;
#X obj 238 511 outlet;
#X obj 238 421 t f b;
#X obj 265 448 v \$0-width;
#X obj 238 482 /;
#X obj 351 422 t f b;
#X obj 351 483 /;
#X obj 378 449 v \$0-height;
#N canvas 578 22 696 743 drag-rect 0;
#X obj 203 73 inlet;
#X obj 353 73 inlet;
#X obj 203 344 route 1;
#X obj 353 345 route 1;
#X obj 203 365 unpack 0 0;
#X obj 353 366 unpack 0 0;
#X obj 338 438 min;
#X obj 263 485 -;
#X obj 263 506 abs;
#X obj 338 480 outlet;
#X obj 447 479 outlet;
#X obj 478 69 inlet;
#X obj 203 324 spigot 0;
#X obj 353 324 spigot 0;
#X obj 106 554 ofTranslate;
#X obj 106 633 ofRectangle;
#X obj 189 606 v \$0-height;
#X obj 203 480 t f b;
#X obj 230 504 f 0;
#X obj 106 74 inlet;
#X obj 106 325 spigot 0;
#X obj 137 602 f;
#X obj 106 575 t b b b;
#X obj 447 437 max;
#X text 335 505 selection left;
#X text 448 506 selection right;
#X obj 230 124 r \$0-pointer-selected;
#X obj 230 145 == 0;
#X obj 202 188 spigot 1;
#X obj 353 186 spigot 1;
#X connect 0 0 28 0;
#X connect 1 0 29 0;
#X connect 2 0 4 0;
#X connect 3 0 5 0;
#X connect 4 0 6 1;
#X connect 4 0 7 1;
#X connect 4 0 23 1;
#X connect 5 0 6 0;
#X connect 5 0 7 0;
#X connect 5 0 23 0;
#X connect 6 0 9 0;
#X connect 6 0 17 0;
#X connect 7 0 8 0;
#X connect 8 0 21 1;
#X connect 11 0 13 1;
#X connect 11 0 12 1;
#X connect 11 0 20 1;
#X connect 12 0 2 0;
#X connect 13 0 3 0;
#X connect 14 0 22 0;
#X connect 16 0 15 2;
#X connect 17 0 14 1;
#X connect 17 1 18 0;
#X connect 18 0 14 2;
#X connect 19 0 20 0;
#X connect 20 0 14 0;
#X connect 21 0 15 1;
#X connect 22 0 15 0;
#X connect 22 1 21 0;
#X connect 22 2 16 0;
#X connect 23 0 10 0;
#X connect 26 0 27 0;
#X connect 27 0 28 1;
#X connect 27 0 29 1;
#X connect 28 0 12 0;
#X connect 29 0 13 0;
#X restore 253 243 pd drag-rect;
#X obj 88 222 spigot 1;
#X obj 88 373 ofTranslate;
#X obj 322 123 r \$0-mousemode;
#X obj 171 167 == 0;
#X obj 351 513 outlet;
#X obj 488 254 spigot 1;
#X obj 591 189 r \$0-mousemode;
#X obj 591 210 == 0;
#X obj 459 512 outlet;
#X obj 459 422 t f b;
#X obj 486 449 v \$0-width;
#X obj 459 483 /;
#X obj 572 423 t f b;
#X obj 572 484 /;
#X obj 572 514 outlet;
#X obj 88 394 t b b;
#X obj 148 419 v \$0-height;
#X obj 148 440 / 20;
#X obj 88 131 ofSetColor magenta 150;
#X obj 599 450 v \$0-width;
#N canvas 571 153 692 696 pointer-rect 1;
#X obj 129 29 ofMouseListener;
#X obj 97 67 route 1;
#X obj 321 227 list prepend assignPos;
#X obj 321 248 list trim;
#X obj 321 269 ofEditRect @pointer[0];
#X obj 97 88 ofIsPointInsideRect @pointer[0];
#X obj 321 183 spigot 0;
#X obj 97 194 s \$0-pointer-selected;
#X obj 122 114 sel 1;
#X obj 122 135 f 0;
#X obj 97 159 f;
#X obj 98 369 ofSetColor cyan 200;
#X obj 124 436 unpack 0 0 0 0;
#X obj 98 458 ofTranslate;
#X obj 321 290 ofGetRect @pointer[0];
#X obj 173 319 ofGetLastRenderOrder;
#X obj 98 491 ofRect;
#X obj 98 390 t b b;
#X obj 124 411 ofGetRect @pointer[0];
#X obj 98 239 ofLoadRect @pointer 0 0 20 20;
#X obj 98 270 r \$0-mousemode;
#X obj 366 123 ofIsPointInsidePolyline2d @bound-box;
#X obj 321 155 spigot 0;
#X obj 321 90 route 1;
#X obj 321 111 t l l;
#X obj 488 221 unpack 0 0;
#X obj 488 242 t f b;
#X obj 488 293 /;
#X obj 503 268 v \$0-width;
#X obj 488 314 outlet;
#X obj 569 243 t f b;
#X obj 569 294 /;
#X obj 569 315 outlet;
#X obj 584 269 v \$0-height;
#X obj 98 343 ofHead 50 OFF;
#X obj 173 295 loadbang;
#X connect 0 0 1 0;
#X connect 0 1 23 0;
#X connect 0 2 8 0;
#X connect 1 0 5 0;
#X connect 2 0 3 0;
#X connect 3 0 4 0;
#X connect 4 0 14 0;
#X connect 5 0 10 0;
#X connect 6 0 2 0;
#X connect 6 0 25 0;
#X connect 8 0 9 0;
#X connect 9 0 10 0;
#X connect 10 0 7 0;
#X connect 10 0 6 1;
#X connect 11 0 17 0;
#X connect 12 0 13 1;
#X connect 12 1 13 2;
#X connect 12 2 16 1;
#X connect 12 3 16 2;
#X connect 13 0 16 0;
#X connect 15 0 34 1;
#X connect 17 0 13 0;
#X connect 17 1 18 0;
#X connect 18 0 12 0;
#X connect 20 0 34 0;
#X connect 21 0 22 1;
#X connect 22 0 6 0;
#X connect 23 0 24 0;
#X connect 24 0 22 0;
#X connect 24 1 21 0;
#X connect 25 0 26 0;
#X connect 25 1 30 0;
#X connect 26 0 27 0;
#X connect 26 1 28 0;
#X connect 27 0 29 0;
#X connect 28 0 27 1;
#X connect 30 0 31 0;
#X connect 30 1 33 0;
#X connect 31 0 32 0;
#X connect 33 0 31 1;
#X connect 34 0 11 0;
#X connect 35 0 15 0;
#X restore 698 315 pd pointer-rect;
#X connect 0 0 1 0;
#X connect 0 0 2 0;
#X connect 0 1 1 0;
#X connect 0 1 3 0;
#X connect 0 2 1 0;
#X connect 0 2 4 0;
#X connect 1 1 6 0;
#X connect 2 0 18 1;
#X connect 3 0 7 0;
#X connect 3 0 18 2;
#X connect 6 0 2 1;
#X connect 6 0 3 1;
#X connect 6 0 4 1;
#X connect 7 0 24 0;
#X connect 8 0 12 0;
#X connect 8 0 20 1;
#X connect 8 1 15 0;
#X connect 8 1 20 2;
#X connect 10 0 37 0;
#X connect 12 0 14 0;
#X connect 12 1 13 0;
#X connect 13 0 14 1;
#X connect 14 0 11 0;
#X connect 15 0 16 0;
#X connect 15 1 17 0;
#X connect 16 0 23 0;
#X connect 17 0 16 1;
#X connect 18 0 28 0;
#X connect 18 1 31 0;
#X connect 19 0 20 0;
#X connect 20 0 34 0;
#X connect 21 0 22 0;
#X connect 21 0 18 3;
#X connect 22 0 19 1;
#X connect 24 0 8 0;
#X connect 25 0 26 0;
#X connect 26 0 24 1;
#X connect 28 0 30 0;
#X connect 28 1 29 0;
#X connect 29 0 30 1;
#X connect 30 0 27 0;
#X connect 31 0 32 0;
#X connect 31 1 38 0;
#X connect 32 0 33 0;
#X connect 34 0 9 0;
#X connect 34 1 35 0;
#X connect 35 0 36 0;
#X connect 36 0 9 1;
#X connect 37 0 19 0;
#X connect 37 0 18 0;
#X connect 38 0 32 1;
#X restore 523 395 pd mouser;
#X obj 523 425 outlet;
#X obj 523 148 ofSetBlendMode 1;
#X obj 401 78 s \$0-mousemode;
#X obj 568 425 outlet;
#X obj 617 425 outlet;
#X obj 662 425 outlet;
#X obj 523 269 ofSetColor dimGray;
#X obj 523 198 ofSetColor ghostWhite;
#X connect 1 0 2 0;
#X connect 2 0 3 0;
#X connect 3 0 4 0;
#X connect 4 0 18 0;
#X connect 5 0 6 1;
#X connect 6 0 51 0;
#X connect 7 0 8 0;
#X connect 8 0 9 0;
#X connect 8 1 33 0;
#X connect 9 0 10 0;
#X connect 9 1 12 0;
#X connect 10 0 1 0;
#X connect 11 0 7 0;
#X connect 12 0 10 1;
#X connect 13 0 30 0;
#X connect 16 0 14 0;
#X connect 17 0 15 0;
#X connect 18 0 48 0;
#X connect 19 0 21 0;
#X connect 20 0 22 0;
#X connect 23 0 28 0;
#X connect 24 0 28 1;
#X connect 25 0 11 0;
#X connect 25 1 26 0;
#X connect 25 2 27 0;
#X connect 26 0 23 0;
#X connect 26 1 24 0;
#X connect 27 0 18 0;
#X connect 28 0 29 0;
#X connect 29 0 18 0;
#X connect 30 0 25 0;
#X connect 30 1 17 0;
#X connect 30 2 16 0;
#X connect 30 3 20 0;
#X connect 30 4 19 0;
#X connect 30 5 5 0;
#X connect 31 0 32 1;
#X connect 32 0 1 1;
#X connect 33 0 32 0;
#X connect 33 1 31 0;
#X connect 34 0 49 0;
#X connect 35 0 34 0;
#X connect 35 1 36 0;
#X connect 35 2 37 0;
#X connect 36 0 34 1;
#X connect 37 0 34 2;
#X connect 38 0 39 0;
#X connect 39 0 40 0;
#X connect 39 1 52 0;
#X connect 40 0 41 0;
#X connect 42 0 43 0;
#X connect 43 0 25 0;
#X connect 43 1 11 2;
#X connect 43 2 12 1;
#X connect 45 0 56 0;
#X connect 46 0 35 0;
#X connect 47 0 25 0;
#X connect 48 0 44 0;
#X connect 49 0 50 0;
#X connect 49 1 53 0;
#X connect 49 2 54 0;
#X connect 49 3 55 0;
#X connect 51 0 57 0;
#X connect 56 0 46 0;
#X connect 57 0 45 0;
