#N canvas 746 201 690 521 10;
#X declare -lib ofelia;
#X obj 311 15 array define testbuf;
#X msg 311 42 read -resize ../sound/bell.aiff testbuf;
#X obj 311 63 soundfiler;
#X obj 86 29 loadbang;
#X msg 310 135 destroy \, create;
#X obj 311 88 ofHead;
#X obj 311 109 ofClear lightGrey;
#X floatatom 86 216 5 0 0 0 - - -, f 5;
#X floatatom 150 238 5 0 0 0 - - -, f 5;
#X floatatom 209 218 5 0 0 0 - - -, f 5;
#X floatatom 268 219 5 0 0 0 - - -, f 5;
#X obj 196 120 tgl 15 0 empty empty empty 17 7 0 10 -262144 -1 -1 1
1;
#X msg 196 140 mousemode \$1;
#X text 216 119 scrub/box;
#X obj 310 314 declare -lib ofelia;
#X obj 86 50 t b b;
#X msg 86 71 setbuf testbuf;
#X text 203 239 selection left (mouse mode 1);
#X text 309 216 selection right (mouse mode 1);
#X text 23 242 x (mouse mode 0);
#X text 136 267 y (mouse mode 0);
#X obj 310 164 ofWindow 512 360 LEFT TOP;
#X obj 86 184 ofWaveform~ testbuf 2 2 512 180;
#X msg 196 96 0;
#X obj 196 75 loadbang;
#X connect 1 0 2 0;
#X connect 3 0 15 0;
#X connect 4 0 21 0;
#X connect 5 0 6 0;
#X connect 11 0 12 0;
#X connect 12 0 22 0;
#X connect 15 0 16 0;
#X connect 15 1 1 0;
#X connect 16 0 22 0;
#X connect 22 0 7 0;
#X connect 22 1 8 0;
#X connect 22 2 9 0;
#X connect 22 3 10 0;
#X connect 23 0 11 0;
#X connect 24 0 23 0;
