#N canvas 567 23 524 300 10;
#X obj 37 188 soundfiler;
#X obj 37 37 inlet;
#X obj 37 139 pack s s;
#X obj 56 111 symbol \$1;
#X msg 37 168 read -resize \$1 \$2;
#X obj 37 58 t a b b;
#X msg 227 236 dsp \$1;
#X obj 227 257 s pd;
#X obj 227 120 f 0;
#X obj 94 209 t a b;
#X obj 94 260 outlet;
#X obj 148 235 f 1;
#X text 303 109 arguments \; \$1: target array name;
#X obj 37 261 outlet;
#X text 145 36 a [soundfiler] that \, when it gets the path of a file
to read \, switches off dsp \, then when the file is finished loading
switches it back on \; hopefully can be used inside [pd~] to load samples
on the fly without causing audio dropouts;
#X connect 0 0 13 0;
#X connect 0 1 9 0;
#X connect 1 0 5 0;
#X connect 2 0 4 0;
#X connect 3 0 2 1;
#X connect 4 0 0 0;
#X connect 5 0 2 0;
#X connect 5 1 3 0;
#X connect 5 2 8 0;
#X connect 6 0 7 0;
#X connect 8 0 6 0;
#X connect 9 0 10 0;
#X connect 9 1 11 0;
#X connect 11 0 6 0;
