#N canvas 0 22 1440 852 12;
#X floatatom 443 59 0 0 0 0 - - -;
#X obj 445 255 loop~;
#N canvas 0 22 450 300 (subpatch) 0;
#X array array2 150000 float 0;
#X coords 0 1 149999 -1 200 150 1;
#X restore 826 471 graph;
#X msg 826 629 \; array2 resize 150000;
#X obj 835 394 soundfiler;
#X obj 449 460 tabread4~ array2;
#X obj 449 414 *~;
#X obj 449 659 dac~;
#X obj 449 636 hip~ 5;
#X obj 495 418 samphold~;
#X obj 449 437 +~;
#X msg 853 349 read ../doc/sound/bell.aiff array2;
#X obj 449 613 *~;
#X floatatom 600 569 0 0 0 0 - - -;
#X obj 600 638 line~;
#X obj 600 592 dbtorms;
#X obj 600 615 pack 0 50;
#X text 634 568 output level 0-100;
#X msg 853 372 read ../doc/sound/voice.wav array2;
#X obj 482 168 sig~;
#X obj 660 208 noise~;
#X obj 660 233 +~ 1;
#X obj 660 258 /~ 2;
#X obj 660 283 *~ 150000;
#X text 732 219 random onset;
#X text 752 285 range within buffer to play \, right now is anywhere
;
#X obj 292 411 samplerate~;
#X obj 292 354 r pd-dsp-started;
#X msg 311 381 bang;
#X obj 86 206 cyclone/edge~;
#X obj 187 244 random 500;
#X obj 187 311 + 100;
#X obj 187 336 *;
#X obj 187 361 / 1000;
#X obj 87 141 cyclone/greaterthaneq~ 0.001;
#X floatatom 263 203 5 0 0 0 - - -, f 5;
#X floatatom 263 279 5 0 0 0 - - -, f 5;
#X obj 854 36 loadbang;
#X msg 854 61 fill 1 \, apply hanning;
#X obj 617 432 *~ 64;
#X obj 617 457 tabread4~ \$0-hann;
#X obj 495 546 *~;
#X obj 854 86 cyclone/buffer~ \$0-hann @samps 64;
#X obj 482 193 *~ 1;
#X text 526 184 constant window size regardless of transposition;
#X text 27 61 random window size can't use noise~/samphold~ because
it creates a DSP loop;
#X text 484 63 transposition;
#X connect 0 0 1 0;
#X connect 0 0 43 1;
#X connect 1 0 6 0;
#X connect 1 0 9 1;
#X connect 1 0 34 0;
#X connect 1 0 39 0;
#X connect 1 1 6 1;
#X connect 5 0 41 0;
#X connect 6 0 10 0;
#X connect 8 0 7 0;
#X connect 8 0 7 1;
#X connect 9 0 10 1;
#X connect 10 0 5 0;
#X connect 11 0 4 0;
#X connect 12 0 8 0;
#X connect 13 0 15 0;
#X connect 14 0 12 1;
#X connect 15 0 16 0;
#X connect 16 0 14 0;
#X connect 18 0 4 0;
#X connect 19 0 43 0;
#X connect 20 0 21 0;
#X connect 21 0 22 0;
#X connect 22 0 23 0;
#X connect 23 0 9 0;
#X connect 26 0 32 1;
#X connect 27 0 26 0;
#X connect 28 0 26 0;
#X connect 29 1 30 0;
#X connect 30 0 31 0;
#X connect 31 0 32 0;
#X connect 32 0 33 0;
#X connect 33 0 19 0;
#X connect 34 0 29 0;
#X connect 35 0 30 1;
#X connect 36 0 31 1;
#X connect 37 0 38 0;
#X connect 38 0 42 0;
#X connect 39 0 40 0;
#X connect 40 0 41 1;
#X connect 41 0 12 0;
#X connect 43 0 1 1;
