#N canvas 487 118 763 615.031 10;
#X obj 110 46 inlet;
#X obj 162 46 inlet;
#X obj 271 46 inlet;
#X obj 110 300 random;
#X obj 204 102 loadbang;
#X obj 204 124 t b b;
#X obj 204 191 f \$1;
#X obj 271 161 f \$2;
#X obj 271 237 pack 0 0;
#X obj 271 194 t b f;
#X obj 110 357 + 0;
#X obj 204 231 t f f;
#X obj 110 391 outlet;
#X obj 271 271 expr $f2 - $f1;
#X connect 0 0 3 0;
#X connect 1 0 6 0;
#X connect 2 0 7 0;
#X connect 3 0 10 0;
#X connect 4 0 5 0;
#X connect 5 0 6 0;
#X connect 5 1 7 0;
#X connect 6 0 11 0;
#X connect 7 0 9 0;
#X connect 8 0 13 0;
#X connect 9 0 8 0;
#X connect 9 1 8 1;
#X connect 10 0 12 0;
#X connect 11 0 10 1;
#X connect 11 1 8 0;
#X connect 13 0 3 1;
