#N canvas 0 23 1440 851 10;
#X obj 300 115 *~;
#X obj 575 370 loadbang;
#X msg 575 401 fill 1 \, apply hanning;
#X obj 300 177 cyclone/cartopol~;
#X msg 170 337 slide \$1 \$1;
#X obj 582 177 noise~;
#X obj 582 203 *~ 0;
#X obj 300 460 cyclone/poltocar~;
#X obj 445 19 inlet;
#X obj 300 24 inlet~;
#X obj 300 552 outlet~;
#X obj 138 83 tabreceive~ \$0-win;
#X obj 170 419 cyclone/vectral~ \$1;
#X obj 575 432 cyclone/buffer~ \$0-win @samps \$1;
#X obj 573 466 block~ \$1 4;
#X text 51 43 \$1: block size;
#X obj 58 286 cyclone/count~ 0 \$1 1 1;
#X obj 300 146 fft~;
#X obj 300 498 ifft~;
#X obj 300 368 speccompand~;
#X msg 669 221 thresh \$1;
#X msg 749 220 delta \$1;
#X msg 75 403 clear;
#X obj 582 225 +~ 1;
#X obj 397 323 *~;
#X obj 300 520 *~;
#X obj 428 190 cyclone/framedelta~;
#X obj 397 345 cyclone/frameaccum~;
#X obj 571 497 array define \$0-amp \$1;
#X obj 570 528 array define \$0-phase \$1;
#X obj 300 212 tabwrite~ \$0-amp;
#X obj 428 213 tabwrite~ \$0-phase;
#X obj 444 111 bang~;
#X obj 496 109 == 0;
#X obj 300 245 tabreceive~ \$0-amp;
#X obj 397 280 tabreceive~ \$0-phase;
#X obj 445 50 route smooth noise gate thresh delta freeze;
#X obj 444 133 spigot 1;
#X connect 0 0 17 0;
#X connect 1 0 2 0;
#X connect 2 0 13 0;
#X connect 3 0 30 0;
#X connect 3 1 26 0;
#X connect 4 0 12 0;
#X connect 5 0 6 0;
#X connect 6 0 23 0;
#X connect 7 0 18 0;
#X connect 7 1 18 1;
#X connect 8 0 36 0;
#X connect 9 0 0 0;
#X connect 11 0 0 1;
#X connect 11 0 25 1;
#X connect 12 0 7 0;
#X connect 16 0 12 0;
#X connect 16 0 12 1;
#X connect 17 0 3 0;
#X connect 17 1 3 1;
#X connect 18 0 25 0;
#X connect 19 0 12 2;
#X connect 20 0 19 1;
#X connect 21 0 19 1;
#X connect 22 0 12 0;
#X connect 23 0 24 1;
#X connect 24 0 27 0;
#X connect 25 0 10 0;
#X connect 26 0 31 0;
#X connect 27 0 7 1;
#X connect 32 0 37 0;
#X connect 33 0 37 1;
#X connect 34 0 19 0;
#X connect 35 0 24 0;
#X connect 36 0 4 0;
#X connect 36 1 6 1;
#X connect 36 3 20 0;
#X connect 36 4 21 0;
#X connect 36 5 33 0;
#X connect 37 0 30 0;
#X connect 37 0 31 0;
