#N canvas 13 154 1005 621 10;
#X obj 300 115 *~;
#X obj 694 8 loadbang;
#X msg 694 39 fill 1 \, apply hanning;
#X obj 300 177 cyclone/cartopol~;
#X msg 160 260 slide \$1 \$1;
#X obj 600 146 noise~;
#X obj 602 231 *~ 0;
#X obj 584 272 +~;
#X obj 306 393 cyclone/poltocar~;
#X obj 510 49 inlet;
#X obj 510 80 route smooth noise gate;
#X obj 297 24 inlet~;
#X obj 369 506 outlet~;
#X obj 301 259 cyclone/greaterthaneq~ 0;
#X obj 338 79 tabreceive~ \$0-win;
#X msg 155 475 bang;
#X obj 155 497 print~;
#X obj 301 281 *~;
#X obj 160 342 cyclone/vectral~ \$1;
#X obj 694 70 cyclone/buffer~ \$0-win @samps \$1;
#X obj 692 104 block~ \$1 4;
#X floatatom 650 200 5 0 0 0 - - -, f 5;
#X text 51 43 \$1: block size;
#X obj 48 209 cyclone/count~ 0 \$1 1 1;
#X obj 300 146 fft~;
#X obj 369 452 ifft~;
#X connect 0 0 24 0;
#X connect 1 0 2 0;
#X connect 2 0 19 0;
#X connect 3 0 13 0;
#X connect 3 0 17 1;
#X connect 3 1 7 0;
#X connect 4 0 18 0;
#X connect 5 0 6 0;
#X connect 6 0 7 1;
#X connect 7 0 8 1;
#X connect 8 0 25 0;
#X connect 8 1 25 1;
#X connect 9 0 10 0;
#X connect 10 0 4 0;
#X connect 10 1 6 1;
#X connect 10 2 13 1;
#X connect 11 0 0 0;
#X connect 13 0 17 0;
#X connect 14 0 0 1;
#X connect 15 0 16 0;
#X connect 17 0 18 2;
#X connect 18 0 8 0;
#X connect 21 0 6 1;
#X connect 23 0 18 0;
#X connect 23 0 18 1;
#X connect 24 0 3 0;
#X connect 24 1 3 1;
#X connect 25 0 12 0;
