#N canvas 376 23 1064 799 10;
#X obj 271 166 expr~ if ($v1 > $f2 \, 1 \, 0);
#X obj 679 205 array define \$0-compand 2;
#X obj 126 68 inlet~;
#X obj 271 188 tabread~ \$0-compand;
#X obj 126 227 *~;
#X obj 358 62 inlet;
#X obj 358 84 route thresh delta;
#X obj 518 125 t f f;
#X obj 581 147 + 1;
#X obj 518 147 t b f;
#X obj 518 169 f 1;
#X obj 518 191 -;
#X obj 518 257 tabwrite \$0-compand;
#X obj 518 213 list append 0;
#X obj 518 235 list trim;
#X obj 581 169 list append 1;
#X obj 126 293 outlet~;
#X text 668 36 messages \; thresh: spectrum amp threshold \, below
comped \, above expanded \; delta: comp/expand factor (0-1) \; \;;
#X text 123 320 e.g. left inlet of cyclone/poltocar~;
#X text 127 34 e.g. left outlet of cyclone/cartopol~;
#X obj 518 45 loadbang;
#X msg 518 67 0;
#X connect 0 0 3 0;
#X connect 2 0 4 0;
#X connect 2 0 0 0;
#X connect 3 0 4 1;
#X connect 4 0 16 0;
#X connect 5 0 6 0;
#X connect 6 0 0 1;
#X connect 6 1 7 0;
#X connect 7 0 9 0;
#X connect 7 1 8 0;
#X connect 8 0 15 0;
#X connect 9 0 10 0;
#X connect 9 1 11 1;
#X connect 10 0 11 0;
#X connect 11 0 13 0;
#X connect 13 0 14 0;
#X connect 14 0 12 0;
#X connect 15 0 14 0;
#X connect 20 0 21 0;
#X connect 21 0 7 0;
