#N canvas 818 348 450 315 10;
#X obj 120 64 readsf~;
#X obj 120 158 *~ 0.01;
#X obj 120 240 dac~;
#X obj 223 81 spigot;
#X obj 279 71 tgl 15 0 empty empty empty 17 7 0 10 -262144 -1 -1 1
1;
#X floatatom 250 123 5 0 0 0 - - -, f 5;
#X msg 250 142 smooth \$1;
#X msg 120 42 open ../sound/bell.aiff \, 1;
#X obj 22 125 env~;
#X floatatom 22 147 5 0 0 0 - - -, f 5;
#X floatatom 331 122 5 0 0 0 - - -, f 5;
#X msg 331 141 noise \$1;
#X floatatom 177 159 5 0 0 0 - - -, f 5;
#X obj 22 195 env~;
#X floatatom 22 217 5 0 0 0 - - -, f 5;
#X obj 120 136 specter~ 4096;
#X floatatom 251 170 5 0 0 0 - - -, f 5;
#X msg 251 189 thresh \$1;
#X floatatom 332 170 5 0 0 0 - - -, f 5;
#X msg 332 189 delta \$1;
#X obj 22 249 /;
#X floatatom 22 271 5 0 0 0 - - -, f 5;
#X obj 253 218 tgl 15 0 empty empty empty 17 7 0 10 -262144 -1 -1 1
1;
#X msg 253 238 freeze \$1;
#X obj 120 180 hip~ 5;
#X connect 0 0 8 0;
#X connect 0 0 15 0;
#X connect 0 1 3 0;
#X connect 1 0 24 0;
#X connect 3 0 7 0;
#X connect 4 0 3 1;
#X connect 5 0 6 0;
#X connect 6 0 15 1;
#X connect 7 0 0 0;
#X connect 8 0 9 0;
#X connect 9 0 20 1;
#X connect 10 0 11 0;
#X connect 11 0 15 1;
#X connect 12 0 1 1;
#X connect 13 0 14 0;
#X connect 14 0 20 0;
#X connect 15 0 1 0;
#X connect 15 0 13 0;
#X connect 16 0 17 0;
#X connect 17 0 15 1;
#X connect 18 0 19 0;
#X connect 19 0 15 1;
#X connect 20 0 21 0;
#X connect 22 0 23 0;
#X connect 23 0 15 1;
#X connect 24 0 2 0;
#X connect 24 0 2 1;
