#N canvas 108 168 871 621 10;
#X obj 300 115 *~;
#X obj 575 370 loadbang;
#X msg 575 401 fill 1 \, apply hanning;
#X obj 300 177 cyclone/cartopol~;
#X msg 170 260 slide \$1 \$1;
#X obj 532 138 noise~;
#X obj 532 164 *~ 0;
#X obj 300 383 cyclone/poltocar~;
#X obj 508 49 inlet;
#X obj 300 24 inlet~;
#X obj 300 475 outlet~;
#X obj 138 83 tabreceive~ \$0-win;
#X obj 170 342 cyclone/vectral~ \$1;
#X obj 575 432 cyclone/buffer~ \$0-win @samps \$1;
#X obj 573 466 block~ \$1 4;
#X text 51 43 \$1: block size;
#X obj 58 209 cyclone/count~ 0 \$1 1 1;
#X obj 300 146 fft~;
#X obj 300 421 ifft~;
#X obj 300 291 speccompand~;
#X msg 657 216 thresh \$1;
#X msg 707 255 delta \$1;
#X obj 508 80 route smooth noise gate thresh delta;
#X msg 75 326 clear;
#X obj 532 186 +~ 1;
#X obj 397 246 *~;
#X obj 300 443 *~;
#X obj 397 219 cyclone/framedelta~;
#X obj 397 268 cyclone/frameaccum~;
#X connect 0 0 17 0;
#X connect 1 0 2 0;
#X connect 2 0 13 0;
#X connect 3 0 19 0;
#X connect 3 1 27 0;
#X connect 4 0 12 0;
#X connect 5 0 6 0;
#X connect 6 0 24 0;
#X connect 7 0 18 0;
#X connect 7 1 18 1;
#X connect 8 0 22 0;
#X connect 9 0 0 0;
#X connect 11 0 0 1;
#X connect 11 0 26 1;
#X connect 12 0 7 0;
#X connect 16 0 12 0;
#X connect 16 0 12 1;
#X connect 17 0 3 0;
#X connect 17 1 3 1;
#X connect 18 0 26 0;
#X connect 19 0 12 2;
#X connect 20 0 19 1;
#X connect 21 0 19 1;
#X connect 22 0 4 0;
#X connect 22 1 6 1;
#X connect 22 3 20 0;
#X connect 22 4 21 0;
#X connect 23 0 12 0;
#X connect 24 0 25 1;
#X connect 25 0 28 0;
#X connect 26 0 10 0;
#X connect 27 0 25 0;
#X connect 28 0 7 1;
