#N canvas 263 84 1072 789 10;
#X obj 58 168 readsf~;
#X obj 163 28 tgl 15 0 empty empty empty 17 7 0 10 -262144 -1 -1 1
1;
#X obj 130 51 spigot;
#X msg 57 139 1;
#X msg 157 139 open ../sound/bell.aiff;
#X obj 130 103 t b b;
#X obj 193 50 bng 15 250 50 0 empty empty empty 17 7 0 10 -262144 -1
-1;
#X obj 58 229 +~;
#X floatatom 200 488 5 0 0 0 - - -, f 5;
#X obj 178 536 *~ 0;
#X obj 178 557 s~ \$0-feedback;
#X obj 103 191 r \$0-feedback;
#X obj 58 554 else/out~;
#X floatatom 520 109 5 0 0 0 - - -, f 5;
#X obj 58 255 specdelay~ 256 4 80000;
#X msg 520 129 timescale \$1;
#X floatatom 520 170 5 0 0 0 - - -, f 5;
#X msg 520 190 lengthscale \$1;
#X text 618 103 (0-1) rescale all delay times;
#X text 622 166 actual amp per bin is pow(amp \, lengthscale) normalized
so that the highest bin is 1 \; i.e. < 1 is compressor \, > 1 is expander
;
#X connect 0 0 7 0;
#X connect 0 1 2 0;
#X connect 1 0 2 1;
#X connect 2 0 5 0;
#X connect 3 0 0 0;
#X connect 4 0 0 0;
#X connect 5 0 3 0;
#X connect 5 1 4 0;
#X connect 6 0 5 0;
#X connect 7 0 14 0;
#X connect 8 0 9 1;
#X connect 9 0 10 0;
#X connect 11 0 7 1;
#X connect 13 0 15 0;
#X connect 14 0 12 0;
#X connect 14 0 12 1;
#X connect 14 0 9 0;
#X connect 15 0 14 1;
#X connect 16 0 17 0;
#X connect 17 0 14 1;
