#N canvas 0 23 1440 851 10;
#X obj 300 75 *~;
#X obj 575 370 loadbang;
#X msg 575 401 fill 1 \, apply hanning;
#X obj 300 137 cyclone/cartopol~;
#X msg 170 337 slide \$1 \$1;
#X obj 582 177 noise~;
#X obj 300 460 cyclone/poltocar~;
#X obj 445 19 inlet;
#X obj 300 24 inlet~;
#X obj 300 552 outlet~;
#X obj 138 43 tabreceive~ \$0-win;
#X obj 170 419 cyclone/vectral~ \$1;
#X obj 575 432 cyclone/buffer~ \$0-win @samps \$1;
#X obj 573 466 block~ \$1 4;
#X text 26 21 \$1: block size;
#X obj 58 286 cyclone/count~ 0 \$1 1 1;
#X msg 75 403 clear;
#X obj 397 323 *~;
#X obj 300 520 *~;
#X obj 428 190 cyclone/framedelta~;
#X obj 397 385 cyclone/frameaccum~;
#X obj 571 497 array define \$0-amp \$1;
#X obj 570 528 array define \$0-phase \$1;
#X obj 300 212 tabwrite~ \$0-amp;
#X obj 428 213 tabwrite~ \$0-phase;
#X obj 444 111 bang~;
#X obj 496 109 == 0;
#X obj 300 245 tabreceive~ \$0-amp;
#X obj 397 280 tabreceive~ \$0-phase;
#X obj 445 50 route smooth noise gate thresh delta freeze;
#X obj 444 133 spigot 1;
#X obj 300 100 rfft~;
#N canvas 0 23 503 300 spec-gate 0;
#X obj 130 53 inlet~;
#X obj 133 255 *~;
#X obj 287 214 *~ 0;
#X obj 202 217 *~ 1;
#X obj 222 193 == 0;
#X obj 202 238 +~;
#X obj 133 276 outlet~;
#X obj 267 48 inlet thresh;
#X obj 374 48 inlet invert;
#X text 352 167 invert boolean;
#X obj 202 148 cyclone/greaterthaneq~ 0;
#X obj 287 186 cyclone/lessthaneq~ 0.5;
#X connect 0 0 1 0;
#X connect 0 0 10 0;
#X connect 1 0 6 0;
#X connect 2 0 5 1;
#X connect 3 0 5 0;
#X connect 4 0 3 1;
#X connect 5 0 1 1;
#X connect 7 0 10 1;
#X connect 8 0 4 0;
#X connect 8 0 2 1;
#X connect 10 0 3 0;
#X connect 10 0 11 0;
#X connect 11 0 2 0;
#X restore 300 311 pd spec-gate;
#X obj 723 86 route invert;
#X obj 582 224 cyclone/framedelta~;
#X obj 582 203 *~ 1;
#X obj 300 498 rifft~;
#X connect 0 0 31 0;
#X connect 1 0 2 0;
#X connect 2 0 12 0;
#X connect 3 0 23 0;
#X connect 3 1 19 0;
#X connect 4 0 11 0;
#X connect 5 0 35 0;
#X connect 6 0 36 0;
#X connect 6 1 36 1;
#X connect 7 0 29 0;
#X connect 8 0 0 0;
#X connect 10 0 0 1;
#X connect 10 0 18 1;
#X connect 11 0 6 0;
#X connect 15 0 11 0;
#X connect 15 0 11 1;
#X connect 16 0 11 0;
#X connect 18 0 9 0;
#X connect 19 0 24 0;
#X connect 20 0 6 1;
#X connect 25 0 30 0;
#X connect 26 0 30 1;
#X connect 27 0 32 0;
#X connect 28 0 17 0;
#X connect 29 0 4 0;
#X connect 29 1 35 1;
#X connect 29 3 32 1;
#X connect 29 5 26 0;
#X connect 29 6 33 0;
#X connect 30 0 23 0;
#X connect 30 0 24 0;
#X connect 31 0 3 0;
#X connect 31 1 3 1;
#X connect 32 0 11 2;
#X connect 33 0 32 2;
#X connect 34 0 20 0;
#X connect 35 0 34 0;
#X connect 36 0 18 0;
