#N struct 1219-struct float x float y float y2 float c float c2 symbol
name;
#N canvas 0 23 1249 531 10;
#X msg 513 102 update;
#X obj 513 200 list split 1;
#X symbolatom 238 121 35 0 0 0 - - -, f 35;
#X floatatom 112 260 5 0 0 0 - - -, f 5;
#X obj 112 301 t f b;
#X obj 158 328 symbol \$0-preset-vue;
#X obj 112 363 pack f s;
#X obj 112 407 s pd-\$0-preset-vue;
#X msg 119 447 donecanvasdialog xUnits yUnits GOP(1)GOPandHide(2) xFrom
yFrom xTo yTo xSize ySize xMargin yMargin;
#X msg 112 385 donecanvasdialog 1 -1 1 0 0 1 1 300 \$1 0 0 \, dirty
0;
#X obj 112 279 * 20;
#N canvas 710 43 464 477 \$0-menu 0;
#N canvas 940 179 450 300 \$0-preset-vue 0;
#X scalar 1219-struct 0.025 0 0.1 0 999 sfh_harpsichord_loop_PERC.wav
\;;
#X scalar 1219-struct 0.025 0.05 0.15 0 999 sfh_harpsichord_loop_HARM.wav
\;;
#X scalar 1219-struct 0.025 0.1 0.2 0 999 sfh_harpsichord_loop.wav
\;;
#X scalar 1219-struct 0.025 0.15 0.25 0 999 processed_hakd.wav \;;
#X scalar 1219-struct 0.025 0.2 0.3 0 999 piano_shoot_2.wav \;;
#X scalar 1219-struct 0.025 0.25 0.35 0 999 piano_shoot_1.wav \;;
#X scalar 1219-struct 0.025 0.3 0.4 0 999 jonny-drums.wav \;;
#X scalar 1219-struct 0.025 0.35 0.45 0 999 infra_excerpt.wav \;;
#X scalar 1219-struct 0.025 0.4 0.5 0 999 hands-up-who-wants-to-die.wav
\;;
#X scalar 1219-struct 0.025 0.45 0.55 0 999 Persephone-drums.wav \;
;
#X coords 0 0 1 1 300 200 1 0 0;
#X restore 17 16 pd \$0-preset-vue;
#X restore 514 340 pd \$0-menu;
#X obj 513 222 t b s;
#X obj 513 244 f \$0;
#X msg 513 298 \; pd-\$1-menu vis 0;
#X obj 204 105 bng 30 250 50 0 empty empty load 4 14 0 10 -262144 -1
-1;
#X obj 319 238 f \$0;
#X msg 319 260 \; pd-\$1-menu vis 1;
#X obj 513 266 pipe 100;
#X text 582 267 if close window immediately will crash Pd!;
#X obj 112 10 inlet;
#X obj 513 153 other/pad.menu buffer-hash \$0-preset-vue;
#X obj 112 238 text size buffer-hash;
#X obj 112 67 t b b;
#X obj 650 459 outlet;
#X obj 513 178 text get buffer-hash;
#X connect 0 0 21 0;
#X connect 1 0 12 0;
#X connect 3 0 10 0;
#X connect 4 0 6 0;
#X connect 4 1 5 0;
#X connect 5 0 6 1;
#X connect 6 0 9 0;
#X connect 9 0 7 0;
#X connect 10 0 4 0;
#X connect 12 0 13 0;
#X connect 12 1 2 0;
#X connect 12 1 24 0;
#X connect 13 0 18 0;
#X connect 15 0 16 0;
#X connect 16 0 17 0;
#X connect 18 0 14 0;
#X connect 20 0 23 0;
#X connect 21 0 25 0;
#X connect 22 0 3 0;
#X connect 23 0 22 0;
#X connect 23 1 0 0;
#X connect 25 0 1 0;
#X coords 0 -1 1 1 260 40 2 200 100;
