#N canvas 0 22 1440 852 10;
#X obj 361 307 expr $f1 * pow(2 \, $f2 * float(random(-100 \, 100))
/ 100);
#X obj 361 274 f 100;
#X obj 267 149 spigot 1;
#X msg 345 150 0;
#X obj 267 128 metro 100;
#X obj 524 164 s \$0-grainlength;
#X obj 388 195 r \$0-grainlength;
#X obj 361 328 t f f;
#X obj 570 144 s \$0-jitter;
#X obj 688 272 r \$0-jitter;
#X obj 797 125 s \$0-start;
#X obj 524 27 inlet grain-args;
#X obj 867 125 s \$0-offset;
#X obj 524 55 route length jitter pitch reverse width;
#X obj 616 125 s \$0-pitch;
#X obj 662 106 s \$0-reverse;
#X obj 510 403 f 0;
#X obj 525 365 r \$0-start;
#X obj 667 396 r \$0-offset;
#X text 702 307 grain length (ms);
#X obj 798 336 loadbang;
#X msg 378 496 0 \, 1 \$1;
#X obj 378 517 vline~;
#X obj 378 592 *~;
#X obj 378 613 +~;
#X obj 783 614 *~;
#X obj 378 655 *~;
#X obj 361 353 t f f f b;
#X obj 318 388 delay;
#X msg 318 409 1;
#X obj 708 84 s \$0-width;
#X obj 141 456 r \$0-width;
#X obj 109 487 f;
#X obj 109 508 expr $f1 * float(random(-100 \, 100)) / 100;
#X obj 323 698 else/pan2~;
#X obj 323 719 outlet~;
#X obj 376 720 outlet~;
#X text 188 534 random pan;
#X obj 798 357 t a a;
#X obj 797 96 route start offset;
#X obj 524 99 t f f;
#X obj 825 382 f 44.1;
#X text 49 44 \$1: clone # \; \$2: sample array \; \$3: window array
;
#X obj 798 574 array size \$3;
#X obj 783 635 tabread4~ \$3;
#X obj 378 634 tabread4~ \$2;
#X text 692 442 start time (samps);
#X obj 510 424 expr ($f1 + float(random(-100 \, 100)) / 100 * $f2)
* $f3;
#X text 687 513 grain read length (samps) \; start (samps);
#X obj 712 485 r \$0-pitch;
#X obj 267 170 t a a a a;
#N canvas 0 22 450 300 reverse 0;
#X obj 146 39 inlet bang;
#X obj 146 60 f 0;
#X obj 146 81 expr float(random(0 \, 100)) / 100 <= $f1;
#X obj 222 40 r \$0-reverse;
#X obj 146 102 expr if($f1 > 0 \, -1 \, 1);
#X obj 49 43 inlet;
#X obj 49 64 * 1;
#X obj 49 85 outlet;
#X connect 0 0 1 0;
#X connect 1 0 2 0;
#X connect 2 0 4 0;
#X connect 3 0 1 1;
#X connect 4 0 6 1;
#X connect 5 0 6 0;
#X connect 6 0 7 0;
#X restore 467 566 pd reverse;
#X obj 467 516 expr $f1 * $f3 * pow(2 \, $f4 / 12);
#X obj 510 445 t f f;
#X obj 265 62 loadbang;
#X msg 265 83 1;
#X connect 0 0 7 0;
#X connect 1 0 0 0;
#X connect 2 0 50 0;
#X connect 3 0 2 1;
#X connect 4 0 2 0;
#X connect 6 0 1 1;
#X connect 7 0 27 0;
#X connect 7 1 4 1;
#X connect 9 0 0 1;
#X connect 11 0 13 0;
#X connect 13 0 40 0;
#X connect 13 1 8 0;
#X connect 13 2 14 0;
#X connect 13 3 15 0;
#X connect 13 4 30 0;
#X connect 13 5 39 0;
#X connect 16 0 47 0;
#X connect 17 0 16 1;
#X connect 18 0 47 1;
#X connect 20 0 38 0;
#X connect 21 0 22 0;
#X connect 22 0 23 0;
#X connect 22 0 25 0;
#X connect 23 0 24 0;
#X connect 24 0 45 0;
#X connect 25 0 44 0;
#X connect 26 0 34 0;
#X connect 27 0 28 0;
#X connect 27 1 21 0;
#X connect 27 2 52 0;
#X connect 27 3 51 1;
#X connect 28 0 29 0;
#X connect 29 0 2 1;
#X connect 31 0 32 1;
#X connect 32 0 33 0;
#X connect 33 0 34 1;
#X connect 34 0 35 0;
#X connect 34 1 36 0;
#X connect 38 0 43 0;
#X connect 38 1 41 0;
#X connect 39 0 10 0;
#X connect 39 1 12 0;
#X connect 40 1 5 0;
#X connect 41 0 47 2;
#X connect 41 0 52 2;
#X connect 43 0 25 1;
#X connect 44 0 26 1;
#X connect 45 0 26 0;
#X connect 47 0 53 0;
#X connect 49 0 52 3;
#X connect 50 0 32 0;
#X connect 50 1 1 0;
#X connect 50 2 3 0;
#X connect 50 3 16 0;
#X connect 51 0 23 1;
#X connect 52 0 51 0;
#X connect 53 0 52 1;
#X connect 53 1 24 1;
#X connect 54 0 55 0;
#X connect 55 0 4 0;
