#N canvas 0 22 1440 852 10;
#X obj 262 71 array define foo;
#X msg 262 28 fill 1 \, apply hanning;
#X obj 262 49 cyclone/buffer~ win 1000;
#X obj 31 41 bng 15 250 50 0 empty empty empty 17 7 0 10 -262144 -1
-1;
#X obj 31 61 openpanel;
#X obj 31 103 soundfiler;
#X msg 31 82 read -resize \$1 foo;
#X floatatom 427 216 5 0 0 0 - - -;
#X msg 427 236 length \$1;
#X obj 179 116 hsl 128 15 0 127 0 0 empty empty empty -2 -8 0 10 -262144
-1 -1 0 1;
#X obj 176 136 / 127;
#X obj 176 157 t f b;
#X obj 176 218 *;
#X obj 203 179 array size foo;
#X obj 176 386 else/out~;
#X obj 176 6 loadbang;
#X msg 176 57 0;
#X msg 427 178 100;
#X msg 176 239 start \$1;
#X floatatom 519 216 5 0 0 0 - - -;
#X msg 519 236 jitter \$1;
#X obj 176 339 clone vgrain~ 16 foo win;
#X obj 176 290 list prepend all;
#X obj 176 311 list trim;
#X msg 618 174 0;
#X obj 203 200 / 44.1;
#X floatatom 31 124 10 0 0 0 - - -;
#X floatatom 618 216 5 0 0 0 - - -;
#X msg 618 236 pitch \$1;
#X obj 547 106 bng 15 250 50 0 empty empty empty 17 7 0 10 -262144
-1 -1;
#X msg 519 179 0.2;
#X floatatom 280 223 5 0 0 0 - - -;
#X msg 280 243 offset \$1;
#X floatatom 715 216 5 0 0 0 - - -;
#X msg 715 236 reverse \$1;
#X connect 1 0 2 0;
#X connect 3 0 4 0;
#X connect 4 0 6 0;
#X connect 5 0 26 0;
#X connect 6 0 5 0;
#X connect 7 0 8 0;
#X connect 8 0 22 0;
#X connect 9 0 10 0;
#X connect 10 0 11 0;
#X connect 11 0 12 0;
#X connect 11 1 13 0;
#X connect 12 0 18 0;
#X connect 13 0 25 0;
#X connect 15 0 1 0;
#X connect 15 0 16 0;
#X connect 15 0 17 0;
#X connect 15 0 30 0;
#X connect 16 0 9 0;
#X connect 17 0 7 0;
#X connect 18 0 22 0;
#X connect 19 0 20 0;
#X connect 20 0 22 0;
#X connect 21 0 14 0;
#X connect 21 1 14 1;
#X connect 22 0 23 0;
#X connect 23 0 21 0;
#X connect 24 0 27 0;
#X connect 25 0 12 1;
#X connect 27 0 28 0;
#X connect 28 0 22 0;
#X connect 29 0 17 0;
#X connect 29 0 30 0;
#X connect 29 0 24 0;
#X connect 30 0 19 0;
#X connect 31 0 32 0;
#X connect 32 0 22 0;
#X connect 33 0 34 0;
#X connect 34 0 22 0;
