#N canvas 495 23 817 657.031 10;
#X obj 92 456 table \$0-left 3e+07;
#X obj 91 478 table \$0-right 3e+07;
#X obj 86 76 openpanel;
#X obj 20 375 tabwrite~ \$0-left;
#X obj 151 375 tabwrite~ \$0-right;
#X obj 115 269 readsf~ 2;
#X msg 116 216 open \$1 \, 1;
#X obj 85 52 inlet;
#X obj 258 49 inlet;
#X obj 249 84 route filepath;
#X obj 514 374 outlet;
#X msg 513 240 \$0-left \$0-right;
#X obj 295 431 outlet;
#X obj 478 99 block~ 1024 1 64;
#X obj 295 349 soundfile_info;
#X obj 113 159 t a b a;
#X msg 294 323 read \$1;
#X obj 279 179 sel info bufname;
#X obj 294 292 symbol;
#X text 290 461 send info on file when load complete or receive message
'info';
#X obj 509 177 loadbang;
#X obj 164 295 t b b;
#X msg 165 324 stop;
#X text 291 510 based on a patch 'upsampled-loading.pd' downloaded
from https://forum.pdpatchrepo.info/topic/6517/accuracy-limitation-soundfiler-dropout-potential-fix/3
;
#X connect 2 0 15 0;
#X connect 5 0 3 0;
#X connect 5 1 4 0;
#X connect 5 2 21 0;
#X connect 6 0 5 0;
#X connect 7 0 2 0;
#X connect 8 0 9 0;
#X connect 9 0 15 0;
#X connect 9 1 17 0;
#X connect 11 0 10 0;
#X connect 14 0 12 0;
#X connect 15 0 6 0;
#X connect 15 1 4 0;
#X connect 15 1 3 0;
#X connect 15 2 18 1;
#X connect 16 0 14 0;
#X connect 17 0 18 0;
#X connect 17 1 11 0;
#X connect 18 0 16 0;
#X connect 20 0 11 0;
#X connect 21 0 22 0;
#X connect 21 1 18 0;
#X connect 22 0 3 0;
#X connect 22 0 4 0;
