#N canvas 0 22 1440 852 10;
#X obj 669 27 loadbang;
#X obj 738 145 soundfiler;
#X obj 264 199 loop~;
#X msg 738 123 read -resize ../doc/sound/bell.aiff testbuf;
#X obj 735 171 array define testbuf;
#X obj 297 149 sig~;
#X floatatom 297 53 5 0 0 0 - - -, f 5;
#X obj 297 72 / 1000;
#X obj 297 94 t f b;
#X obj 297 116 *;
#X obj 328 116 samplerate~;
#X floatatom 166 86 5 0 0 0 - - -, f 5;
#X obj 166 105 sig~;
#X msg 1093 101 fill 1 \, apply hanning;
#X obj 1093 123 cyclone/buffer~ winbuf @samps 100;
#X obj 669 87 t b b b;
#X obj 443 207 sig~;
#X floatatom 443 111 5 0 0 0 - - -, f 5;
#X obj 443 130 / 1000;
#X obj 443 152 t f b;
#X obj 443 174 *;
#X obj 474 174 samplerate~;
#X obj 312 235 samphold~;
#X obj 264 221 *~;
#X obj 264 243 +~;
#X text 294 24 loop length;
#X text 162 63 play speed;
#X text 441 85 offset;
#X obj 406 769 dac~;
#X obj 278 555 *~ 0;
#X floatatom 334 581 5 0 0 0 - - -, f 5;
#X msg 669 49 bang;
#X obj 338 363 sig~;
#X msg 669 196 setbuf testbuf \, setwindow winbuf;
#X obj 669 221 list prepend all;
#X obj 669 243 list trim;
#X obj 336 320 t b f f;
#X obj 525 642 gigaverb~/gigaverb~;
#X floatatom 706 492 5 0 0 0 - - -, f 5;
#X msg 706 511 roomsize \$1;
#X floatatom 812 491 5 0 0 0 - - -, f 5;
#X msg 812 511 damping \$1;
#X floatatom 706 542 5 0 0 0 - - -, f 5;
#X msg 706 562 revtime \$1;
#X floatatom 812 541 5 0 0 0 - - -, f 5;
#X msg 812 561 bandwidth \$1;
#X msg 769 642 dry -90 \, wet 0;
#X obj 525 664 *~;
#X obj 563 667 *~;
#X floatatom 619 675 5 0 0 0 - - -, f 5;
#X floatatom 940 474 5 -90 0 0 - early -, f 5;
#X msg 940 501 early \$1;
#X floatatom 940 559 5 -90 0 0 - tail -, f 5;
#X msg 940 586 tail \$1;
#X obj 468 327 hsl 128 15 0 127 0 0 empty empty grain_length_(50-550ms)
-2 -8 0 10 -262144 -1 -1 2900 1;
#X obj 465 347 expr 50 + ($f1 / 127 * 500);
#X obj 465 369 f;
#X obj 465 391 * 1;
#X obj 669 265 s to-granulator;
#X obj 544 499 r to-granulator;
#X obj 465 413 sig~;
#X obj 544 401 noise~;
#X obj 544 423 abs~;
#X obj 544 445 *~ 0;
#X obj 683 325 hsl 128 15 0 127 0 0 empty empty mod_grain_length -2
-8 0 10 -262144 -1 -1 11200 1;
#X obj 680 345 / 127;
#X obj 501 444 *~;
#X obj 465 462 +~;
#X floatatom 336 267 5 0 0 0 - - -, f 5;
#X obj 336 286 transratio;
#X obj 96 321 hsl 128 15 0 127 0 0 empty empty mod_pitch -2 -8 0 10
-262144 -1 -1 0 1;
#X obj 93 341 / 127;
#X obj 70 428 expr~ $v1 * pow(2 \, $v2);
#X obj 58 371 *~ 0;
#X obj 51 254 noise~;
#X obj 148 592 env~;
#X floatatom 148 614 5 0 0 0 - - -, f 5;
#X obj 132 177 tgl 15 0 empty empty empty 17 7 0 10 -262144 -1 -1 0
1;
#X obj 132 197 metro 100;
#X obj 132 219 snapshot~;
#X floatatom 132 241 5 0 0 0 - - -, f 5;
#X obj 228 125 bng 15 250 50 0 empty empty empty 17 7 0 10 -262144
-1 -1;
#X obj 264 497 clone -x 4 gloop~ testbuf winbuf;
#X connect 0 0 31 0;
#X connect 2 0 22 1;
#X connect 2 0 23 0;
#X connect 2 1 23 1;
#X connect 3 0 1 0;
#X connect 5 0 2 1;
#X connect 6 0 7 0;
#X connect 7 0 8 0;
#X connect 8 0 9 0;
#X connect 8 1 10 0;
#X connect 9 0 5 0;
#X connect 10 0 9 1;
#X connect 11 0 12 0;
#X connect 12 0 2 0;
#X connect 13 0 14 0;
#X connect 15 0 33 0;
#X connect 15 1 3 0;
#X connect 15 2 13 0;
#X connect 16 0 22 0;
#X connect 17 0 18 0;
#X connect 18 0 19 0;
#X connect 19 0 20 0;
#X connect 19 1 21 0;
#X connect 20 0 16 0;
#X connect 21 0 20 1;
#X connect 22 0 24 1;
#X connect 23 0 24 0;
#X connect 24 0 82 0;
#X connect 29 0 28 0;
#X connect 29 0 28 1;
#X connect 30 0 29 1;
#X connect 31 0 15 0;
#X connect 32 0 72 0;
#X connect 33 0 34 0;
#X connect 34 0 35 0;
#X connect 35 0 58 0;
#X connect 36 0 56 0;
#X connect 36 1 57 1;
#X connect 36 2 32 0;
#X connect 37 0 47 0;
#X connect 37 1 48 0;
#X connect 38 0 39 0;
#X connect 39 0 37 0;
#X connect 40 0 41 0;
#X connect 41 0 37 0;
#X connect 42 0 43 0;
#X connect 43 0 37 0;
#X connect 44 0 45 0;
#X connect 45 0 37 0;
#X connect 46 0 37 0;
#X connect 47 0 28 0;
#X connect 48 0 28 1;
#X connect 49 0 47 1;
#X connect 49 0 48 1;
#X connect 50 0 51 0;
#X connect 51 0 37 0;
#X connect 52 0 53 0;
#X connect 53 0 37 0;
#X connect 54 0 55 0;
#X connect 55 0 56 0;
#X connect 56 0 57 0;
#X connect 57 0 60 0;
#X connect 59 0 82 3;
#X connect 60 0 66 0;
#X connect 60 0 67 0;
#X connect 61 0 62 0;
#X connect 62 0 63 0;
#X connect 63 0 66 1;
#X connect 64 0 65 0;
#X connect 65 0 63 1;
#X connect 66 0 67 1;
#X connect 67 0 82 2;
#X connect 68 0 69 0;
#X connect 69 0 36 0;
#X connect 70 0 71 0;
#X connect 71 0 73 1;
#X connect 72 0 82 1;
#X connect 73 0 72 1;
#X connect 74 0 73 0;
#X connect 75 0 76 0;
#X connect 77 0 78 0;
#X connect 78 0 79 0;
#X connect 79 0 80 0;
#X connect 81 0 2 0;
#X connect 82 0 29 0;
#X connect 82 0 37 0;
#X connect 82 0 75 0;
