#N canvas 0 22 1440 852 10;
#X obj 669 27 loadbang;
#X obj 738 145 soundfiler;
#X obj 264 199 loop~;
#X msg 738 123 read -resize ../doc/sound/bell.aiff testbuf;
#X obj 735 171 array define testbuf;
#X obj 297 149 sig~;
#X floatatom 297 53 5 0 0 0 - - -, f 5;
#X obj 297 72 / 1000;
#X obj 297 94 t f b;
#X obj 297 116 *;
#X obj 328 116 samplerate~;
#X floatatom 166 86 5 0 0 0 - - -, f 5;
#X obj 166 105 sig~;
#X msg 1093 101 fill 1 \, apply hanning;
#X obj 1093 123 cyclone/buffer~ winbuf @samps 100;
#X obj 669 87 t b b b;
#X obj 443 207 sig~;
#X floatatom 443 111 5 0 0 0 - - -, f 5;
#X obj 443 130 / 1000;
#X obj 443 152 t f b;
#X obj 443 174 *;
#X obj 474 174 samplerate~;
#X obj 312 235 samphold~;
#X obj 264 221 *~;
#X obj 264 243 +~;
#X text 294 24 loop length;
#X text 162 63 play speed;
#X text 441 85 offset;
#X obj 406 709 dac~;
#X obj 278 495 *~ 0;
#X floatatom 334 521 5 0 0 0 - - -, f 5;
#X msg 669 49 bang;
#X floatatom 40 249 5 0 0 0 - - -, f 5;
#X obj 86 327 sig~;
#X msg 669 226 setbuf testbuf \, setwindow winbuf;
#X obj 669 341 list prepend all;
#X obj 669 363 list trim;
#X floatatom 451 271 5 0 0 0 - - -, f 5;
#X msg 452 347 minlen \$1;
#X floatatom 541 271 5 0 0 0 - - -, f 5;
#X msg 542 347 maxlen \$1;
#X obj 451 305 * 1;
#X obj 541 290 * 1;
#X obj 40 268 t b f f;
#X obj 525 582 gigaverb~/gigaverb~;
#X floatatom 706 432 5 0 0 0 - - -, f 5;
#X msg 706 451 roomsize \$1;
#X floatatom 812 431 5 0 0 0 - - -, f 5;
#X msg 812 451 damping \$1;
#X floatatom 706 482 5 0 0 0 - - -, f 5;
#X msg 706 502 revtime \$1;
#X floatatom 812 481 5 0 0 0 - - -, f 5;
#X msg 812 501 bandwidth \$1;
#X msg 769 582 dry -90 \, wet 0;
#X obj 525 604 *~;
#X obj 563 607 *~;
#X floatatom 619 615 5 0 0 0 - - -, f 5;
#X floatatom 940 414 5 -90 0 0 - early -, f 5;
#X msg 940 441 early \$1;
#X floatatom 940 499 5 -90 0 0 - tail -, f 5;
#X msg 940 526 tail \$1;
#X obj 123 179 noise~;
#X obj 123 223 *~ 0;
#X obj 86 349 expr~ $v1 * pow(2 \, $v2);
#X floatatom 164 206 5 0 0 0 - - -, f 5;
#X floatatom 39 189 5 0 0 0 - - -, f 5;
#X obj 39 208 transratio;
#X obj 218 557 env~;
#X floatatom 218 579 5 0 0 0 - - -, f 5;
#X obj 116 488 cyclone/number~;
#X obj 264 437 clone -x 4 gloop~ testbuf winbuf;
#X msg 805 282 reset;
#X connect 0 0 31 0;
#X connect 2 0 22 1;
#X connect 2 0 23 0;
#X connect 2 1 23 1;
#X connect 3 0 1 0;
#X connect 5 0 2 1;
#X connect 6 0 7 0;
#X connect 7 0 8 0;
#X connect 8 0 9 0;
#X connect 8 1 10 0;
#X connect 9 0 5 0;
#X connect 10 0 9 1;
#X connect 11 0 12 0;
#X connect 12 0 2 0;
#X connect 13 0 14 0;
#X connect 15 0 34 0;
#X connect 15 1 3 0;
#X connect 15 2 13 0;
#X connect 16 0 22 0;
#X connect 17 0 18 0;
#X connect 18 0 19 0;
#X connect 19 0 20 0;
#X connect 19 1 21 0;
#X connect 20 0 16 0;
#X connect 21 0 20 1;
#X connect 22 0 24 1;
#X connect 23 0 24 0;
#X connect 24 0 70 0;
#X connect 29 0 28 0;
#X connect 29 0 28 1;
#X connect 30 0 29 1;
#X connect 31 0 15 0;
#X connect 32 0 43 0;
#X connect 33 0 63 0;
#X connect 34 0 35 0;
#X connect 35 0 36 0;
#X connect 36 0 70 2;
#X connect 37 0 41 0;
#X connect 38 0 35 0;
#X connect 39 0 42 0;
#X connect 40 0 35 0;
#X connect 41 0 38 0;
#X connect 42 0 40 0;
#X connect 43 0 37 0;
#X connect 43 0 39 0;
#X connect 43 1 41 1;
#X connect 43 1 42 1;
#X connect 43 2 33 0;
#X connect 44 0 54 0;
#X connect 44 1 55 0;
#X connect 45 0 46 0;
#X connect 46 0 44 0;
#X connect 47 0 48 0;
#X connect 48 0 44 0;
#X connect 49 0 50 0;
#X connect 50 0 44 0;
#X connect 51 0 52 0;
#X connect 52 0 44 0;
#X connect 53 0 44 0;
#X connect 54 0 28 0;
#X connect 55 0 28 1;
#X connect 56 0 54 1;
#X connect 56 0 55 1;
#X connect 57 0 58 0;
#X connect 58 0 44 0;
#X connect 59 0 60 0;
#X connect 60 0 44 0;
#X connect 61 0 62 0;
#X connect 62 0 63 1;
#X connect 63 0 70 1;
#X connect 64 0 62 1;
#X connect 65 0 66 0;
#X connect 66 0 32 0;
#X connect 67 0 68 0;
#X connect 70 0 29 0;
#X connect 70 0 44 0;
#X connect 70 0 67 0;
#X connect 70 0 69 0;
#X connect 71 0 35 0;
